<svg id="Layer_1" data-name="Layer 1" xmlns="http://www.w3.org/2000/svg" viewBox="0 0 622.19 565.65"><defs><style>.cls-1{fill:#231f20;}</style></defs><title>p-b</title><path class="cls-1" d="M199.26,167.11c-8-5.63,1.33-19.4,17.41-7.34,24.09,18.07,122.75,73.17,143.4-65.57,1.59-10.71,16.82-15.31,15.53-6-16.49,119.72-9.41,197.36,19.83,288.72q6.46-3.06,12.67-6.57c-16.87-51.67-29-109.7-28-162.62.72-38.88,21.17-107.91,33.75-107.2,21.24,4.2-33.68,85.53,11.05,104.05,25.78,10.68,29.51-3.1,60.52-38.89,5.64-6.51,18.78-7.45,3.81,19.09C455,245.54,424.31,294.11,426.56,358.55A197.78,197.78,0,0,0,509,197.91C509,88.78,420.22,0,311.09,0S113.18,88.78,113.18,197.91,202,395.82,311.09,395.82c2,0,3.89,0,5.83-.09-18.86-31.36-38.23-49.67-107-72.79-28.88-9.71-16.29-19.83-7.93-17.78,46,11.27,56.83,26.17,71.68,2.56,25.79-41-67.28-75-52.38-90.72,9.86-7.86,56.78,31.87,81,62.27,36.22,45.43,42.88,78.67,47.07,112.82q7.26-1.43,14.31-3.38C351.78,277.82,257.27,208.08,199.26,167.11Zm236.27-6a17.75,17.75,0,1,1-17.75,17.74A17.75,17.75,0,0,1,435.53,161.13ZM336.84,18l33.5,5.42-1.25,7.76L357.23,29.3l-5.57,34.4-9.78-1.58,5.57-34.4L335.58,25.8Zm-40.2,153.55a27.2,27.2,0,1,1,27.2-27.2A27.2,27.2,0,0,1,296.64,171.59Zm-6.78-151A3.35,3.35,0,0,1,292,21a3.66,3.66,0,0,1,1.35,1.41l10.49,21.93c.49.95,1,2,1.46,3.14s1,2.33,1.42,3.58c.14-1.31.32-2.57.55-3.78s.48-2.33.77-3.36l5.9-23.56a3.66,3.66,0,0,1,1-1.59,3.28,3.28,0,0,1,2-.86l8-.79L312.11,61.28l-8.92.88-21.26-40.8Zm-28.14,7.48,10.64,33.12,15.07-4.84,2.42,7.53-24.49,7.88L252.29,31.08Zm-24.28,9.2,3.84,6.58-15.14,8.83L231.59,62l12.6-7.35,3.86,6.61-12.61,7.35L243.81,83l-8.61,5L213.69,51.1ZM181.88,80a26,26,0,0,1,5.48-7.73A28.1,28.1,0,0,1,191.23,69a24.1,24.1,0,0,1,3.91-2.19A20.64,20.64,0,0,1,199,65.56a19.31,19.31,0,0,1,3.69-.44l1,5.12a2.7,2.7,0,0,1-.35,2.12,3,3,0,0,1-2,1.25c-.88.22-1.69.45-2.43.7a14.46,14.46,0,0,0-2.09.9,13.91,13.91,0,0,0-1.95,1.28,23.71,23.71,0,0,0-2,1.8A12.24,12.24,0,0,0,190,82.52a10.76,10.76,0,0,0-.74,4.64,12.46,12.46,0,0,0,1.31,4.75,17.69,17.69,0,0,0,3.33,4.56,18,18,0,0,0,4.93,3.62,12.33,12.33,0,0,0,5,1.29,11.44,11.44,0,0,0,4.86-.93,14.1,14.1,0,0,0,4.42-3,13.52,13.52,0,0,0,2-2.54,17.94,17.94,0,0,0,1.35-2.66L212,87.61l-3,3a2.09,2.09,0,0,1-1.39.68,1.65,1.65,0,0,1-1.26-.53l-3.85-3.86,10.77-10.71L226,89a22.72,22.72,0,0,1-2.5,7.4,27.5,27.5,0,0,1-4.73,6.23,26.8,26.8,0,0,1-8,5.6,22.14,22.14,0,0,1-8.47,2A20,20,0,0,1,194,108.6a22.23,22.23,0,0,1-7.31-5,23.77,23.77,0,0,1-5.06-7.34A19.64,19.64,0,0,1,180,88.19,20.47,20.47,0,0,1,181.88,80ZM169.56,215a18.78,18.78,0,0,1-4.69,6.45,20,20,0,0,1-7,4,25.41,25.41,0,0,1-8.71,1.27,23.93,23.93,0,0,1-8.75-1.72,20.18,20.18,0,0,1-6.82-4.5,19.51,19.51,0,0,1-4.38-6.82,23.94,23.94,0,0,1-.93-13.2,21.35,21.35,0,0,1,1.24-3.94,18.11,18.11,0,0,1,4.21-6.08l4.42,3.43a4.46,4.46,0,0,1,.73.77,2,2,0,0,1,.31,1.24,2.14,2.14,0,0,1-.25,1,11.15,11.15,0,0,1-.59,1l-.76,1.14a9.68,9.68,0,0,0-.76,1.48,12.61,12.61,0,0,0-.89,4.72,10.92,10.92,0,0,0,.82,4.51,9.85,9.85,0,0,0,2.58,3.57,12.34,12.34,0,0,0,4.24,2.37,19.33,19.33,0,0,0,5.77.92,17.45,17.45,0,0,0,5.85-.79,12.63,12.63,0,0,0,4.34-2.35,10.26,10.26,0,0,0,2.72-3.54,10.71,10.71,0,0,0,1-4.37,21.45,21.45,0,0,0-.08-2.47,12.1,12.1,0,0,0-.4-2.09,8.79,8.79,0,0,0-.79-1.83,11,11,0,0,0-1.27-1.75,3.61,3.61,0,0,1-.47-.77,2,2,0,0,1-.17-.86,1.94,1.94,0,0,1,.14-.7,2,2,0,0,1,.47-.66l4.21-3.85a16.39,16.39,0,0,1,5,6.56,22.79,22.79,0,0,1,1.54,9.22A21.86,21.86,0,0,1,169.56,215Zm3.68-29.78-41.72-9.11,2.13-9.74,41.71,9.12ZM171.84,120c-.51-.25-1.05-.54-1.63-.87s-1.16-.67-1.74-1l14.53,20a3.79,3.79,0,0,1,.75,2,3.94,3.94,0,0,1-.45,2.06l-.6,1.2a3.93,3.93,0,0,1-1.39,1.59,3.76,3.76,0,0,1-2,.57l-24.76.25c.65.27,1.29.53,1.91.8s1.18.53,1.69.78l21.94,11-3.92,7.8L138,147l3.39-6.76c.19-.38.37-.71.53-1a2.78,2.78,0,0,1,.55-.69,1.89,1.89,0,0,1,.71-.42,3.46,3.46,0,0,1,1-.14l24.28-.1q1.26,0,2.58,0c.88,0,1.77.09,2.67.17-.62-.68-1.22-1.37-1.79-2.06s-1.09-1.38-1.57-2.08L156,114.46a3.58,3.58,0,0,1-.5-.93,2.1,2.1,0,0,1-.1-.82,3.28,3.28,0,0,1,.23-.85q.2-.45.48-1l3.4-6.76,38.16,19.17-3.92,7.81Zm77.29,153.26A17.75,17.75,0,1,1,231.38,291,17.75,17.75,0,0,1,249.13,273.29Z"/><path class="cls-1" d="M26,463.1a1.7,1.7,0,0,1,.59.1,1.64,1.64,0,0,1,.56.38L30.37,467A13.51,13.51,0,0,1,25,471.26a18.89,18.89,0,0,1-7.65,1.43,18.23,18.23,0,0,1-7.27-1.38,15.71,15.71,0,0,1-5.44-3.81,16.66,16.66,0,0,1-3.43-5.76A21.23,21.23,0,0,1,0,454.5a20.09,20.09,0,0,1,1.29-7.31,17.14,17.14,0,0,1,3.64-5.75,16.33,16.33,0,0,1,5.62-3.76,18.69,18.69,0,0,1,7.2-1.35,18.85,18.85,0,0,1,3.77.36,17.49,17.49,0,0,1,3.31,1,14.37,14.37,0,0,1,2.83,1.5,14.54,14.54,0,0,1,2.3,1.9l-2.78,3.74a3.77,3.77,0,0,1-.64.62,1.64,1.64,0,0,1-1,.28,1.84,1.84,0,0,1-.83-.19c-.26-.14-.53-.29-.83-.48l-1-.61a8,8,0,0,0-1.24-.61,10.41,10.41,0,0,0-1.69-.48,11.56,11.56,0,0,0-2.26-.19,9.17,9.17,0,0,0-3.75.75A8.33,8.33,0,0,0,11,446.11a10.31,10.31,0,0,0-1.9,3.57,15.82,15.82,0,0,0-.67,4.82,14.86,14.86,0,0,0,.74,4.86,10.64,10.64,0,0,0,2,3.58,8.73,8.73,0,0,0,3,2.21,9,9,0,0,0,3.66.75,16.16,16.16,0,0,0,2.05-.11,9.24,9.24,0,0,0,1.74-.36,6.88,6.88,0,0,0,1.51-.69,9.31,9.31,0,0,0,1.44-1.08,3.31,3.31,0,0,1,.64-.41A1.69,1.69,0,0,1,26,463.1Z"/><path class="cls-1" d="M69.59,454.5a19.26,19.26,0,0,1-1.33,7.18,17,17,0,0,1-9.58,9.62,19.75,19.75,0,0,1-7.55,1.39,19.85,19.85,0,0,1-7.57-1.39A17,17,0,0,1,34,461.68a20,20,0,0,1,0-14.36,16.92,16.92,0,0,1,9.61-9.59,19.85,19.85,0,0,1,7.57-1.4,19.57,19.57,0,0,1,7.55,1.41,17.62,17.62,0,0,1,5.83,3.84,17.23,17.23,0,0,1,3.75,5.77A19.18,19.18,0,0,1,69.59,454.5Zm-8.45,0a15.26,15.26,0,0,0-.69-4.75,10.06,10.06,0,0,0-2-3.58,8.56,8.56,0,0,0-3.14-2.24,10.8,10.8,0,0,0-4.22-.78,10.93,10.93,0,0,0-4.26.78,8.43,8.43,0,0,0-3.15,2.24,10.07,10.07,0,0,0-2,3.58,17,17,0,0,0,0,9.52,10.07,10.07,0,0,0,2,3.58,8.32,8.32,0,0,0,3.15,2.24,11.12,11.12,0,0,0,4.26.76,11,11,0,0,0,4.22-.76,8.44,8.44,0,0,0,3.14-2.24,10.06,10.06,0,0,0,2-3.58A15.3,15.3,0,0,0,61.14,454.5Z"/><path class="cls-1" d="M116,436.73V472.3h-7.27V451.84c0-.47,0-1,0-1.54s.07-1.11.14-1.68L99.4,466.9a3.12,3.12,0,0,1-1.18,1.3,3.34,3.34,0,0,1-1.7.44H95.4a3.29,3.29,0,0,1-1.7-.44,3.14,3.14,0,0,1-1.19-1.3l-9.44-18.33c0,.58.08,1.16.12,1.72s0,1.08,0,1.55V472.3H76V436.73h6.3c.36,0,.67,0,.94,0a2.55,2.55,0,0,1,.72.15,1.6,1.6,0,0,1,.57.37,3.19,3.19,0,0,1,.5.73l9.16,18c.32.62.64,1.26.94,1.93s.59,1.35.87,2c.27-.72.56-1.42.86-2.1s.63-1.33,1-1.95l9.13-18a3.19,3.19,0,0,1,.5-.73,1.6,1.6,0,0,1,.57-.37,2.62,2.62,0,0,1,.72-.15c.27,0,.59,0,.94,0Z"/><path class="cls-1" d="M132.65,472.3h-8.3V436.73h8.3Z"/><path class="cls-1" d="M160.71,444a3.11,3.11,0,0,1-.77.88,1.71,1.71,0,0,1-1,.29,2.5,2.5,0,0,1-1.21-.35l-1.46-.79a12.08,12.08,0,0,0-1.87-.8,7.65,7.65,0,0,0-2.39-.35,5.16,5.16,0,0,0-3.46,1,3.35,3.35,0,0,0-1.13,2.67,2.43,2.43,0,0,0,.68,1.78,5.76,5.76,0,0,0,1.79,1.22,19.4,19.4,0,0,0,2.54.95c1,.28,1.93.6,2.92.95a26.56,26.56,0,0,1,2.92,1.23,9.55,9.55,0,0,1,2.54,1.81,8.29,8.29,0,0,1,1.79,2.67,9.45,9.45,0,0,1,.69,3.8,12.35,12.35,0,0,1-.86,4.61,10.8,10.8,0,0,1-2.47,3.75,11.52,11.52,0,0,1-4,2.52,15,15,0,0,1-5.41.91,17.15,17.15,0,0,1-3.38-.34,19.62,19.62,0,0,1-3.33-1,18.47,18.47,0,0,1-3-1.47,13.05,13.05,0,0,1-2.47-1.91l2.45-3.85a2.44,2.44,0,0,1,.76-.7,2,2,0,0,1,1-.28,2.78,2.78,0,0,1,1.48.46l1.68,1a14.5,14.5,0,0,0,2.16,1,8.14,8.14,0,0,0,2.89.47,5.49,5.49,0,0,0,3.49-1,3.77,3.77,0,0,0,1.24-3.14,3,3,0,0,0-.68-2A5.29,5.29,0,0,0,153,458.7a17.28,17.28,0,0,0-2.53-.9q-1.42-.39-2.91-.87a22,22,0,0,1-2.9-1.17,9.35,9.35,0,0,1-2.53-1.83,8.64,8.64,0,0,1-1.8-2.84,11.32,11.32,0,0,1-.68-4.18,10.08,10.08,0,0,1,3.18-7.3,11.37,11.37,0,0,1,3.83-2.38,14,14,0,0,1,5.2-.9,19.71,19.71,0,0,1,3.19.26,16.75,16.75,0,0,1,5.54,2,12.51,12.51,0,0,1,2.16,1.58Z"/><path class="cls-1" d="M189.27,444a3.09,3.09,0,0,1-.76.88,1.71,1.71,0,0,1-1,.29,2.47,2.47,0,0,1-1.21-.35l-1.47-.79a11.55,11.55,0,0,0-1.86-.8,7.67,7.67,0,0,0-2.4-.35,5.15,5.15,0,0,0-3.45,1,3.36,3.36,0,0,0-1.14,2.67,2.44,2.44,0,0,0,.69,1.78,5.64,5.64,0,0,0,1.79,1.22,18.87,18.87,0,0,0,2.54.95c.95.28,1.93.6,2.92.95a27.4,27.4,0,0,1,2.92,1.23,9.55,9.55,0,0,1,2.54,1.81,8.46,8.46,0,0,1,1.79,2.67,9.46,9.46,0,0,1,.68,3.8,12.35,12.35,0,0,1-.85,4.61,10.82,10.82,0,0,1-2.48,3.75,11.48,11.48,0,0,1-4,2.52,15,15,0,0,1-5.41.91,17.07,17.07,0,0,1-3.38-.34,20,20,0,0,1-3.34-1,18.77,18.77,0,0,1-3-1.47,12.74,12.74,0,0,1-2.47-1.91l2.44-3.85a2.48,2.48,0,0,1,.77-.7,2,2,0,0,1,1-.28,2.78,2.78,0,0,1,1.48.46l1.68,1a14.5,14.5,0,0,0,2.16,1,8.12,8.12,0,0,0,2.88.47,5.47,5.47,0,0,0,3.49-1,3.78,3.78,0,0,0,1.25-3.14,3,3,0,0,0-.68-2,5.33,5.33,0,0,0-1.8-1.29,16.48,16.48,0,0,0-2.53-.9c-.94-.26-1.91-.55-2.9-.87a22.67,22.67,0,0,1-2.91-1.17,9.46,9.46,0,0,1-2.52-1.83,8.64,8.64,0,0,1-1.8-2.84,11.32,11.32,0,0,1-.68-4.18,10,10,0,0,1,3.17-7.3,11.41,11.41,0,0,1,3.84-2.38,14,14,0,0,1,5.2-.9,19.5,19.5,0,0,1,3.18.26,15.82,15.82,0,0,1,2.94.76,16.35,16.35,0,0,1,2.61,1.19,12.51,12.51,0,0,1,2.16,1.58Z"/><path class="cls-1" d="M229.29,472.3h-6.4a2.82,2.82,0,0,1-1.73-.5,3.17,3.17,0,0,1-1-1.28l-2.1-6.2H204.53l-2.1,6.2a3,3,0,0,1-1,1.23,2.67,2.67,0,0,1-1.72.55H193.3l13.77-35.57h8.45Zm-15-42.22a1.76,1.76,0,0,0,.9-.2,1.74,1.74,0,0,0,.6-.54,2.21,2.21,0,0,0,.34-.71,2.34,2.34,0,0,0,.11-.72h4.59a9.26,9.26,0,0,1-.36,2.59,7,7,0,0,1-1.08,2.21,5.28,5.28,0,0,1-1.75,1.54,5,5,0,0,1-2.42.57,6.44,6.44,0,0,1-2.33-.37,9.73,9.73,0,0,1-1.71-.81l-1.36-.82a2.41,2.41,0,0,0-1.24-.37,1.83,1.83,0,0,0-.91.22,1.8,1.8,0,0,0-.58.55,2.33,2.33,0,0,0-.32.72,3.36,3.36,0,0,0-.1.74H202a9.26,9.26,0,0,1,.37-2.59,7.13,7.13,0,0,1,1.09-2.23,5.55,5.55,0,0,1,1.75-1.56,4.86,4.86,0,0,1,2.41-.58,6.77,6.77,0,0,1,2.34.36,10.49,10.49,0,0,1,1.71.82l1.35.82A2.4,2.4,0,0,0,214.3,430.08Zm1.88,28.62-3.3-9.74q-.36-.93-.78-2.19c-.27-.84-.55-1.74-.83-2.72q-.36,1.49-.78,2.76c-.27.85-.54,1.58-.78,2.2l-3.27,9.69Z"/><path class="cls-1" d="M267.36,454.5a19.26,19.26,0,0,1-1.33,7.18,17.33,17.33,0,0,1-3.75,5.77,17.15,17.15,0,0,1-5.82,3.85,21.28,21.28,0,0,1-15.13,0,17,17,0,0,1-9.61-9.62,20,20,0,0,1,0-14.36,16.92,16.92,0,0,1,9.61-9.59,19.85,19.85,0,0,1,7.57-1.4,19.58,19.58,0,0,1,7.56,1.41,17.57,17.57,0,0,1,5.82,3.84,17.23,17.23,0,0,1,3.75,5.77A19.18,19.18,0,0,1,267.36,454.5Zm-8.45,0a15.57,15.57,0,0,0-.68-4.75,10.07,10.07,0,0,0-2-3.58,8.48,8.48,0,0,0-3.14-2.24,10.77,10.77,0,0,0-4.22-.78,10.93,10.93,0,0,0-4.26.78,8.43,8.43,0,0,0-3.15,2.24,10.07,10.07,0,0,0-2,3.58,17,17,0,0,0,0,9.52,10.07,10.07,0,0,0,2,3.58,8.32,8.32,0,0,0,3.15,2.24,11.12,11.12,0,0,0,4.26.76,11,11,0,0,0,4.22-.76,8.36,8.36,0,0,0,3.14-2.24,10.07,10.07,0,0,0,2-3.58A15.61,15.61,0,0,0,258.91,454.5Z"/><path class="cls-1" d="M318.8,454.5a18.61,18.61,0,0,1-1.33,7.12,16.49,16.49,0,0,1-3.75,5.64A17,17,0,0,1,307.9,471a20.53,20.53,0,0,1-7.55,1.33H286.53V436.73h13.82a20.33,20.33,0,0,1,7.55,1.34,17.12,17.12,0,0,1,5.82,3.71,16.26,16.26,0,0,1,3.75,5.63A18.53,18.53,0,0,1,318.8,454.5Zm-8.44,0a15.37,15.37,0,0,0-.69-4.76,10.06,10.06,0,0,0-2-3.6,8.52,8.52,0,0,0-3.14-2.27,10.66,10.66,0,0,0-4.22-.8h-5.52V466h5.52a10.66,10.66,0,0,0,4.22-.79,8.63,8.63,0,0,0,3.14-2.27,10.24,10.24,0,0,0,2-3.6A15.52,15.52,0,0,0,310.36,454.5Z"/><path class="cls-1" d="M333.5,443.07v8.31h11.18v6.1H333.5V466h14.6v6.35H325.2V436.73h22.9v6.34Z"/><path class="cls-1" d="M375.79,472.3h-8.3V436.73h8.3Z"/><path class="cls-1" d="M415.25,436.73V472.3H411a3.78,3.78,0,0,1-1.6-.3,3.94,3.94,0,0,1-1.28-1.07l-16.78-21.21c.07.63.11,1.24.14,1.84s0,1.15,0,1.67V472.3h-7.28V436.73h4.35a7.71,7.71,0,0,1,.9,0,2.67,2.67,0,0,1,.66.19,2.14,2.14,0,0,1,.56.38,6,6,0,0,1,.61.66l16.92,21.36c-.08-.68-.14-1.35-.17-2s0-1.25,0-1.82V436.73Z"/><path class="cls-1" d="M449.21,443.27h-10v29H431v-29h-10v-6.54h28.27Z"/><path class="cls-1" d="M463.2,443.07v8.31h11.18v6.1H463.2V466h14.6v6.35H454.9V436.73h22.9v6.34Z"/><path class="cls-1" d="M513.5,472.3H506a3.16,3.16,0,0,1-3-1.56l-5.91-10.33a2.86,2.86,0,0,0-.93-1,2.81,2.81,0,0,0-1.46-.31h-2.1V472.3h-8.26V436.73H496a23.76,23.76,0,0,1,6.58.79,12.48,12.48,0,0,1,4.44,2.21,8.32,8.32,0,0,1,2.5,3.34,10.94,10.94,0,0,1,.79,4.2,11.31,11.31,0,0,1-.47,3.28,10.19,10.19,0,0,1-1.36,2.84,10.5,10.5,0,0,1-2.24,2.33,12.19,12.19,0,0,1-3.06,1.69,7.48,7.48,0,0,1,1.51,1,7.33,7.33,0,0,1,1.27,1.48ZM496,453.45a8.38,8.38,0,0,0,2.87-.43,5.21,5.21,0,0,0,1.94-1.18,4.67,4.67,0,0,0,1.1-1.77,7,7,0,0,0,.34-2.19,4.58,4.58,0,0,0-1.53-3.66A7.07,7.07,0,0,0,496,442.9h-3.32v10.55Z"/><path class="cls-1" d="M549.07,436.73V472.3h-4.29a3.78,3.78,0,0,1-1.6-.3,4.07,4.07,0,0,1-1.29-1.07l-16.77-21.21c.06.63.11,1.24.13,1.84s0,1.15,0,1.67V472.3H518V436.73h4.35a7.6,7.6,0,0,1,.9,0,2.44,2.44,0,0,1,.66.19,1.85,1.85,0,0,1,.56.38,5.93,5.93,0,0,1,.62.66L542,459.36c-.09-.68-.14-1.35-.17-2s-.05-1.25-.05-1.82V436.73Z"/><path class="cls-1" d="M592.39,454.5a19.26,19.26,0,0,1-1.33,7.18,17.33,17.33,0,0,1-3.75,5.77,17.15,17.15,0,0,1-5.82,3.85,21.28,21.28,0,0,1-15.13,0,17,17,0,0,1-9.61-9.62,20,20,0,0,1,0-14.36,16.92,16.92,0,0,1,9.61-9.59,19.85,19.85,0,0,1,7.57-1.4,19.58,19.58,0,0,1,7.56,1.41,17.57,17.57,0,0,1,5.82,3.84,17.23,17.23,0,0,1,3.75,5.77A19.18,19.18,0,0,1,592.39,454.5Zm-8.45,0a15.57,15.57,0,0,0-.68-4.75,10.07,10.07,0,0,0-2-3.58,8.48,8.48,0,0,0-3.14-2.24,10.77,10.77,0,0,0-4.22-.78,10.93,10.93,0,0,0-4.26.78,8.43,8.43,0,0,0-3.15,2.24,10.07,10.07,0,0,0-2,3.58,17,17,0,0,0,0,9.52,10.07,10.07,0,0,0,2,3.58,8.32,8.32,0,0,0,3.15,2.24,11.12,11.12,0,0,0,4.26.76,11,11,0,0,0,4.22-.76,8.36,8.36,0,0,0,3.14-2.24,10.07,10.07,0,0,0,2-3.58A15.61,15.61,0,0,0,583.94,454.5Z"/><path class="cls-1" d="M618.42,444a3.11,3.11,0,0,1-.77.88,1.71,1.71,0,0,1-1,.29,2.47,2.47,0,0,1-1.21-.35l-1.47-.79a11.55,11.55,0,0,0-1.86-.8,7.67,7.67,0,0,0-2.4-.35,5.15,5.15,0,0,0-3.45,1,3.36,3.36,0,0,0-1.14,2.67,2.44,2.44,0,0,0,.69,1.78,5.64,5.64,0,0,0,1.79,1.22,18.87,18.87,0,0,0,2.54.95c.95.28,1.93.6,2.92.95a26.56,26.56,0,0,1,2.92,1.23,9.55,9.55,0,0,1,2.54,1.81,8.29,8.29,0,0,1,1.79,2.67,9.46,9.46,0,0,1,.68,3.8,12.35,12.35,0,0,1-.85,4.61,10.82,10.82,0,0,1-2.48,3.75,11.48,11.48,0,0,1-4,2.52,15,15,0,0,1-5.41.91,17.15,17.15,0,0,1-3.38-.34,20,20,0,0,1-3.34-1,18.77,18.77,0,0,1-3-1.47A12.74,12.74,0,0,1,596,468l2.44-3.85a2.48,2.48,0,0,1,.77-.7,2,2,0,0,1,1-.28,2.78,2.78,0,0,1,1.48.46l1.68,1a14.5,14.5,0,0,0,2.16,1,8.12,8.12,0,0,0,2.88.47,5.45,5.45,0,0,0,3.49-1,3.75,3.75,0,0,0,1.25-3.14,3,3,0,0,0-.68-2,5.33,5.33,0,0,0-1.8-1.29,16.73,16.73,0,0,0-2.52-.9q-1.43-.39-2.91-.87a22.67,22.67,0,0,1-2.91-1.17,9.46,9.46,0,0,1-2.52-1.83,8.64,8.64,0,0,1-1.8-2.84,11.32,11.32,0,0,1-.68-4.18,10,10,0,0,1,3.17-7.3,11.41,11.41,0,0,1,3.84-2.38,14,14,0,0,1,5.2-.9,19.5,19.5,0,0,1,3.18.26,16.14,16.14,0,0,1,3,.76,16.65,16.65,0,0,1,2.6,1.19,12.51,12.51,0,0,1,2.16,1.58Z"/><path class="cls-1" d="M28,504A16.66,16.66,0,0,1,27,510a13.4,13.4,0,0,1-3,4.68,13.27,13.27,0,0,1-4.64,3,16.15,16.15,0,0,1-6,1.07H2.28V489.1H13.37a16.15,16.15,0,0,1,6,1.07,13.27,13.27,0,0,1,4.64,3,13.67,13.67,0,0,1,3,4.7A16.6,16.6,0,0,1,28,504Zm-4.13,0a14.86,14.86,0,0,0-.74-4.89A10.27,10.27,0,0,0,21,495.42a9.09,9.09,0,0,0-3.31-2.28,11.64,11.64,0,0,0-4.36-.78H6.3v23.19h7.07a11.64,11.64,0,0,0,4.36-.78A9.18,9.18,0,0,0,21,512.5a10.22,10.22,0,0,0,2.12-3.64A14.88,14.88,0,0,0,23.9,504Z"/><path class="cls-1" d="M51.56,515.53l0,3.28H33.23V489.1H51.54v3.28H37.25v9.86H48.82v3.15H37.25v10.14Z"/><path class="cls-1" d="M97.54,489.1v29.71H94V497q0-.44,0-.93c0-.34,0-.68.07-1L83.92,513.6a1.54,1.54,0,0,1-1.45.94h-.58a1.54,1.54,0,0,1-1.45-.94L70,495a16.65,16.65,0,0,1,.13,2v21.83H66.63V489.1h3a2.6,2.6,0,0,1,.83.1,1.25,1.25,0,0,1,.56.58l10.26,18.29c.16.33.33.68.49,1s.3.72.44,1.09c.14-.37.28-.74.44-1.1a10.15,10.15,0,0,1,.49-1.05l10.08-18.27a1.11,1.11,0,0,1,.55-.58,2.67,2.67,0,0,1,.84-.1Z"/><path class="cls-1" d="M122.88,515.53l0,3.28h-18.3V489.1h18.3v3.28H108.57v9.86h11.57v3.15H108.57v10.14Z"/><path class="cls-1" d="M153.66,504A16.66,16.66,0,0,1,152.6,510a13.1,13.1,0,0,1-7.61,7.7,16.25,16.25,0,0,1-6,1.07H127.91V489.1H139a16.25,16.25,0,0,1,6,1.07,13.32,13.32,0,0,1,4.63,3,13.67,13.67,0,0,1,3,4.7A16.6,16.6,0,0,1,153.66,504Zm-4.12,0a14.86,14.86,0,0,0-.75-4.89,10.4,10.4,0,0,0-2.11-3.65,9.21,9.21,0,0,0-3.32-2.28,11.64,11.64,0,0,0-4.36-.78h-7.07v23.19H139a11.64,11.64,0,0,0,4.36-.78,9.31,9.31,0,0,0,3.32-2.27,10.35,10.35,0,0,0,2.11-3.64A14.88,14.88,0,0,0,149.54,504Z"/><path class="cls-1" d="M162.89,518.81h-4V489.1h4Z"/><path class="cls-1" d="M190.75,512.67a.76.76,0,0,1,.58.27l1.6,1.72a12.74,12.74,0,0,1-4.43,3.3,15.09,15.09,0,0,1-6.29,1.18A14.75,14.75,0,0,1,176.4,518a12.68,12.68,0,0,1-4.45-3.11,13.87,13.87,0,0,1-2.86-4.8,17.85,17.85,0,0,1-1-6.16,17.15,17.15,0,0,1,1.06-6.15,13.94,13.94,0,0,1,3-4.81,13.35,13.35,0,0,1,4.59-3.12,15.32,15.32,0,0,1,5.91-1.11,14.53,14.53,0,0,1,5.6,1,14.13,14.13,0,0,1,4.27,2.76l-1.32,1.85a1.33,1.33,0,0,1-.33.34.89.89,0,0,1-.52.13,1.65,1.65,0,0,1-.92-.4,13.64,13.64,0,0,0-1.41-.9,10.53,10.53,0,0,0-5.39-1.31,10.89,10.89,0,0,0-4.21.8,9.14,9.14,0,0,0-3.28,2.31,10.66,10.66,0,0,0-2.15,3.69,14.75,14.75,0,0,0-.77,4.91,14.37,14.37,0,0,0,.8,5,11.05,11.05,0,0,0,2.18,3.68,9.16,9.16,0,0,0,3.25,2.29,10.35,10.35,0,0,0,4.06.79,15.77,15.77,0,0,0,2.39-.16,9,9,0,0,0,2-.49,8.24,8.24,0,0,0,1.68-.84,11.69,11.69,0,0,0,1.55-1.21A1,1,0,0,1,190.75,512.67Z"/><path class="cls-1" d="M201,518.81h-4V489.1h4Z"/><path class="cls-1" d="M232.11,489.1v29.71h-2a1.75,1.75,0,0,1-.8-.17,2,2,0,0,1-.63-.56l-17.19-22.39q0,.53.06,1t0,.93v21.17H208V489.1h2.07a3,3,0,0,1,.46,0,1.07,1.07,0,0,1,.33.11.89.89,0,0,1,.29.2,3.6,3.6,0,0,1,.31.34l17.19,22.37c0-.36-.05-.7-.07-1s0-.66,0-1v-21Z"/><path class="cls-1" d="M263.27,518.81h-3.11a1.33,1.33,0,0,1-.87-.27,1.67,1.67,0,0,1-.5-.69L256,510.68H242.68l-2.78,7.17a1.45,1.45,0,0,1-.47.67,1.36,1.36,0,0,1-.87.29h-3.11l11.88-29.71h4.06Zm-8.38-11-4.66-12.09c-.14-.36-.29-.77-.44-1.25s-.29-1-.43-1.53a22.92,22.92,0,0,1-.89,2.8l-4.67,12.07Z"/><path class="cls-1" d="M299.38,504.52v11.41a16.67,16.67,0,0,1-4.78,2.41,18.49,18.49,0,0,1-5.56.8,17.89,17.89,0,0,1-6.47-1.11,14.15,14.15,0,0,1-4.92-3.11,13.5,13.5,0,0,1-3.15-4.8,16.75,16.75,0,0,1-1.09-6.16,17.26,17.26,0,0,1,1.06-6.19,13.67,13.67,0,0,1,3-4.8,13.35,13.35,0,0,1,4.79-3.1,17.07,17.07,0,0,1,6.3-1.1,18.72,18.72,0,0,1,3.28.26,15.27,15.27,0,0,1,2.8.74,13.23,13.23,0,0,1,2.38,1.19,14.2,14.2,0,0,1,2.05,1.56L298,494.35a1.17,1.17,0,0,1-.69.52,1.23,1.23,0,0,1-.95-.19c-.33-.2-.71-.43-1.14-.71a10.68,10.68,0,0,0-1.56-.8,13.25,13.25,0,0,0-2.18-.65,14.26,14.26,0,0,0-3-.27,12,12,0,0,0-4.54.82,9.64,9.64,0,0,0-3.46,2.34,10.33,10.33,0,0,0-2.2,3.69,15.91,15.91,0,0,0,0,9.87,10.44,10.44,0,0,0,2.28,3.75,9.77,9.77,0,0,0,3.6,2.36,13.39,13.39,0,0,0,4.74.8,13.22,13.22,0,0,0,3.68-.46,15.44,15.44,0,0,0,3.14-1.3v-6.53h-4.62a.85.85,0,0,1-.63-.23.73.73,0,0,1-.24-.56v-2.28Z"/><path class="cls-1" d="M323.29,515.53l0,3.28H305V489.1h18.3v3.28H309v9.86h11.57v3.15H309v10.14Z"/><path class="cls-1" d="M350.28,518.81h-3.57a1.74,1.74,0,0,1-1.61-.85l-7.72-10.62a2.17,2.17,0,0,0-.75-.71,2.71,2.71,0,0,0-1.26-.22h-3v12.4h-4V489.1h8.4a18.34,18.34,0,0,1,4.87.57,9.25,9.25,0,0,1,3.39,1.65,6.6,6.6,0,0,1,2,2.6,8.67,8.67,0,0,1,.64,3.41,8.56,8.56,0,0,1-.49,2.94,8,8,0,0,1-1.44,2.46,8.51,8.51,0,0,1-2.31,1.86,11.31,11.31,0,0,1-3.07,1.16,4,4,0,0,1,1.32,1.26Zm-13.73-15.32a9.92,9.92,0,0,0,3.08-.43,6.23,6.23,0,0,0,2.24-1.2,5,5,0,0,0,1.36-1.86,6.08,6.08,0,0,0,.46-2.38,4.73,4.73,0,0,0-1.75-4,8.44,8.44,0,0,0-5.22-1.35h-4.39v11.22Z"/><path class="cls-1" d="M377.87,518.81h-3.11a1.33,1.33,0,0,1-.87-.27,1.67,1.67,0,0,1-.5-.69l-2.77-7.17H357.29l-2.78,7.17a1.55,1.55,0,0,1-.48.67,1.36,1.36,0,0,1-.87.29h-3.11l11.88-29.71H366Zm-8.37-11-4.67-12.09c-.14-.36-.28-.77-.43-1.25s-.3-1-.44-1.53a22.92,22.92,0,0,1-.89,2.8l-4.67,12.07Z"/><path class="cls-1" d="M398.06,515.43v3.38H381.21V489.1h4v26.33Z"/><path class="cls-1" d="M429,515.53l0,3.28h-18.3V489.1H429v3.28H414.73v9.86H426.3v3.15H414.73v10.14Z"/><path class="cls-1" d="M448.13,492.38v10.38h12.21V506H448.13v12.77h-4V489.1h18.3v3.28Z"/><path class="cls-1" d="M488.72,518.81h-3.11a1.33,1.33,0,0,1-.87-.27,1.67,1.67,0,0,1-.5-.69l-2.77-7.17H468.13l-2.77,7.17a1.55,1.55,0,0,1-.48.67,1.36,1.36,0,0,1-.87.29H460.9l11.88-29.71h4.06Zm-8.37-11-4.67-12.09c-.14-.36-.28-.77-.43-1.25s-.3-1-.44-1.53a22.92,22.92,0,0,1-.89,2.8l-4.67,12.07Z"/><path class="cls-1" d="M523,489.1v29.71h-3.53V497c0-.29,0-.6,0-.93s0-.68.07-1l-10.2,18.57a1.54,1.54,0,0,1-1.45.94h-.58a1.55,1.55,0,0,1-1.46-.94L495.46,495a18.77,18.77,0,0,1,.12,2v21.83h-3.52V489.1h3a2.56,2.56,0,0,1,.83.1,1.21,1.21,0,0,1,.56.58l10.26,18.29c.17.33.33.68.49,1s.31.72.45,1.09c.13-.37.28-.74.43-1.1a10.19,10.19,0,0,1,.5-1.05l10.08-18.27a1.1,1.1,0,0,1,.54-.58,2.67,2.67,0,0,1,.84-.1Z"/><path class="cls-1" d="M534,518.81h-4V489.1h4Z"/><path class="cls-1" d="M557.86,515.43v3.38H541V489.1h4v26.33Z"/><path class="cls-1" d="M565.74,518.81h-4V489.1h4Z"/><path class="cls-1" d="M596.9,518.81h-3.11a1.33,1.33,0,0,1-.87-.27,1.58,1.58,0,0,1-.5-.69l-2.78-7.17H576.31l-2.78,7.17a1.45,1.45,0,0,1-.47.67,1.37,1.37,0,0,1-.88.29h-3.1L581,489.1H585Zm-8.38-11-4.66-12.09c-.14-.36-.29-.77-.44-1.25s-.3-1-.43-1.53a21.16,21.16,0,0,1-.9,2.8l-4.66,12.07Z"/><path class="cls-1" d="M622.19,518.81h-3.57A1.74,1.74,0,0,1,617,518l-7.72-10.62a2.17,2.17,0,0,0-.75-.71,2.71,2.71,0,0,0-1.26-.22h-3v12.4h-4V489.1h8.4a18.34,18.34,0,0,1,4.87.57,9.25,9.25,0,0,1,3.39,1.65,6.6,6.6,0,0,1,2,2.6,8.67,8.67,0,0,1,.64,3.41,8.56,8.56,0,0,1-.49,2.94,8,8,0,0,1-1.44,2.46,8.51,8.51,0,0,1-2.31,1.86,11.31,11.31,0,0,1-3.07,1.16,4,4,0,0,1,1.32,1.26Zm-13.73-15.32a9.92,9.92,0,0,0,3.08-.43,6.23,6.23,0,0,0,2.24-1.2,5,5,0,0,0,1.36-1.86,6.08,6.08,0,0,0,.46-2.38,4.73,4.73,0,0,0-1.75-4,8.44,8.44,0,0,0-5.22-1.35h-4.39v11.22Z"/><path class="cls-1" d="M81.08,550.47A16.66,16.66,0,0,1,80,556.55a13.49,13.49,0,0,1-3,4.68,13.27,13.27,0,0,1-4.64,3,16.15,16.15,0,0,1-6,1.07H55.33V535.61H66.42a16,16,0,0,1,6,1.07,13.27,13.27,0,0,1,4.64,3,13.58,13.58,0,0,1,3,4.7A16.6,16.6,0,0,1,81.08,550.47Zm-4.13,0a14.86,14.86,0,0,0-.74-4.89,10.27,10.27,0,0,0-2.12-3.65,9.09,9.09,0,0,0-3.31-2.28,11.64,11.64,0,0,0-4.36-.79H59.35v23.2h7.07a11.44,11.44,0,0,0,4.36-.79A8.94,8.94,0,0,0,74.09,559a10.09,10.09,0,0,0,2.12-3.63A14.88,14.88,0,0,0,77,550.47Z"/><path class="cls-1" d="M104.49,562l0,3.28H86.16V535.61h18.31v3.27H90.18v9.87h11.57v3.15H90.18V562Z"/><path class="cls-1" d="M136.16,561.94v3.38H119.31V535.61h4v26.33Z"/><path class="cls-1" d="M143.92,565.32h-4V535.61h4Z"/><path class="cls-1" d="M166,540.25a1.61,1.61,0,0,1-.41.47.9.9,0,0,1-.53.15,1.46,1.46,0,0,1-.83-.35c-.31-.23-.71-.49-1.19-.78a9.59,9.59,0,0,0-1.72-.77,7.26,7.26,0,0,0-2.44-.36,6.9,6.9,0,0,0-2.37.37,5.13,5.13,0,0,0-1.72,1,4.19,4.19,0,0,0-1,1.46,4.76,4.76,0,0,0-.35,1.82,3.4,3.4,0,0,0,.61,2.06,5.3,5.3,0,0,0,1.62,1.4,12.63,12.63,0,0,0,2.28,1l2.61.88q1.34.45,2.61,1a9.19,9.19,0,0,1,2.28,1.44,6.42,6.42,0,0,1,1.62,2.14,7.07,7.07,0,0,1,.61,3.11A10.08,10.08,0,0,1,167,560a8.36,8.36,0,0,1-1.94,3,9,9,0,0,1-3.13,2,11.39,11.39,0,0,1-4.22.73,12.8,12.8,0,0,1-5.26-1,12.36,12.36,0,0,1-4-2.83l1.16-1.91a1.64,1.64,0,0,1,.41-.38,1,1,0,0,1,.53-.16,1.23,1.23,0,0,1,.61.22c.23.15.49.33.78.55s.62.47,1,.73a8.58,8.58,0,0,0,1.28.72,8.31,8.31,0,0,0,1.62.55,8.68,8.68,0,0,0,2.06.22,7.76,7.76,0,0,0,2.55-.39,5.69,5.69,0,0,0,1.89-1.11,4.91,4.91,0,0,0,1.2-1.71,5.89,5.89,0,0,0,.41-2.22,3.7,3.7,0,0,0-.61-2.21,5.11,5.11,0,0,0-1.61-1.44,10.37,10.37,0,0,0-2.28-1l-2.61-.83c-.88-.29-1.76-.62-2.61-1a8.36,8.36,0,0,1-2.28-1.45,6.69,6.69,0,0,1-1.61-2.23,7.89,7.89,0,0,1-.61-3.31,7.79,7.79,0,0,1,.61-3,8,8,0,0,1,1.78-2.62,8.75,8.75,0,0,1,2.88-1.82,10.44,10.44,0,0,1,3.93-.68,12.59,12.59,0,0,1,4.53.78,10.92,10.92,0,0,1,3.6,2.28Z"/><path class="cls-1" d="M182.06,535.61a18.08,18.08,0,0,1,4.72.54,9.17,9.17,0,0,1,3.25,1.53,6,6,0,0,1,1.88,2.44,8.35,8.35,0,0,1,.6,3.24,6.48,6.48,0,0,1-.34,2.11,6.25,6.25,0,0,1-1,1.87,7.33,7.33,0,0,1-1.73,1.57A9.55,9.55,0,0,1,187,550a8.94,8.94,0,0,1,4.92,2.33,6.2,6.2,0,0,1,1.65,4.49,8.27,8.27,0,0,1-.7,3.44,7.26,7.26,0,0,1-2,2.67,9.32,9.32,0,0,1-3.28,1.73,14.75,14.75,0,0,1-4.44.62H172.59V535.61Zm-5.47,3.17v10.14h5.31a10.36,10.36,0,0,0,2.95-.38,5.74,5.74,0,0,0,2.07-1,4.09,4.09,0,0,0,1.22-1.61,5.32,5.32,0,0,0,.39-2.06A4.55,4.55,0,0,0,187,540a8.05,8.05,0,0,0-4.9-1.21ZM183,562.12a10,10,0,0,0,3-.39,5.39,5.39,0,0,0,2-1.11,4.23,4.23,0,0,0,1.17-1.7,6.07,6.07,0,0,0,.38-2.17,4.44,4.44,0,0,0-1.64-3.63,7.59,7.59,0,0,0-4.91-1.34h-6.43v10.34Z"/><path class="cls-1" d="M226.14,550.47a17,17,0,0,1-1.06,6.13,14,14,0,0,1-3,4.8,13.37,13.37,0,0,1-4.64,3.12,16.64,16.64,0,0,1-12,0,13.29,13.29,0,0,1-4.62-3.12,14,14,0,0,1-3-4.8,18.23,18.23,0,0,1,0-12.25,14.08,14.08,0,0,1,3-4.81,13.2,13.2,0,0,1,4.62-3.14,16.5,16.5,0,0,1,12,0,13.28,13.28,0,0,1,4.64,3.14,14.06,14.06,0,0,1,3,4.81A17,17,0,0,1,226.14,550.47Zm-4.13,0a15.3,15.3,0,0,0-.74-4.91,10.47,10.47,0,0,0-2.12-3.68,9.19,9.19,0,0,0-3.32-2.31,12,12,0,0,0-8.68,0,9.32,9.32,0,0,0-3.33,2.31,10.17,10.17,0,0,0-2.12,3.68,16.45,16.45,0,0,0,0,9.82,10.17,10.17,0,0,0,2.12,3.66,9.2,9.2,0,0,0,3.33,2.31,12.32,12.32,0,0,0,8.68,0,9.07,9.07,0,0,0,3.32-2.31,10.46,10.46,0,0,0,2.12-3.66A15.26,15.26,0,0,0,222,550.47Z"/><path class="cls-1" d="M254.54,565.32h-3.11a1.33,1.33,0,0,1-.87-.27,1.67,1.67,0,0,1-.5-.69l-2.78-7.17H234l-2.77,7.17a1.61,1.61,0,0,1-.48.67,1.36,1.36,0,0,1-.87.29h-3.11l11.88-29.71h4.06Zm-8.38-11L241.5,542.2c-.14-.36-.28-.78-.44-1.25s-.29-1-.43-1.53a22.92,22.92,0,0,1-.89,2.8l-4.67,12.07Z"/><path class="cls-1" d="M284.6,562l0,3.28H266.27V535.61h18.31v3.27H270.29v9.87h11.57v3.15H270.29V562Z"/><path class="cls-1" d="M322.08,535.61,310,565.32h-3.61l-12.11-29.71h3.21a1.33,1.33,0,0,1,.87.27,1.61,1.61,0,0,1,.5.68l8.38,21c.18.47.35,1,.53,1.54s.32,1.13.46,1.74c.14-.61.29-1.19.44-1.74a15.51,15.51,0,0,1,.5-1.54l8.35-21a1.54,1.54,0,0,1,.49-.65,1.32,1.32,0,0,1,.88-.3Z"/><path class="cls-1" d="M347.21,565.32H344.1a1.33,1.33,0,0,1-.87-.27,1.67,1.67,0,0,1-.5-.69L340,557.19H326.62l-2.78,7.17a1.5,1.5,0,0,1-.47.67,1.36,1.36,0,0,1-.87.29h-3.11l11.88-29.71h4.06Zm-8.38-11-4.66-12.09c-.14-.36-.29-.78-.44-1.25s-.29-1-.43-1.53a22.92,22.92,0,0,1-.89,2.8l-4.67,12.07Z"/><path class="cls-1" d="M367.28,561.94v3.38H350.42V535.61h4v26.33Z"/><path class="cls-1" d="M389.34,562l0,3.28H371V535.61h18.3v3.27H375v9.87H386.6v3.15H375V562Z"/><path class="cls-1" d="M429.91,550.47a16.87,16.87,0,0,1-1.06,6.08,13.51,13.51,0,0,1-3,4.68,13.23,13.23,0,0,1-4.63,3,16.19,16.19,0,0,1-6,1.07H404.16V535.61h11.09a16,16,0,0,1,6,1.07,13.23,13.23,0,0,1,4.63,3,13.6,13.6,0,0,1,3,4.7A16.81,16.81,0,0,1,429.91,550.47Zm-4.13,0a14.86,14.86,0,0,0-.75-4.89,10.25,10.25,0,0,0-2.11-3.65,9.12,9.12,0,0,0-3.32-2.28,11.62,11.62,0,0,0-4.35-.79h-7.07v23.2h7.07a11.42,11.42,0,0,0,4.35-.79,9,9,0,0,0,3.32-2.27,10.07,10.07,0,0,0,2.11-3.63A14.88,14.88,0,0,0,425.78,550.47Z"/><path class="cls-1" d="M462.43,550.47a17.26,17.26,0,0,1-1.05,6.13,14.19,14.19,0,0,1-3,4.8,13.42,13.42,0,0,1-4.63,3.12,16.66,16.66,0,0,1-12,0,13.48,13.48,0,0,1-4.62-3.12,14,14,0,0,1-3-4.8,18.23,18.23,0,0,1,0-12.25,14.06,14.06,0,0,1,3-4.81,13.39,13.39,0,0,1,4.62-3.14,16.52,16.52,0,0,1,12,0,13.33,13.33,0,0,1,4.63,3.14,14.23,14.23,0,0,1,3,4.81A17.25,17.25,0,0,1,462.43,550.47Zm-4.12,0a15,15,0,0,0-.75-4.91,10.45,10.45,0,0,0-2.11-3.68,9.28,9.28,0,0,0-3.32-2.31,12.06,12.06,0,0,0-8.69,0,9.19,9.19,0,0,0-3.32,2.31,10.33,10.33,0,0,0-2.13,3.68,16.45,16.45,0,0,0,0,9.82,10.33,10.33,0,0,0,2.13,3.66,9.07,9.07,0,0,0,3.32,2.31,12.34,12.34,0,0,0,8.69,0,9.16,9.16,0,0,0,3.32-2.31,10.45,10.45,0,0,0,2.11-3.66A15,15,0,0,0,458.31,550.47Z"/><path class="cls-1" d="M496.22,539h-9.61v26.33h-4V539H473v-3.38h23.26Z"/><path class="cls-1" d="M518.24,562l0,3.28H499.91V535.61h18.31v3.27H503.94v9.87h11.57v3.15H503.94V562Z"/><path class="cls-1" d="M533.4,555.05a14.93,14.93,0,0,1-.62,4.46,8.83,8.83,0,0,1-1.8,3.33,7.83,7.83,0,0,1-2.93,2.08,10.23,10.23,0,0,1-4,.73,16.2,16.2,0,0,1-4.19-.58c0-.4.06-.8.1-1.19s.08-.79.11-1.18a.94.94,0,0,1,.25-.57,1,1,0,0,1,.68-.21,3.6,3.6,0,0,1,1,.18,5.66,5.66,0,0,0,1.65.19,6.73,6.73,0,0,0,2.45-.42,4.22,4.22,0,0,0,1.8-1.28,5.91,5.91,0,0,0,1.11-2.23,11.75,11.75,0,0,0,.38-3.22V535.61h4Z"/><path class="cls-1" d="M567.42,550.47a17.26,17.26,0,0,1-1.06,6.13,14,14,0,0,1-3,4.8,13.33,13.33,0,0,1-4.63,3.12,16.64,16.64,0,0,1-12,0,13.42,13.42,0,0,1-4.63-3.12,14,14,0,0,1-3-4.8,18.23,18.23,0,0,1,0-12.25,14.06,14.06,0,0,1,3-4.81,13.33,13.33,0,0,1,4.63-3.14,16.5,16.5,0,0,1,12,0,13.24,13.24,0,0,1,4.63,3.14,14.08,14.08,0,0,1,3,4.81A17.25,17.25,0,0,1,567.42,550.47Zm-4.13,0a15,15,0,0,0-.75-4.91,10.3,10.3,0,0,0-2.11-3.68,9.19,9.19,0,0,0-3.32-2.31,12,12,0,0,0-8.68,0,9.32,9.32,0,0,0-3.33,2.31,10.33,10.33,0,0,0-2.13,3.68,16.66,16.66,0,0,0,0,9.82A10.33,10.33,0,0,0,545.1,559a9.2,9.2,0,0,0,3.33,2.31,12.32,12.32,0,0,0,8.68,0,9.07,9.07,0,0,0,3.32-2.31,10.29,10.29,0,0,0,2.11-3.66A15,15,0,0,0,563.29,550.47Z"/></svg>