<?xml version="1.0" encoding="UTF-8" standalone="no"?>
<svg
   xmlns:dc="http://purl.org/dc/elements/1.1/"
   xmlns:cc="http://creativecommons.org/ns#"
   xmlns:rdf="http://www.w3.org/1999/02/22-rdf-syntax-ns#"
   xmlns:svg="http://www.w3.org/2000/svg"
   xmlns="http://www.w3.org/2000/svg"
   xmlns:sodipodi="http://sodipodi.sourceforge.net/DTD/sodipodi-0.dtd"
   xmlns:inkscape="http://www.inkscape.org/namespaces/inkscape"
   id="Layer_1"
   data-name="Layer 1"
   viewBox="0 0 841.89 308.35"
   version="1.1"
   sodipodi:docname="logo-minibp.svg"
   inkscape:version="0.92.3 (2405546, 2018-03-11)">
  <metadata
     id="metadata149">
    <rdf:RDF>
      <cc:Work
         rdf:about="">
        <dc:format>image/svg+xml</dc:format>
        <dc:type
           rdf:resource="http://purl.org/dc/dcmitype/StillImage" />
        <dc:title>III JIM MGF ARS LVTSquare PB</dc:title>
      </cc:Work>
    </rdf:RDF>
  </metadata>
  <sodipodi:namedview
     pagecolor="#ffffff"
     bordercolor="#666666"
     borderopacity="1"
     objecttolerance="10"
     gridtolerance="10"
     guidetolerance="10"
     inkscape:pageopacity="0"
     inkscape:pageshadow="2"
     inkscape:window-width="1920"
     inkscape:window-height="1017"
     id="namedview147"
     showgrid="false"
     inkscape:zoom="0.41454346"
     inkscape:cx="420.94501"
     inkscape:cy="154.175"
     inkscape:window-x="-8"
     inkscape:window-y="-8"
     inkscape:window-maximized="1"
     inkscape:current-layer="Layer_1" />
  <defs
     id="defs4">
    <style
       id="style2">.cls-1{fill:none;}.cls-2{fill:#231f20;}</style>
  </defs>
  <title
     id="title6">III JIM MGF ARS LVTSquare PB</title>
  <path
     class="cls-1"
     d="M76.87,154.14v31.74q7.45-1.2,15.58-2.41a120.33,120.33,0,0,1-13.12-30.42Z"
     id="path8"
     style="fill:#ffffff" />
  <polygon
     class="cls-2"
     points="179.11 124.92 179.11 143.94 188.45 134.5 179.11 124.92"
     id="polygon10"
     style="fill:#ffffff" />
  <polygon
     class="cls-2"
     points="179.11 82.24 179.11 105.44 189.96 93.53 179.11 82.24"
     id="polygon12"
     style="fill:#ffffff" />
  <polygon
     class="cls-2"
     points="207.29 147.51 207.29 122.44 194.38 134.51 207.29 147.51"
     id="polygon14"
     style="fill:#ffffff" />
  <path
     class="cls-2"
     d="M179.11,148.77v23.95q13.66-1.36,28.18-2.62V153.84l-16-16.43Z"
     id="path16"
     style="fill:#ffffff" />
  <polygon
     class="cls-2"
     points="207.29 106.73 207.29 82.01 195.4 93.73 207.29 106.73"
     id="polygon18"
     style="fill:#ffffff" />
  <polygon
     class="cls-2"
     points="179.11 109.78 179.11 119.12 191.41 131.51 207.29 115.44 207.29 111.56 192.71 96.38 179.11 109.78"
     id="polygon20"
     style="fill:#ffffff" />
  <path
     class="cls-2"
     d="M207.29,58.16V35.47L196.62,47.63C200.7,51.75,204.59,55.62,207.29,58.16Z"
     id="path22"
     style="fill:#ffffff" />
  <polygon
     class="cls-2"
     points="179.11 67.57 179.11 75.95 192.58 90.66 207.29 74.5 207.29 64.44 194.01 50.6 179.11 67.57"
     id="polygon24"
     style="fill:#ffffff" />
  <polygon
     class="cls-2"
     points="179.11 35.06 179.11 63.29 191.95 48.44 179.11 35.06"
     id="polygon26"
     style="fill:#ffffff" />
  <path
     class="cls-2"
     d="M98.22,143.12a174.26,174.26,0,0,1-18.89,9.93,120.33,120.33,0,0,0,13.12,30.42l5.77-.85Z"
     id="path28"
     style="fill:#ffffff" />
  <path
     class="cls-2"
     d="M196,241.86c1.57,0,3.13,0,4.69-.1s3.39-.18,5.07-.31L191,228.08l-11.9,10.44v2.17c3.35.46,6.73.79,10.16,1C191.48,241.79,193.7,241.86,196,241.86Z"
     id="path30"
     style="fill:#ffffff" />
  <path
     class="cls-2"
     d="M206.77,31.29H180.63c3.11,3.22,8.49,8.75,13.87,14.2Z"
     id="path32"
     style="fill:#ffffff" />
  <path
     class="cls-2"
     d="M214.72,38l.82,131.42q9.5-.76,19.34-1.47V62.41C225.63,52.17,218.77,43.41,214.72,38Z"
     id="path34"
     style="fill:#ffffff" />
  <polygon
     class="cls-2"
     points="179.11 217.27 179.11 233.92 188.09 225.43 179.11 217.27"
     id="polygon36"
     style="fill:#ffffff" />
  <path
     class="cls-2"
     d="M207.29,236.36V213.79l-12.9,11.32C199.34,229.49,204.15,233.71,207.29,236.36Z"
     id="path38"
     style="fill:#ffffff" />
  <path
     class="cls-2"
     d="M99.77,142.16v40.23q9.62-1.39,20.06-2.78V127.45A164,164,0,0,1,99.77,142.16Z"
     id="path40"
     style="fill:#ffffff" />
  <path
     class="cls-2"
     d="M148.35,95.5l-.6.86v79.76q11.17-1.31,23.09-2.56l.79-127.7A179.08,179.08,0,0,1,148.35,95.5Z"
     id="path42"
     style="fill:#ffffff" />
  <path
     class="cls-2"
     d="M121.38,126.11V179.4c7.93-1.05,16.22-2.08,24.82-3.1V98.59A161.2,161.2,0,0,1,121.38,126.11Z"
     id="path44"
     style="fill:#ffffff" />
  <path
     class="cls-2"
     d="M179.11,211.47c3,2.69,7.51,6.73,12.21,10.91l16-15.09V189.37q-14,1.2-28.18,2.63Z"
     id="path46"
     style="fill:#ffffff" />
  <path
     class="cls-2"
     d="M105.3,201a121.26,121.26,0,0,0,46,32.38,117.61,117.61,0,0,0,11.62,3.95c2.48.7,5,1.32,7.54,1.87l.29-46.28Q138.35,196.27,105.3,201Z"
     id="path48"
     style="fill:#ffffff" />
  <path
     class="cls-2"
     d="M301.34,164.27,309,164a120.53,120.53,0,0,0,7.73-36.65c-5.3-2.7-10.43-5.59-15.35-8.6Z"
     id="path50"
     style="fill:#ffffff" />
  <path
     class="cls-2"
     d="M262.08,89.45l-.95-.85v77.63q10.26-.6,20.84-1.12V105.63C274.7,100.23,268,94.74,262.08,89.45Z"
     id="path52"
     style="fill:#ffffff" />
  <path
     class="cls-2"
     d="M283.52,106.77V165q8-.39,16.27-.71V117.77C294.09,114.23,288.65,110.53,283.52,106.77Z"
     id="path54"
     style="fill:#ffffff" />
  <path
     class="cls-2"
     d="M236.43,64.12V167.83q11.35-.81,23.15-1.51V87.21C250.82,79.27,243.05,71.37,236.43,64.12Z"
     id="path56"
     style="fill:#ffffff" />
  <path
     class="cls-2"
     d="M216,240.18c3.77-.63,7.49-1.42,11.13-2.39a120.06,120.06,0,0,0,11.62-3.73,121.34,121.34,0,0,0,60.63-50.45c-27.28,1.08-55.23,2.73-83.7,5.06Z"
     id="path58"
     style="fill:#ffffff" />
  <path
     class="cls-2"
     d="M.08,200.56v18.68C35.46,211.92,70.61,205.88,105.3,201q-2.88-3.27-5.53-6.73c-.52-.69-1-1.38-1.55-2.08q-3.06-4.2-5.77-8.67-8.11,1.22-15.58,2.41V154.14l2.46-1.09c-.28-1-.53-2-.78-3.06-21,9.53-46.82,16.3-78.55,17.85l.15,3.09c5.9-.29,11.58-.77,17.09-1.4v27.21C6,199.09.08,200.56.08,200.56Zm54.81-38.5a192.18,192.18,0,0,0,20.43-7.27v31.33q-11,1.77-20.43,3.43Zm-18.66,4.56c6-1.18,11.65-2.57,17.11-4.13v27.33Q44,191.47,36.23,193Zm-17.45,2.72q8.24-1,15.9-2.44v26.35c-6.07,1.16-11.37,2.23-15.9,3.17Z"
     id="path60"
     style="fill:#ffffff" />
  <path
     class="cls-2"
     d="M392.31,143.78h-.07c-27.53,0-53.11-8.3-75.43-19.87,0,1.15-.07,2.28-.12,3.42,1.1.56,2.21,1.11,3.32,1.65l.44,34.63L309,164a120.15,120.15,0,0,1-9.6,19.63c32.76-1.3,64.56-1.78,95.16-1.61V162.74q-7.89-.06-15.67,0V146.22c4.41.42,8.86.66,13.38.66h.08c.74,0,1.47,0,2.21,0v-3.1C393.78,143.75,393.05,143.78,392.31,143.78Zm-70.74-14a194.7,194.7,0,0,0,18.08,7.56v25.82c-5.95.12-11.82.27-17.65.44ZM341.2,163.1V137.85a171.86,171.86,0,0,0,16.61,4.89l.39,20.1Q349.62,162.93,341.2,163.1Zm36.11-.39q-8.87,0-17.56.11l-.39-19.74a151,151,0,0,0,17.95,3Z"
     id="path62"
     style="fill:#ffffff" />
  <path
     class="cls-2"
     d="M223,298.47l-.16-6.9H216.3L216,240.18q-2.82.48-5.68.82l-3,.32-1.58.13,1.58,1.43v3.62l-16.38,16.36-11.8-10.12V240.69l-2.1-.32c-.66-.11-1.33-.21-2-.33-1.55-.27-3.08-.57-4.6-.89l-.32,52.42h-4.89V298h-4.57v10.33H227.6v-10Zm-15.73-46.54V276.7c-3.23-2.66-8.26-6.92-13.42-11.31C199.35,259.74,204.56,254.45,207.29,251.93ZM187.77,266l-8.66,8.64V258.12Zm-8.66,14.76c3-3.19,7.25-7.6,11.59-12.09l16.59,15.12v7.77H179.11Z"
     id="path64"
     style="fill:#ffffff" />
  <path
     class="cls-2"
     d="M196,0A121,121,0,0,0,78.55,150c33.06-15,54.14-36.91,67.24-56.23A175,175,0,0,0,171.71,33l.09-14.15h2.1v-3.9h3.37v3.9h1.84V25.7h28.18V18.82h1.9v-3.9h3.36v3.9h2.06l.08,13.88a346.89,346.89,0,0,0,49.5,54.49c14,12.42,31.91,26,52.62,36.72,0-1,.06-2,.06-3A120.93,120.93,0,0,0,196,0Z"
     id="path66"
     style="fill:#ffffff" />
  <path
     class="cls-2"
     d="M446.56,44.16h5.06V81.83h-5.06Z"
     id="path68"
     style="fill:#ffffff" />
  <path
     class="cls-2"
     d="M465.37,44.16h5.06V81.83h-5.06Z"
     id="path70"
     style="fill:#ffffff" />
  <path
     class="cls-2"
     d="M484.18,44.16h5.06V81.83h-5.06Z"
     id="path72"
     style="fill:#ffffff" />
  <path
     class="cls-2"
     d="M530.56,75a16.15,16.15,0,0,1-1.75,7.81A12,12,0,0,1,524,87.75a15.24,15.24,0,0,1-6.93,1.85V84.7a8.91,8.91,0,0,0,6-2.58q2.37-2.37,2.37-7.27V44.16h5.06Z"
     id="path74"
     style="fill:#ffffff" />
  <path
     class="cls-2"
     d="M542,63a18.52,18.52,0,0,1,1.48-7.37,20,20,0,0,1,10.27-10.37,18.79,18.79,0,0,1,14.9,0,20.13,20.13,0,0,1,6.15,4.22A19.7,19.7,0,0,1,579,55.65,18.21,18.21,0,0,1,580.48,63,18.67,18.67,0,0,1,579,70.53a19.12,19.12,0,0,1-4.19,6.12,20,20,0,0,1-6.15,4.11,18.63,18.63,0,0,1-7.42,1.49,19.11,19.11,0,0,1-7.48-1.46,19.47,19.47,0,0,1-6.12-4.06,18.6,18.6,0,0,1-4.15-6.1A19.23,19.23,0,0,1,542,63Zm5.21,0a14.05,14.05,0,0,0,1.09,5.55,14.66,14.66,0,0,0,3,4.56,13.85,13.85,0,0,0,4.48,3.1,13.72,13.72,0,0,0,15.42-3.1,15.22,15.22,0,0,0,3-4.56,14.16,14.16,0,0,0,1.09-5.6,14.44,14.44,0,0,0-1.09-5.6,14.68,14.68,0,0,0-3-4.61,14.22,14.22,0,0,0-4.48-3.1,13.45,13.45,0,0,0-5.47-1.12,13.26,13.26,0,0,0-5.53,1.15,14.45,14.45,0,0,0-4.48,3.12,14,14,0,0,0-3,4.61A15.18,15.18,0,0,0,547.18,63.07Z"
     id="path76"
     style="fill:#ffffff" />
  <path
     class="cls-2"
     d="M601.89,44.16a17.52,17.52,0,0,1,5.29.76,12.19,12.19,0,0,1,4.22,2.24,10.28,10.28,0,0,1,2.81,3.64,11.7,11.7,0,0,1,1,5,15.08,15.08,0,0,1-.65,4.38,10.79,10.79,0,0,1-2.16,3.88,11,11,0,0,1-3.94,2.81,14.61,14.61,0,0,1-6,1.07h-5.58V81.83h-5.05V44.16Zm.52,19a9,9,0,0,0,3.73-.68,6,6,0,0,0,2.32-1.75,7.08,7.08,0,0,0,1.2-2.31A8.57,8.57,0,0,0,610,56a7.83,7.83,0,0,0-.39-2.37,6.86,6.86,0,0,0-1.25-2.27,6.79,6.79,0,0,0-2.24-1.72,7.6,7.6,0,0,0-3.36-.67h-5.84V63.13Zm6.2,2.86,9.85,15.84h-5.84l-10-15.68Z"
     id="path78"
     style="fill:#ffffff" />
  <path
     class="cls-2"
     d="M661.76,83,632.63,53.49l1.46.36.11,28h-5.06V43h.26l28.82,29.65L657,72.4l-.11-28.24h5V83Z"
     id="path80"
     style="fill:#ffffff" />
  <path
     class="cls-2"
     d="M671.92,81.83,688.39,42.6h.31l16.41,39.23h-5.78L687,50.52l3.6-2.35L676.87,81.83Zm9.64-14.27h14l1.67,4.37H680.1Z"
     id="path82"
     style="fill:#ffffff" />
  <path
     class="cls-2"
     d="M715.12,81.83V44.16h10.26a23.6,23.6,0,0,1,9.51,1.72,17.32,17.32,0,0,1,6.33,4.53,18.39,18.39,0,0,1,3.52,6.23,21.57,21.57,0,0,1,1.12,6.8,18.73,18.73,0,0,1-1.49,7.66,17,17,0,0,1-4.08,5.78,18.37,18.37,0,0,1-6,3.68,19.87,19.87,0,0,1-7.11,1.27Zm5-4.84h6.05a17.12,17.12,0,0,0,5.75-.94,13.52,13.52,0,0,0,4.59-2.71A12.26,12.26,0,0,0,739.61,69a14.86,14.86,0,0,0,1.09-5.86A15.34,15.34,0,0,0,739.56,57a12.62,12.62,0,0,0-3.13-4.4A13.71,13.71,0,0,0,732,49.92a15.21,15.21,0,0,0-5.27-.91h-6.51Z"
     id="path84"
     style="fill:#ffffff" />
  <path
     class="cls-2"
     d="M751.49,81.83,768,42.6h.32l16.41,39.23H778.9L766.6,50.52l3.59-2.35L756.44,81.83Zm9.64-14.27h14l1.67,4.37H759.67Z"
     id="path86"
     style="fill:#ffffff" />
  <path
     class="cls-2"
     d="M814.17,50.88A27.52,27.52,0,0,0,810,49.16a14.93,14.93,0,0,0-4.48-.73,7.61,7.61,0,0,0-4.82,1.41,4.52,4.52,0,0,0-1.8,3.75,4.22,4.22,0,0,0,1.15,3,9.87,9.87,0,0,0,3,2.11c1.25.59,2.55,1.14,3.91,1.67,1.18.45,2.34,1,3.49,1.51a13,13,0,0,1,3.1,2.08A9,9,0,0,1,815.71,67a11.21,11.21,0,0,1,.81,4.54,10.16,10.16,0,0,1-5.74,9.27,14.26,14.26,0,0,1-6.56,1.41,19.48,19.48,0,0,1-4.77-.57,23.22,23.22,0,0,1-4.19-1.49,28.72,28.72,0,0,1-3.44-1.9l2.24-4A22.27,22.27,0,0,0,796.92,76a19,19,0,0,0,3.39,1.31,12.75,12.75,0,0,0,3.44.49,10.13,10.13,0,0,0,3.52-.65,6.81,6.81,0,0,0,2.89-2,5.39,5.39,0,0,0,1.15-3.59,5,5,0,0,0-1-3.21,8.79,8.79,0,0,0-2.68-2.19,33,33,0,0,0-3.55-1.64c-1.18-.45-2.38-.94-3.59-1.48a17.29,17.29,0,0,1-3.39-2,9,9,0,0,1-2.5-2.89,8.57,8.57,0,0,1-.94-4.17,9.4,9.4,0,0,1,1.43-5.19A10.05,10.05,0,0,1,799,45.33,13.44,13.44,0,0,1,804.74,44a21.33,21.33,0,0,1,6.44.89A22.71,22.71,0,0,1,816.1,47Z"
     id="path88"
     style="fill:#ffffff" />
  <path
     class="cls-2"
     d="M446.56,144.91V107.24h10.27a23.66,23.66,0,0,1,9.51,1.72,17.1,17.1,0,0,1,6.33,4.53,18.27,18.27,0,0,1,3.51,6.23,21.57,21.57,0,0,1,1.12,6.8,18.93,18.93,0,0,1-1.48,7.66,17.1,17.1,0,0,1-4.09,5.78,18.34,18.34,0,0,1-6,3.67,19.87,19.87,0,0,1-7.11,1.28Zm5.06-4.85h6a17.22,17.22,0,0,0,5.76-.93,13.57,13.57,0,0,0,4.58-2.71,12.17,12.17,0,0,0,3.05-4.36,14.83,14.83,0,0,0,1.1-5.86,15.29,15.29,0,0,0-1.15-6.12,12.5,12.5,0,0,0-3.13-4.4,13.73,13.73,0,0,0-4.48-2.69,15.43,15.43,0,0,0-5.26-.91h-6.51Z"
     id="path90"
     style="fill:#ffffff" />
  <path
     class="cls-2"
     d="M481.11,126.1a18.48,18.48,0,0,1,1.48-7.37,20,20,0,0,1,10.27-10.37,18.79,18.79,0,0,1,14.9,0,20.13,20.13,0,0,1,6.15,4.22,19.87,19.87,0,0,1,4.19,6.15,18.17,18.17,0,0,1,1.51,7.37,18.61,18.61,0,0,1-1.51,7.5,19.06,19.06,0,0,1-4.19,6.12,19.83,19.83,0,0,1-6.15,4.12,18.68,18.68,0,0,1-7.43,1.49,19.1,19.1,0,0,1-7.47-1.46,19.5,19.5,0,0,1-6.12-4.07,18.56,18.56,0,0,1-4.15-6.09A19.27,19.27,0,0,1,481.11,126.1Zm5.21.05a14.05,14.05,0,0,0,1.09,5.55,14.8,14.8,0,0,0,3,4.56,14.15,14.15,0,0,0,4.49,3.1,13.72,13.72,0,0,0,15.42-3.1,15.22,15.22,0,0,0,3-4.56,14.19,14.19,0,0,0,1.09-5.6,14.41,14.41,0,0,0-1.09-5.6,14.57,14.57,0,0,0-3-4.61,14.06,14.06,0,0,0-4.48-3.1,13.84,13.84,0,0,0-11,0,14.65,14.65,0,0,0-4.48,3.13,13.73,13.73,0,0,0-3,4.61A14.94,14.94,0,0,0,486.32,126.15Z"
     id="path92"
     style="fill:#ffffff" />
  <path
     class="cls-2"
     d="M539.88,107.24h5.06v37.67h-5.06Z"
     id="path94"
     style="fill:#ffffff" />
  <path
     class="cls-2"
     d="M586.05,146.11l-29.13-29.55,1.46.37.11,28h-5.06V106.09h.26l28.82,29.65-1.2-.26-.11-28.24h5v38.87Z"
     id="path96"
     style="fill:#ffffff" />
  <path
     class="cls-2"
     d="M591.94,107.24h25v4.84H606.84v32.83h-5.05V112.08h-9.85Z"
     id="path98"
     style="fill:#ffffff" />
  <path
     class="cls-2"
     d="M622.63,107.24h24.49v4.84H627.68v11.47H645v4.84H627.68v11.67h20.17v4.85H622.63Z"
     id="path100"
     style="fill:#ffffff" />
  <path
     class="cls-2"
     d="M664.26,107.24a17.85,17.85,0,0,1,5.29.75,12.46,12.46,0,0,1,4.22,2.24,10.31,10.31,0,0,1,2.81,3.65,11.67,11.67,0,0,1,1,5,15,15,0,0,1-.65,4.37,10.83,10.83,0,0,1-2.16,3.89,11,11,0,0,1-3.94,2.81,14.79,14.79,0,0,1-6,1.07h-5.57v13.86h-5.06V107.24Zm.52,19a9.05,9.05,0,0,0,3.73-.67,6.21,6.21,0,0,0,2.32-1.75,6.92,6.92,0,0,0,1.19-2.32,8.12,8.12,0,0,0,.37-2.34,7.73,7.73,0,0,0-.39-2.37,6.76,6.76,0,0,0-1.25-2.27,6.63,6.63,0,0,0-2.24-1.72,7.65,7.65,0,0,0-3.36-.68h-5.84V126.2Zm6.2,2.87,9.85,15.84H675l-10-15.69Z"
     id="path102"
     style="fill:#ffffff" />
  <path
     class="cls-2"
     d="M718.87,146.11l-29.13-29.55,1.46.37.1,28h-5V106.09h.26l28.81,29.65-1.2-.26-.1-28.24h5v38.87Z"
     id="path104"
     style="fill:#ffffff" />
  <path
     class="cls-2"
     d="M723.76,144.91l16.47-39.24h.31L757,144.91h-5.79l-12.3-31.32,3.6-2.34-13.76,33.66Zm9.64-14.28h14l1.67,4.38H731.94Z"
     id="path106"
     style="fill:#ffffff" />
  <path
     class="cls-2"
     d="M756,107.24h25v4.84H770.92v32.83h-5V112.08H756Z"
     id="path108"
     style="fill:#ffffff" />
  <path
     class="cls-2"
     d="M782.75,126.1a18.48,18.48,0,0,1,1.48-7.37,20,20,0,0,1,10.27-10.37,18.79,18.79,0,0,1,14.9,0,20.13,20.13,0,0,1,6.15,4.22,19.7,19.7,0,0,1,4.19,6.15,18.17,18.17,0,0,1,1.51,7.37,18.61,18.61,0,0,1-1.51,7.5,18.9,18.9,0,0,1-4.19,6.12,19.83,19.83,0,0,1-6.15,4.12,18.63,18.63,0,0,1-7.42,1.49,19.11,19.11,0,0,1-7.48-1.46,19.5,19.5,0,0,1-6.12-4.07,18.56,18.56,0,0,1-4.15-6.09A19.27,19.27,0,0,1,782.75,126.1Zm5.21.05a14.05,14.05,0,0,0,1.09,5.55,14.66,14.66,0,0,0,3,4.56,14,14,0,0,0,4.48,3.1,13.72,13.72,0,0,0,15.42-3.1,15.22,15.22,0,0,0,3-4.56,14.19,14.19,0,0,0,1.09-5.6,14.41,14.41,0,0,0-1.09-5.6,14.57,14.57,0,0,0-3-4.61,14.06,14.06,0,0,0-4.48-3.1,13.84,13.84,0,0,0-11,0,14.65,14.65,0,0,0-4.48,3.13,14,14,0,0,0-3,4.61A15.14,15.14,0,0,0,788,126.15Z"
     id="path110"
     style="fill:#ffffff" />
  <path
     class="cls-2"
     d="M446.56,208V169.11h.05l19.75,28-2.13-.42,19.69-27.62H484V208h-5V180.58l.32,2.55-14.23,20.11H465l-14.44-20.11.89-2.34V208Z"
     id="path112"
     style="fill:#ffffff" />
  <path
     class="cls-2"
     d="M490,170.31h24.49v4.85H495.07v11.46h17.35v4.85H495.07v11.67h20.17V208H490ZM510,161l-6.62,7h-3.08l4.33-7Z"
     id="path114"
     style="fill:#ffffff" />
  <path
     class="cls-2"
     d="M519.14,208V170.31h10.27a23.77,23.77,0,0,1,9.51,1.72,17.23,17.23,0,0,1,6.33,4.54,18.35,18.35,0,0,1,3.52,6.22,21.91,21.91,0,0,1,1.12,6.8,18.9,18.9,0,0,1-1.49,7.66,17,17,0,0,1-4.09,5.79,18.36,18.36,0,0,1-6,3.67,19.93,19.93,0,0,1-7.12,1.28Zm5.06-4.85h6a16.89,16.89,0,0,0,5.76-.94,13.55,13.55,0,0,0,4.59-2.71,12.11,12.11,0,0,0,3-4.35,14.86,14.86,0,0,0,1.1-5.86,15.09,15.09,0,0,0-1.15-6.12,12.42,12.42,0,0,0-3.12-4.41,13.75,13.75,0,0,0-4.49-2.68,15.15,15.15,0,0,0-5.26-.91H524.2Z"
     id="path116"
     style="fill:#ffffff" />
  <path
     class="cls-2"
     d="M553.53,170.31h5.06V208h-5.06Z"
     id="path118"
     style="fill:#ffffff" />
  <path
     class="cls-2"
     d="M592.25,205.17a22.31,22.31,0,0,1-2.55,1.41,19.17,19.17,0,0,1-3.78,1.3,20,20,0,0,1-4.72.52,20.26,20.26,0,0,1-7.89-1.56,17.55,17.55,0,0,1-6-4.12,18.5,18.5,0,0,1-3.78-6,19.91,19.91,0,0,1-1.32-7.26,21.4,21.4,0,0,1,1.38-7.79,18.71,18.71,0,0,1,3.88-6.21,17.85,17.85,0,0,1,5.91-4.09,18.9,18.9,0,0,1,7.48-1.45,19.47,19.47,0,0,1,6.15.91,21.76,21.76,0,0,1,4.74,2.16l-2,4.69a22.76,22.76,0,0,0-3.78-2,12.44,12.44,0,0,0-4.92-.94,12.66,12.66,0,0,0-5.22,1.1,13.49,13.49,0,0,0-4.32,3.07,14.83,14.83,0,0,0-4,10.27,16.51,16.51,0,0,0,1,5.7,13.3,13.3,0,0,0,2.76,4.56,12.68,12.68,0,0,0,4.35,3,14.47,14.47,0,0,0,5.74,1.1,13.77,13.77,0,0,0,5.1-.89,15.71,15.71,0,0,0,3.7-2Z"
     id="path120"
     style="fill:#ffffff" />
  <path
     class="cls-2"
     d="M593.55,189.18A18.54,18.54,0,0,1,595,181.8a19.72,19.72,0,0,1,4.14-6.15,19.94,19.94,0,0,1,6.12-4.22,18.9,18.9,0,0,1,14.9,0,20.31,20.31,0,0,1,6.15,4.22,19.9,19.9,0,0,1,4.2,6.15,18.38,18.38,0,0,1,1.51,7.38,18.82,18.82,0,0,1-1.51,7.5,19.09,19.09,0,0,1-4.2,6.12,19.83,19.83,0,0,1-6.15,4.12,18.62,18.62,0,0,1-7.42,1.48,18.94,18.94,0,0,1-7.48-1.46,19.3,19.3,0,0,1-6.12-4.06,18.73,18.73,0,0,1-4.14-6.1A19.19,19.19,0,0,1,593.55,189.18Zm5.21,0a14.06,14.06,0,0,0,1.1,5.55,14.46,14.46,0,0,0,3,4.56,14.11,14.11,0,0,0,4.48,3.1,13.72,13.72,0,0,0,15.42-3.1,15.22,15.22,0,0,0,3-4.56,14.2,14.2,0,0,0,1.1-5.6A14.62,14.62,0,0,0,622.73,179a14.11,14.11,0,0,0-4.48-3.1,13.58,13.58,0,0,0-5.47-1.12,13.3,13.3,0,0,0-5.53,1.15,14.45,14.45,0,0,0-4.48,3.12,14.09,14.09,0,0,0-3,4.62A15.14,15.14,0,0,0,598.76,189.23Z"
     id="path122"
     style="fill:#ffffff" />
  <path
     class="cls-2"
     d="M647.33,208V170.31h10.26A23.77,23.77,0,0,1,667.1,172a17.23,17.23,0,0,1,6.33,4.54,18.35,18.35,0,0,1,3.52,6.22,21.91,21.91,0,0,1,1.12,6.8,18.9,18.9,0,0,1-1.49,7.66,17,17,0,0,1-4.09,5.79,18.36,18.36,0,0,1-6,3.67,19.93,19.93,0,0,1-7.12,1.28Zm5-4.85h6a16.89,16.89,0,0,0,5.76-.94,13.45,13.45,0,0,0,4.59-2.71,12.26,12.26,0,0,0,3.05-4.35,16.58,16.58,0,0,0-.06-12,12.42,12.42,0,0,0-3.12-4.41,13.81,13.81,0,0,0-4.48-2.68,15.25,15.25,0,0,0-5.27-.91h-6.51Z"
     id="path124"
     style="fill:#ffffff" />
  <path
     class="cls-2"
     d="M681.71,170.31H706.2v4.85H686.77v11.46h17.35v4.85H686.77v11.67h20.16V208H681.71Z"
     id="path126"
     style="fill:#ffffff" />
  <path
     class="cls-2"
     d="M722.46,208V169.11h0l19.75,28-2.14-.42,19.7-27.62h.11V208h-5V180.58l.32,2.55L741,203.24h-.1l-14.44-20.11.89-2.34V208Z"
     id="path128"
     style="fill:#ffffff" />
  <path
     class="cls-2"
     d="M795.41,204.76a9.26,9.26,0,0,1-2.19,1.32,24.18,24.18,0,0,1-3.1,1.18,30.09,30.09,0,0,1-3.49.83,19.53,19.53,0,0,1-3.36.31,22.6,22.6,0,0,1-8.16-1.4,18.35,18.35,0,0,1-6.2-3.91,17.09,17.09,0,0,1-4-5.89,19.31,19.31,0,0,1-1.38-7.35,21.77,21.77,0,0,1,1.54-8.41,18,18,0,0,1,10.39-10.22,20.78,20.78,0,0,1,7.4-1.32,22.79,22.79,0,0,1,6.1.78,22,22,0,0,1,5,2l-1.72,4.64a13.11,13.11,0,0,0-2.58-1.15,25.19,25.19,0,0,0-3.15-.86,14.55,14.55,0,0,0-3-.34,17.06,17.06,0,0,0-6.05,1,13.11,13.11,0,0,0-4.64,2.91,12.93,12.93,0,0,0-3,4.59,16.39,16.39,0,0,0-1.05,6,14.7,14.7,0,0,0,1.05,5.63,12.61,12.61,0,0,0,3,4.4,13.45,13.45,0,0,0,4.62,2.86,16.52,16.52,0,0,0,5.91,1,18.56,18.56,0,0,0,3.8-.39,12,12,0,0,0,3.24-1.12v-7.5h-7.51v-4.85h12.56Z"
     id="path130"
     style="fill:#ffffff" />
  <path
     class="cls-2"
     d="M800.2,170.31h22.36v4.85h-17.3v12h15.16V192H805.26v16H800.2Z"
     id="path132"
     style="fill:#ffffff" />
  <path
     class="cls-2"
     d="M442.81,271.06l16.47-39.23h.31L476,271.06h-5.78l-12.3-31.31,3.6-2.35-13.76,33.66Zm9.64-14.28h14l1.66,4.38H451Z"
     id="path134"
     style="fill:#ffffff" />
  <path
     class="cls-2"
     d="M493.35,233.39a17.8,17.8,0,0,1,5.29.75,12.21,12.21,0,0,1,4.22,2.25,10.42,10.42,0,0,1,2.82,3.64,11.82,11.82,0,0,1,1,5,14.8,14.8,0,0,1-.65,4.38,10.5,10.5,0,0,1-2.16,3.88,11,11,0,0,1-3.94,2.81,14.61,14.61,0,0,1-6,1.07H488.4v13.86h-5V233.39Zm.52,19a9,9,0,0,0,3.73-.68,6.11,6.11,0,0,0,2.32-1.75,7,7,0,0,0,1.2-2.32,8.44,8.44,0,0,0,.36-2.34,7.83,7.83,0,0,0-.39-2.37,6.86,6.86,0,0,0-1.25-2.27,6.66,6.66,0,0,0-2.24-1.72,7.59,7.59,0,0,0-3.36-.68H488.4v14.13Zm6.21,2.86,9.84,15.84h-5.83l-10-15.68Z"
     id="path136"
     style="fill:#ffffff" />
  <path
     class="cls-2"
     d="M537.44,240.11a28.07,28.07,0,0,0-4.23-1.72,14.57,14.57,0,0,0-4.48-.73,7.61,7.61,0,0,0-4.82,1.41,4.52,4.52,0,0,0-1.79,3.75,4.25,4.25,0,0,0,1.14,3,10,10,0,0,0,3,2.11c1.26.59,2.56,1.14,3.91,1.66,1.18.46,2.35,1,3.49,1.51a13.29,13.29,0,0,1,3.1,2.09,9,9,0,0,1,2.19,3.07,11.21,11.21,0,0,1,.81,4.54,10.19,10.19,0,0,1-1.49,5.42,10.3,10.3,0,0,1-4.24,3.85,14.28,14.28,0,0,1-6.57,1.41,19.6,19.6,0,0,1-4.77-.57,23.5,23.5,0,0,1-4.19-1.49,29.52,29.52,0,0,1-3.44-1.9l2.24-4a22.42,22.42,0,0,0,2.87,1.69,18.43,18.43,0,0,0,3.39,1.3,12.33,12.33,0,0,0,3.43.5,10.09,10.09,0,0,0,3.52-.65,6.84,6.84,0,0,0,2.89-2,5.34,5.34,0,0,0,1.15-3.59,5,5,0,0,0-1-3.21,8.67,8.67,0,0,0-2.68-2.19,32,32,0,0,0-3.54-1.64c-1.18-.45-2.38-.94-3.6-1.48a17.59,17.59,0,0,1-3.39-2,9,9,0,0,1-2.5-2.89,8.68,8.68,0,0,1-.93-4.17,9.32,9.32,0,0,1,1.43-5.19,10,10,0,0,1,3.93-3.49,13.44,13.44,0,0,1,5.73-1.38,21.28,21.28,0,0,1,6.44.89,22.75,22.75,0,0,1,4.92,2.18Z"
     id="path138"
     style="fill:#ffffff" />
  <path
     class="cls-2"
     d="M565.26,233.39h5v32.83h19.13v4.84H565.26Z"
     id="path140"
     style="fill:#ffffff" />
  <path
     class="cls-2"
     d="M593.4,233.39l12.4,31.16-2.87-.58,11.78-30.58h5.89L604,272.78l-16.56-39.39Z"
     id="path142"
     style="fill:#ffffff" />
  <path
     class="cls-2"
     d="M625.65,233.39h25v4.84H640.55v32.83h-5V238.23h-9.85Z"
     id="path144"
     style="fill:#ffffff" />
</svg>
