<svg id="Layer_1" data-name="Layer 1" xmlns="http://www.w3.org/2000/svg" viewBox="0 0 565.43 393.38"><title>Landscape White</title><rect x="2.59" y="232.53" width="560.88" height="9.63" fill="#fff"/><polygon points="130.62 91.1 130.62 104.97 137.43 98.09 130.62 91.1" fill="#fff"/><polygon points="130.62 59.97 130.62 76.89 138.53 68.21 130.62 59.97" fill="#fff"/><polygon points="151.17 107.58 151.17 89.3 141.76 98.09 151.17 107.58" fill="#fff"/><path d="M130.62,108.5V126q10-1,20.55-1.91V112.19l-11.68-12Z" fill="#fff"/><polygon points="151.17 77.83 151.17 59.81 142.5 68.36 151.17 77.83" fill="#fff"/><polygon points="130.62 80.06 130.62 86.87 139.59 95.91 151.17 84.19 151.17 81.36 140.54 70.29 130.62 80.06" fill="#fff"/><path d="M151.17,42.42V25.87l-7.78,8.87C146.36,37.74,149.21,40.56,151.17,42.42Z" fill="#fff"/><polygon points="130.62 49.28 130.62 55.39 140.44 66.11 151.17 54.33 151.17 47 141.49 36.9 130.62 49.28" fill="#fff"/><polygon points="130.62 25.57 130.62 46.15 139.98 35.33 130.62 25.57" fill="#fff"/><path d="M150.79,22.82H131.73c2.27,2.34,6.19,6.38,10.11,10.35Z" fill="#fff"/><path d="M157.19,123.55q6.93-.57,14.1-1.08V45.52c-6.74-7.47-11.75-13.86-14.7-17.82Z" fill="#fff"/><polygon points="130.62 170.59 137.17 164.4 130.62 158.45 130.62 170.59" fill="#fff"/><path d="M151.17,172.37V155.91l-9.41,8.26C145.37,167.36,148.88,170.44,151.17,172.37Z" fill="#fff"/><path d="M72.76,134.11q7-1,14.63-2V94a118.68,118.68,0,0,1-14.63,10.73Z" fill="#fff"/><path d="M107.75,71.37v58.16q8.16-1,16.84-1.86l.58-93.13a130.93,130.93,0,0,1-17,36.2Z" fill="#fff"/><path d="M88.52,93.06v38.86c5.78-.76,11.83-1.52,18.1-2.26V73A117.68,117.68,0,0,1,88.52,93.06Z" fill="#fff"/><path d="M130.62,154.22c2.19,2,5.47,4.91,8.9,8l11.65-11V138.1Q141,139,130.62,140Z" fill="#fff"/><path d="M76.8,146.55a88.29,88.29,0,0,0,33.52,23.61,87,87,0,0,0,8.47,2.88c1.81.52,3.65,1,5.5,1.36l.21-33.75Q100.89,143.14,76.8,146.55Z" fill="#fff"/><path d="M219.76,119.8c1.84-.08,3.7-.14,5.56-.21A87.85,87.85,0,0,0,231,92.86c-3.86-2-7.6-4.08-11.19-6.27Z" fill="#fff"/><path d="M190.44,64.61v56.62q7.47-.45,15.19-.82V77c-5.3-3.94-10.16-7.94-14.5-11.8C190.89,65,190.67,64.82,190.44,64.61Z" fill="#fff"/><path d="M206.76,120.36q5.88-.28,11.87-.52V85.89c-4.16-2.59-8.12-5.28-11.87-8Z" fill="#fff"/><path d="M106.32,68.38a128,128,0,0,0,18.91-44.33l.06-10.33h1.62V10.88h2.16l0,2.84h1.58v5h20.55v-5h1.38V10.88H155v2.84h1.5l.06,10.13a252.93,252.93,0,0,0,36.1,39.73A192.58,192.58,0,0,0,231,90.37c0-.73.05-1.45.05-2.18A88.19,88.19,0,1,0,57.28,109.38,116.85,116.85,0,0,0,106.32,68.38Z" fill="#fff"/><path d="M172.42,46.76v75.63q8.28-.58,16.89-1.1V63.6C182.92,57.81,177.25,52.05,172.42,46.76Z" fill="#fff"/><path d="M157.51,175.16q4.13-.69,8.12-1.74a87.09,87.09,0,0,0,8.47-2.73,88.46,88.46,0,0,0,44.22-36.79c-19.9.79-40.29,2-61,3.69Z" fill="#fff"/><path d="M71.63,140.12c-1.26-1.72-2.44-3.51-3.58-5.32l3.58-.53V105.46a123.73,123.73,0,0,1-13.78,7.24,87.46,87.46,0,0,0,9,21.19q-5.61.84-10.78,1.66V112.41l1.79-.8c-.2-.74-.38-1.48-.57-2.23-15.31,7-34.14,11.89-57.28,13l.11,2.26c4.3-.21,8.44-.57,12.46-1v19.84C4.37,145.19.06,146.26.06,146.26v13.62q38.7-8,76.74-13.33c-1.41-1.59-2.75-3.23-4-4.91C72.38,141.14,72,140.63,71.63,140.12Zm-46.34.81c-4.43.85-8.29,1.63-11.59,2.31V123.5q6-.72,11.59-1.79Zm13.61-2.5q-6.81,1.2-12.48,2.29V121.51c4.35-.86,8.5-1.87,12.48-3Zm16-2.7q-8,1.29-14.9,2.5v-20a137.42,137.42,0,0,0,14.9-5.31Z" fill="#fff"/><path d="M151.17,176l-1.15.09,1.15,1v2.63L139.23,191.7l-8.61-7.38v-7.7q3.66.51,7.41.71c1.61.09,3.23.14,4.87.14,1.15,0,2.29,0,3.42-.07s2.47-.13,3.7-.23l-10.72-9.75L130.62,175v.49c-.51-.07-1-.16-1.53-.24l-1.45-.23c-1.12-.2-2.24-.42-3.35-.66l-.24,38.23h-3.56v4.71h-5.34v7.53H166v-7.29l-3.34.08-.11-5h-4.79l-.23-37.47c-1.37.23-2.75.43-4.14.59C152.64,175.84,151.91,175.92,151.17,176Zm-20.55,12.25,6.31,5.75-6.31,6.31Zm20.55,24.39H130.62v-7.87c2.22-2.32,5.29-5.54,8.45-8.82l12.1,11Zm0-10.84c-2.36-1.94-6-5-9.78-8.25,4-4.12,7.79-8,9.78-9.82Z" fill="#fff"/><path d="M551.91,124.13c3.72.4,7.57.72,11.55.91l.11-2.26c-59.51-2.9-89.94-31-105-54.09A125.22,125.22,0,0,1,440.9,25l-.07-11.26h-1.47V10.93H436.9v2.84h-1.4v5H415v-5h-1.39V10.93h-2.45v2.84h-1.5l0,6.05c-33.6,49.29-69.82,77.37-107.89,83.7a100.82,100.82,0,0,1-14,1.32v0c-.54,0-1.07,0-1.61,0h-.05c-20.08,0-38.73-6.06-55-14.49q0,1.25-.09,2.49c.8.41,1.61.81,2.43,1.21l.32,25.25c-2.81.08-5.61.17-8.38.27a88.62,88.62,0,0,1-7,14.31c23.89-1,47.07-1.29,69.39-1.17v.05q7.05,0,14,.14c39,.58,75,2.55,107.16,5.16l-.46,74.6h-2.53l-.21,5.61-3.9.13.66,6.49h50.82v-7.53h-5.33v-4.7h-5.83l-.44-71.6C517,148.76,563.51,159,563.51,159V146.31q-5.82-1.16-11.6-2.24ZM247.7,119q-6.51.14-12.87.32l-.32-24.67a142.93,142.93,0,0,0,13.19,5.52Zm1.13,0V100.53a124.23,124.23,0,0,0,12.11,3.56l.29,14.66Q255,118.82,248.83,119Zm26.33-.29q-6.46,0-12.8.08l-.29-14.39a112.75,112.75,0,0,0,13.09,2.19Zm1.13,0v-12c3.21.3,6.46.47,9.75.48h.4v0l.14,11.55Zm24,.22q-6.35-.11-12.6-.14V107.1a102.35,102.35,0,0,0,12.6-1.1Zm13.73.26q-6.23-.15-12.36-.24V105.81A105.75,105.75,0,0,0,314,103Zm15.86.47q-7.42-.25-14.73-.44V102.7a118.82,118.82,0,0,0,14.73-5.53Zm15.85.63q-7.41-.33-14.72-.59v-23a135.66,135.66,0,0,0,14.72-8Zm16.45.83q-7.71-.44-15.32-.78V87.92A163.7,163.7,0,0,0,362.2,76.76Zm15.71,1q-7.34-.48-14.58-.9V75.84q7.37-6.11,14.58-13.41Zm16.5,1.19q-7.74-.6-15.37-1.11V61.28q7.75-8,15.37-17.27Zm14.52,1.2q-6.74-.6-13.39-1.11V42.6q7.08-8.79,14-18.76ZM434.39,22.86c-2.27,2.35-6.19,6.38-10.11,10.36l-8.95-10.36ZM415,25.91l7.78,8.87c-3,3-5.82,5.82-7.78,7.68Zm0,33.94,8.67,8.55L415,77.88Zm0,29.49,9.41,8.79L415,107.62ZM415,156l9.4,8.25c-3.6,3.2-7.11,6.27-9.4,8.2Zm0,27.81c2,1.84,5.78,5.69,9.78,9.82-3.76,3.2-7.42,6.3-9.78,8.24Zm20.55,28.91H415V207l12.1-11c3.16,3.28,6.23,6.5,8.45,8.82Zm0-12.34L429.19,194l6.31-5.75Zm0-16-8.61,7.38L415,179.81v-2.64l11.87-10.79L435.5,174Zm0-13.73L429,164.44l6.55-5.95Zm0-16.36-8.9,7.95-11.65-11V138.58q10.57.9,20.55,1.88Zm0-27.3q-10.35-1.09-20.55-2V112.23l11.67-12,8.88,8.29Zm0-22-6.81-6.88,6.81-7Zm0-18.09-9,9L415,84.23V81.4l10.63-11.07,9.92,9.78Zm0-10-7.92-8.69L435.5,60Zm0-21.51-9.82,10.73L415,54.37V47l9.68-10.1L435.5,49.32Zm0-9.23-9.36-10.83,9.36-9.76Zm21.22,83.17c-5.08-.61-10.15-1.2-15.18-1.75L441,35a127.36,127.36,0,0,0,15.67,34.82l.09.15ZM476,131.82q-9.1-1.23-18.11-2.31V71.68A113.92,113.92,0,0,0,476,92.43ZM491.72,134q-7.35-1.06-14.64-2V93.42a115.44,115.44,0,0,0,14.64,10.87Zm16.7,2.53q-7.83-1.23-15.58-2.36V105a122.83,122.83,0,0,0,15.58,8Zm16,2.61q-7.49-1.26-14.9-2.43v-23.2a136.69,136.69,0,0,0,14.9,5.26Zm13.6,2.37q-6.25-1.12-12.47-2.18V119.1c4,1.11,8.12,2.1,12.47,2.94Zm12.73,2.33q-5.82-1.09-11.6-2.13V122.25q5.6,1,11.6,1.74Z" fill="#fff"/><rect x="4.09" y="267.09" width="3.69" height="27.47" fill="#fff" stroke="#fff" stroke-miterlimit="10" stroke-width="0.25"/><rect x="15.87" y="267.09" width="3.69" height="27.47" fill="#fff" stroke="#fff" stroke-miterlimit="10" stroke-width="0.25"/><rect x="27.65" y="267.09" width="3.69" height="27.47" fill="#fff" stroke="#fff" stroke-miterlimit="10" stroke-width="0.25"/><path d="M56.32,295.28a11.82,11.82,0,0,0,1.28-5.7V267.09H53.91v22.38q0,3.57-1.73,5.3a6.51,6.51,0,0,1-4.39,1.88v3.57a11,11,0,0,0,5.06-1.35A8.83,8.83,0,0,0,56.32,295.28Z" fill="#fff" stroke="#fff" stroke-miterlimit="10" stroke-width="0.25"/><path d="M68.08,290.84a14.34,14.34,0,0,0,4.47,3A13.87,13.87,0,0,0,78,294.87a13.67,13.67,0,0,0,5.42-1.09,14.45,14.45,0,0,0,4.48-3A14,14,0,0,0,91,286.32a13.75,13.75,0,0,0,1.1-5.48,13.33,13.33,0,0,0-1.1-5.37A14.49,14.49,0,0,0,87.9,271a14.86,14.86,0,0,0-4.48-3.08,13.75,13.75,0,0,0-10.87,0A14.7,14.7,0,0,0,68.08,271a14.38,14.38,0,0,0-3,4.49A13.49,13.49,0,0,0,64,280.84a14,14,0,0,0,1.08,5.55A13.65,13.65,0,0,0,68.08,290.84Zm.46-14a10.22,10.22,0,0,1,2.17-3.37A10.53,10.53,0,0,1,74,271.15a10.22,10.22,0,0,1,8,0,10.33,10.33,0,0,1,3.27,2.27,10.65,10.65,0,0,1,3,7.44,10.26,10.26,0,0,1-.8,4.09,11.06,11.06,0,0,1-2.16,3.32,10.1,10.1,0,0,1-11.25,2.26,10.14,10.14,0,0,1-3.27-2.26,10.63,10.63,0,0,1-2.2-3.32,10.31,10.31,0,0,1-.8-4.05A10.92,10.92,0,0,1,68.54,276.8Z" fill="#fff" stroke="#fff" stroke-miterlimit="10" stroke-width="0.25"/><path d="M107.1,284.42l6.47,10.14h4.26l-6.89-11.08a7.85,7.85,0,0,0,2.48-1.86,7.68,7.68,0,0,0,1.57-2.83,10.77,10.77,0,0,0,.48-3.19,8.62,8.62,0,0,0-.74-3.67,7.69,7.69,0,0,0-2-2.66,9.08,9.08,0,0,0-3.08-1.63,12.86,12.86,0,0,0-3.86-.55H98.45v27.47h3.68V284.45h4.07C106.51,284.45,106.8,284.44,107.1,284.42Zm-5-3.5v-10.3h4.26a5.51,5.51,0,0,1,2.45.5,4.7,4.7,0,0,1,1.63,1.25,5,5,0,0,1,.91,1.65,5.7,5.7,0,0,1,.29,1.73,6.06,6.06,0,0,1-.27,1.71,5,5,0,0,1-.87,1.69,4.48,4.48,0,0,1-1.69,1.28,6.72,6.72,0,0,1-2.72.49Z" fill="#fff" stroke="#fff" stroke-miterlimit="10" stroke-width="0.25"/><polygon points="127.29 274.97 147.47 295.44 147.58 295.44 147.58 267.09 143.93 267.09 144 286.97 123.87 266.25 123.68 266.25 123.68 294.56 127.36 294.56 127.29 274.97" fill="#fff" stroke="#fff" stroke-miterlimit="10" stroke-width="0.25"/><path d="M159.5,287.34h10.59l2.83,7.22h4.22l-12-28.61h-.23l-12,28.61h3.61Zm1.3-3.19,4.1-10,3.94,10Z" fill="#fff" stroke="#fff" stroke-miterlimit="10" stroke-width="0.25"/><path d="M201.54,271.65a12.64,12.64,0,0,0-4.62-3.31,17.34,17.34,0,0,0-6.93-1.25H182.5v27.47h8.82a14.46,14.46,0,0,0,5.18-.93,13.16,13.16,0,0,0,4.35-2.68,12.32,12.32,0,0,0,3-4.22,13.75,13.75,0,0,0,1.08-5.58,15.67,15.67,0,0,0-.82-5A13.39,13.39,0,0,0,201.54,271.65Zm-1.18,13.54a8.85,8.85,0,0,1-2.22,3.18,9.76,9.76,0,0,1-3.35,2,12.29,12.29,0,0,1-4.2.69h-4.4V270.62h4.75a10.91,10.91,0,0,1,3.83.67,9.88,9.88,0,0,1,3.27,1.95,9.24,9.24,0,0,1,2.28,3.21,11.07,11.07,0,0,1,.84,4.47A10.84,10.84,0,0,1,200.36,285.19Z" fill="#fff" stroke="#fff" stroke-miterlimit="10" stroke-width="0.25"/><path d="M219.09,266l-12,28.61h3.61l3-7.22h10.59l2.83,7.22h4.22l-12-28.61ZM215,284.15l4.1-10,3.94,10Z" fill="#fff" stroke="#fff" stroke-miterlimit="10" stroke-width="0.25"/><path d="M245.83,291.16a7.26,7.26,0,0,1-2.57.48,9,9,0,0,1-2.51-.37,13.41,13.41,0,0,1-2.47-.95,16.24,16.24,0,0,1-2.09-1.23L234.56,292a20.8,20.8,0,0,0,2.51,1.38,16.23,16.23,0,0,0,3.06,1.09,14,14,0,0,0,3.47.42,10.48,10.48,0,0,0,4.79-1,7.39,7.39,0,0,0,4.18-6.76,8.07,8.07,0,0,0-.59-3.31,6.51,6.51,0,0,0-1.59-2.24,9.63,9.63,0,0,0-2.26-1.52c-.84-.41-1.69-.78-2.55-1.1s-1.94-.79-2.85-1.22a7,7,0,0,1-2.2-1.54,3.05,3.05,0,0,1-.84-2.18,3.31,3.31,0,0,1,1.31-2.74,5.6,5.6,0,0,1,3.52-1,10.83,10.83,0,0,1,3.26.53,20.62,20.62,0,0,1,3.08,1.26l1.41-2.81a16.23,16.23,0,0,0-3.59-1.6,15.58,15.58,0,0,0-4.7-.64,9.79,9.79,0,0,0-4.18,1,7.23,7.23,0,0,0-2.86,2.55,6.79,6.79,0,0,0-1.05,3.78,6.35,6.35,0,0,0,.68,3,6.52,6.52,0,0,0,1.83,2.11,12.37,12.37,0,0,0,2.47,1.44c.88.4,1.76.76,2.62,1.08a23.54,23.54,0,0,1,2.58,1.2,6.44,6.44,0,0,1,2,1.6,3.6,3.6,0,0,1,.74,2.34,4,4,0,0,1-.83,2.62A5,5,0,0,1,245.83,291.16Z" fill="#fff" stroke="#fff" stroke-miterlimit="10" stroke-width="0.25"/><path d="M285.16,293.63a13.37,13.37,0,0,0,4.35-2.68,12.43,12.43,0,0,0,3-4.22,13.75,13.75,0,0,0,1.08-5.58,15.94,15.94,0,0,0-.81-5,13.42,13.42,0,0,0-2.57-4.54,12.47,12.47,0,0,0-4.62-3.31,17.34,17.34,0,0,0-6.93-1.25h-7.49v27.47H280A14.55,14.55,0,0,0,285.16,293.63ZM274.84,291V270.62h4.75a11,11,0,0,1,3.84.67,10.08,10.08,0,0,1,3.27,1.95,9.21,9.21,0,0,1,2.27,3.21,11.07,11.07,0,0,1,.84,4.47,10.66,10.66,0,0,1-.8,4.27,8.85,8.85,0,0,1-2.22,3.18,9.81,9.81,0,0,1-3.34,2,12.34,12.34,0,0,1-4.2.69Z" fill="#fff" stroke="#fff" stroke-miterlimit="10" stroke-width="0.25"/><path d="M317.68,293.78a14.49,14.49,0,0,0,4.49-3,14.19,14.19,0,0,0,3.06-4.46,13.75,13.75,0,0,0,1.1-5.48,13.33,13.33,0,0,0-1.1-5.37,14.67,14.67,0,0,0-3.06-4.49,14.91,14.91,0,0,0-4.49-3.08,13.3,13.3,0,0,0-5.41-1.12,13.47,13.47,0,0,0-5.46,1.12,14.65,14.65,0,0,0-4.46,3.08,14.38,14.38,0,0,0-3,4.49,13.49,13.49,0,0,0-1.08,5.37,14,14,0,0,0,1.08,5.55,13.65,13.65,0,0,0,3,4.45,14.3,14.3,0,0,0,4.46,3,14,14,0,0,0,5.46,1.07A13.62,13.62,0,0,0,317.68,293.78Zm-12.63-5.53a10.83,10.83,0,0,1-2.21-3.32,10.3,10.3,0,0,1-.79-4.05,10.92,10.92,0,0,1,.76-4.08,10.19,10.19,0,0,1,2.16-3.37,10.69,10.69,0,0,1,3.27-2.28,10.22,10.22,0,0,1,8,0,10.33,10.33,0,0,1,3.27,2.27,10.65,10.65,0,0,1,3,7.44,10.43,10.43,0,0,1-.8,4.09,10.9,10.9,0,0,1-2.17,3.32,9.57,9.57,0,0,1-3.23,2.26,10.19,10.19,0,0,1-8,0A9.93,9.93,0,0,1,305.05,288.25Z" fill="#fff" stroke="#fff" stroke-miterlimit="10" stroke-width="0.25"/><rect x="344.91" y="267.09" width="3.69" height="27.47" fill="#fff" stroke="#fff" stroke-miterlimit="10" stroke-width="0.25"/><polygon points="360.3 274.97 380.48 295.44 380.59 295.44 380.59 267.09 376.94 267.09 377.02 286.97 356.88 266.25 356.69 266.25 356.69 294.56 360.38 294.56 360.3 274.97" fill="#fff" stroke="#fff" stroke-miterlimit="10" stroke-width="0.25"/><polygon points="386.67 270.62 393.85 270.62 393.85 294.56 397.54 294.56 397.54 270.62 404.91 270.62 404.91 267.09 386.67 267.09 386.67 270.62" fill="#fff" stroke="#fff" stroke-miterlimit="10" stroke-width="0.25"/><polygon points="429.35 291.03 414.64 291.03 414.64 282.51 427.29 282.51 427.29 278.98 414.64 278.98 414.64 270.62 428.81 270.62 428.81 267.09 410.95 267.09 410.95 294.56 429.35 294.56 429.35 291.03" fill="#fff" stroke="#fff" stroke-miterlimit="10" stroke-width="0.25"/><path d="M439.6,284.45h4.07q.46,0,.9,0L451,294.56h4.26l-6.89-11.08a7.64,7.64,0,0,0,4.06-4.69,11.1,11.1,0,0,0,.47-3.19,8.47,8.47,0,0,0-.74-3.67,7.58,7.58,0,0,0-2.05-2.66,9,9,0,0,0-3.08-1.63,12.82,12.82,0,0,0-3.86-.55h-7.29v27.47h3.68Zm0-13.83h4.26a5.51,5.51,0,0,1,2.45.5,4.74,4.74,0,0,1,1.64,1.25,5.16,5.16,0,0,1,.91,1.65,5.68,5.68,0,0,1,.28,1.73,6.41,6.41,0,0,1-.26,1.71,5,5,0,0,1-.88,1.69,4.4,4.4,0,0,1-1.69,1.28,6.72,6.72,0,0,1-2.72.49h-4Z" fill="#fff" stroke="#fff" stroke-miterlimit="10" stroke-width="0.25"/><polygon points="481.48 286.97 461.34 266.25 461.15 266.25 461.15 294.56 464.84 294.56 464.76 274.97 484.94 295.44 485.05 295.44 485.05 267.09 481.4 267.09 481.48 286.97" fill="#fff" stroke="#fff" stroke-miterlimit="10" stroke-width="0.25"/><path d="M507.56,287.34l2.84,7.22h4.22l-12-28.61h-.23l-12,28.61H494l3-7.22Zm-9.28-3.19,4.09-10,3.94,10Z" fill="#fff" stroke="#fff" stroke-miterlimit="10" stroke-width="0.25"/><polygon points="523.01 294.56 526.7 294.56 526.7 270.62 534.07 270.62 534.07 267.09 515.83 267.09 515.83 270.62 523.01 270.62 523.01 294.56" fill="#fff" stroke="#fff" stroke-miterlimit="10" stroke-width="0.25"/><path d="M564.21,275.47a14.67,14.67,0,0,0-3.06-4.49,14.91,14.91,0,0,0-4.49-3.08,13.72,13.72,0,0,0-10.86,0,14.58,14.58,0,0,0-4.47,3.08,14.38,14.38,0,0,0-3,4.49,13.49,13.49,0,0,0-1.08,5.37,14,14,0,0,0,1.08,5.55,13.65,13.65,0,0,0,3,4.45,14.23,14.23,0,0,0,4.47,3,13.87,13.87,0,0,0,5.45,1.07,13.62,13.62,0,0,0,5.41-1.09,14.49,14.49,0,0,0,4.49-3,14.19,14.19,0,0,0,3.06-4.46,13.75,13.75,0,0,0,1.1-5.48A13.33,13.33,0,0,0,564.21,275.47Zm-3.5,9.46a10.9,10.9,0,0,1-2.17,3.32,9.9,9.9,0,0,1-7.22,3.08,9.8,9.8,0,0,1-4-.82,9.93,9.93,0,0,1-3.27-2.26,10.83,10.83,0,0,1-2.21-3.32,10.3,10.3,0,0,1-.79-4.05,10.92,10.92,0,0,1,.76-4.08,10,10,0,0,1,2.16-3.37,10.69,10.69,0,0,1,3.27-2.28,10.22,10.22,0,0,1,8,0,10.33,10.33,0,0,1,3.27,2.27,10.65,10.65,0,0,1,3,7.44A10.43,10.43,0,0,1,560.71,284.93Z" fill="#fff" stroke="#fff" stroke-miterlimit="10" stroke-width="0.25"/><polygon points="7.66 323.34 17.54 337.1 17.62 337.1 27.77 322.76 27.77 340.56 31.41 340.56 31.41 312.21 31.34 312.21 17.65 331.41 4.13 312.21 4.09 312.21 4.09 340.56 7.66 340.56 7.66 323.34" fill="#fff" stroke="#fff" stroke-miterlimit="10" stroke-width="0.25"/><polygon points="58.2 337.03 43.5 337.03 43.5 328.51 56.15 328.51 56.15 324.98 43.5 324.98 43.5 316.62 57.67 316.62 57.67 313.09 39.81 313.09 39.81 340.56 58.2 340.56 58.2 337.03" fill="#fff" stroke="#fff" stroke-miterlimit="10" stroke-width="0.25"/><polygon points="54.4 306.32 50.49 306.32 47.34 311.42 49.58 311.42 54.4 306.32" fill="#fff" stroke="#fff" stroke-miterlimit="10" stroke-width="0.25"/><path d="M86.42,332.73a13.75,13.75,0,0,0,1.08-5.58,15.67,15.67,0,0,0-.82-5,13.39,13.39,0,0,0-2.56-4.54,12.55,12.55,0,0,0-4.62-3.31,17.34,17.34,0,0,0-6.93-1.25H65.08v27.47H73.9a14.46,14.46,0,0,0,5.18-.93A13.31,13.31,0,0,0,83.44,337,12.43,12.43,0,0,0,86.42,332.73Zm-5.7,1.64a9.81,9.81,0,0,1-3.34,2,12.38,12.38,0,0,1-4.2.69H68.77V316.62h4.75a11,11,0,0,1,3.84.67,9.93,9.93,0,0,1,3.26,1.95,9.11,9.11,0,0,1,2.28,3.21,11.07,11.07,0,0,1,.84,4.47,10.84,10.84,0,0,1-.8,4.27A8.85,8.85,0,0,1,80.72,334.37Z" fill="#fff" stroke="#fff" stroke-miterlimit="10" stroke-width="0.25"/><rect x="94.19" y="313.09" width="3.69" height="27.47" fill="#fff" stroke="#fff" stroke-miterlimit="10" stroke-width="0.25"/><path d="M108.4,316.83a13.74,13.74,0,0,0-2.83,4.52,15.66,15.66,0,0,0-1,5.68,14.55,14.55,0,0,0,1,5.3,13.5,13.5,0,0,0,2.76,4.39,12.88,12.88,0,0,0,4.35,3,15.09,15.09,0,0,0,5.76,1.14,14.23,14.23,0,0,0,3.43-.39,13.7,13.7,0,0,0,2.76-.94,16.56,16.56,0,0,0,1.86-1l-1.56-3.27a12.21,12.21,0,0,1-2.69,1.45,10.13,10.13,0,0,1-3.73.64,10.39,10.39,0,0,1-4.18-.8,9.16,9.16,0,0,1-3.17-2.2,9.69,9.69,0,0,1-2-3.33,11.91,11.91,0,0,1-.7-4.16,10.83,10.83,0,0,1,.78-4.12,10.68,10.68,0,0,1,2.15-3.36,9.81,9.81,0,0,1,3.15-2.24,9.09,9.09,0,0,1,3.8-.8,9.19,9.19,0,0,1,3.59.68,17.57,17.57,0,0,1,2.76,1.44l1.48-3.41a15.45,15.45,0,0,0-3.46-1.58,14.33,14.33,0,0,0-4.48-.67,13.74,13.74,0,0,0-5.46,1.07A12.86,12.86,0,0,0,108.4,316.83Z" fill="#fff" stroke="#fff" stroke-miterlimit="10" stroke-width="0.25"/><path d="M158.41,332.32a13.75,13.75,0,0,0,1.1-5.48,13.33,13.33,0,0,0-1.1-5.37,14.67,14.67,0,0,0-3.06-4.49,14.86,14.86,0,0,0-4.48-3.08,13.75,13.75,0,0,0-10.87,0,14.58,14.58,0,0,0-4.47,3.08,14.38,14.38,0,0,0-3,4.49,13.49,13.49,0,0,0-1.08,5.37,14,14,0,0,0,1.08,5.55,13.65,13.65,0,0,0,3,4.45,14.23,14.23,0,0,0,4.47,3,13.87,13.87,0,0,0,5.45,1.07,13.67,13.67,0,0,0,5.42-1.09,14.45,14.45,0,0,0,4.48-3A14.19,14.19,0,0,0,158.41,332.32Zm-5.66,1.93a10.1,10.1,0,0,1-11.25,2.26,10.14,10.14,0,0,1-3.27-2.26,10.63,10.63,0,0,1-2.2-3.32,10.13,10.13,0,0,1-.8-4.05,10.92,10.92,0,0,1,.76-4.08,10.19,10.19,0,0,1,2.16-3.37,10.69,10.69,0,0,1,3.27-2.28,10.22,10.22,0,0,1,8,0,10.33,10.33,0,0,1,3.27,2.27,10.65,10.65,0,0,1,3,7.44,10.43,10.43,0,0,1-.8,4.09A11.06,11.06,0,0,1,152.75,334.25Z" fill="#fff" stroke="#fff" stroke-miterlimit="10" stroke-width="0.25"/><path d="M192.7,339.63a13.16,13.16,0,0,0,4.35-2.68,12.45,12.45,0,0,0,3-4.22,13.75,13.75,0,0,0,1.08-5.58,15.67,15.67,0,0,0-.82-5,13.39,13.39,0,0,0-2.56-4.54,12.64,12.64,0,0,0-4.62-3.31,17.34,17.34,0,0,0-6.93-1.25H178.7v27.47h8.82A14.46,14.46,0,0,0,192.7,339.63ZM182.38,337V316.62h4.75a10.92,10.92,0,0,1,3.84.67,9.88,9.88,0,0,1,3.27,1.95,9.37,9.37,0,0,1,2.28,3.21,11.07,11.07,0,0,1,.84,4.47,10.84,10.84,0,0,1-.8,4.27,8.85,8.85,0,0,1-2.22,3.18,9.76,9.76,0,0,1-3.35,2,12.34,12.34,0,0,1-4.2.69Z" fill="#fff" stroke="#fff" stroke-miterlimit="10" stroke-width="0.25"/><polygon points="225.67 316.62 225.67 313.09 207.81 313.09 207.81 340.56 226.2 340.56 226.2 337.03 211.49 337.03 211.49 328.51 224.15 328.51 224.15 324.98 211.49 324.98 211.49 316.62 225.67 316.62" fill="#fff" stroke="#fff" stroke-miterlimit="10" stroke-width="0.25"/><polygon points="272.9 340.56 272.9 312.21 272.82 312.21 259.14 331.41 245.62 312.21 245.58 312.21 245.58 340.56 249.15 340.56 249.15 323.34 259.03 337.1 259.11 337.1 269.25 322.76 269.25 340.56 272.9 340.56" fill="#fff" stroke="#fff" stroke-miterlimit="10" stroke-width="0.25"/><path d="M293.65,330.64h5.47v5.48a8.82,8.82,0,0,1-2.36.81,13.5,13.5,0,0,1-2.77.29,12.15,12.15,0,0,1-4.31-.74,9.9,9.9,0,0,1-3.37-2.09,9.23,9.23,0,0,1-2.16-3.21,10.74,10.74,0,0,1-.76-4.11,12,12,0,0,1,.76-4.39,9.23,9.23,0,0,1,5.55-5.47,12.49,12.49,0,0,1,4.4-.74,10.47,10.47,0,0,1,2.21.25,20,20,0,0,1,2.3.62,10.81,10.81,0,0,1,1.88.84l1.25-3.38a15.9,15.9,0,0,0-3.61-1.45,16.56,16.56,0,0,0-4.44-.57,15.2,15.2,0,0,0-5.4,1,13.14,13.14,0,0,0-7.58,7.45,15.92,15.92,0,0,0-1.12,6.14,14,14,0,0,0,1,5.35,12.68,12.68,0,0,0,2.89,4.3,13.29,13.29,0,0,0,4.52,2.85,16.47,16.47,0,0,0,5.95,1,14.52,14.52,0,0,0,2.45-.23A22.6,22.6,0,0,0,299,340a16.92,16.92,0,0,0,2.26-.86,6.77,6.77,0,0,0,1.59-1v-11.1h-9.15Z" fill="#fff" stroke="#fff" stroke-miterlimit="10" stroke-width="0.25"/><polygon points="310.33 340.56 314.02 340.56 314.02 328.89 325.07 328.89 325.07 325.4 314.02 325.4 314.02 316.62 326.63 316.62 326.63 313.09 310.33 313.09 310.33 340.56" fill="#fff" stroke="#fff" stroke-miterlimit="10" stroke-width="0.25"/><path d="M368.13,327.15a15.67,15.67,0,0,0-.82-5,13.39,13.39,0,0,0-2.56-4.54,12.64,12.64,0,0,0-4.62-3.31,17.43,17.43,0,0,0-6.94-1.25h-7.48v27.47h8.81a14.47,14.47,0,0,0,5.19-.93,13.26,13.26,0,0,0,4.35-2.68,12.45,12.45,0,0,0,3-4.22A13.75,13.75,0,0,0,368.13,327.15Zm-4.56,4a8.75,8.75,0,0,1-2.23,3.18,9.72,9.72,0,0,1-3.34,2,12.34,12.34,0,0,1-4.2.69h-4.41V316.62h4.75a10.92,10.92,0,0,1,3.84.67,9.88,9.88,0,0,1,3.27,1.95,9.37,9.37,0,0,1,2.28,3.21,11.07,11.07,0,0,1,.84,4.47A10.84,10.84,0,0,1,363.57,331.19Z" fill="#fff" stroke="#fff" stroke-miterlimit="10" stroke-width="0.25"/><path d="M387.75,333.34l2.84,7.22h4.21l-12-28.61h-.22l-12,28.61h3.61l3-7.22Zm-9.29-3.19,4.1-10,3.94,10Z" fill="#fff" stroke="#fff" stroke-miterlimit="10" stroke-width="0.25"/><path d="M416.79,333.34h10.59l2.84,7.22h4.22l-12-28.61h-.23l-12,28.61h3.61Zm1.31-3.19,4.09-10,3.94,10Z" fill="#fff" stroke="#fff" stroke-miterlimit="10" stroke-width="0.25"/><path d="M454.33,315.27a9,9,0,0,0-3.08-1.63,12.82,12.82,0,0,0-3.86-.55H440.1v27.47h3.68V330.45h4.07q.47,0,.9,0l6.47,10.14h4.26l-6.89-11.08a7.74,7.74,0,0,0,2.48-1.86,7.86,7.86,0,0,0,1.58-2.83,11.1,11.1,0,0,0,.47-3.19,8.47,8.47,0,0,0-.74-3.67A7.58,7.58,0,0,0,454.33,315.27Zm-1.27,8.19a5,5,0,0,1-.88,1.69,4.4,4.4,0,0,1-1.69,1.28,6.72,6.72,0,0,1-2.72.49h-4v-10.3H448a5.51,5.51,0,0,1,2.45.5,4.74,4.74,0,0,1,1.64,1.25A5.16,5.16,0,0,1,453,320a5.68,5.68,0,0,1,.28,1.73A6.41,6.41,0,0,1,453.06,323.46Z" fill="#fff" stroke="#fff" stroke-miterlimit="10" stroke-width="0.25"/><path d="M474.81,337.16a7.21,7.21,0,0,1-2.56.48,9,9,0,0,1-2.51-.37,13.14,13.14,0,0,1-2.47-.95,15.58,15.58,0,0,1-2.09-1.23L463.55,338a20.63,20.63,0,0,0,2.5,1.38,16.48,16.48,0,0,0,3.06,1.09,14.06,14.06,0,0,0,3.48.42,10.51,10.51,0,0,0,4.79-1,7.44,7.44,0,0,0,4.18-6.76,8.24,8.24,0,0,0-.59-3.31,6.67,6.67,0,0,0-1.6-2.24,9.24,9.24,0,0,0-2.26-1.52,27.22,27.22,0,0,0-2.55-1.1c-1-.38-1.93-.79-2.85-1.22a7.11,7.11,0,0,1-2.2-1.54,3.05,3.05,0,0,1-.84-2.18,3.31,3.31,0,0,1,1.31-2.74,5.6,5.6,0,0,1,3.52-1,11,11,0,0,1,3.27.53,21.06,21.06,0,0,1,3.08,1.26l1.4-2.81a16,16,0,0,0-3.59-1.6,15.56,15.56,0,0,0-4.69-.64,9.76,9.76,0,0,0-4.18,1,7.26,7.26,0,0,0-2.87,2.55,6.79,6.79,0,0,0-1,3.78,6.24,6.24,0,0,0,.68,3,6.37,6.37,0,0,0,1.82,2.11,12.37,12.37,0,0,0,2.47,1.44c.89.4,1.76.76,2.62,1.08a22.87,22.87,0,0,1,2.59,1.2,6.56,6.56,0,0,1,2,1.6,3.66,3.66,0,0,1,.74,2.34,3.92,3.92,0,0,1-.84,2.62A5,5,0,0,1,474.81,337.16Z" fill="#fff" stroke="#fff" stroke-miterlimit="10" stroke-width="0.25"/><polygon points="500.75 313.09 500.75 340.56 518.38 340.56 518.38 337.03 504.43 337.03 504.43 313.09 500.75 313.09" fill="#fff" stroke="#fff" stroke-miterlimit="10" stroke-width="0.25"/><polygon points="541.4 313.09 537.11 313.09 529.47 332.94 521.57 313.09 517.2 313.09 529.28 341.81 541.4 313.09" fill="#fff" stroke="#fff" stroke-miterlimit="10" stroke-width="0.25"/><polygon points="545.4 316.62 552.58 316.62 552.58 340.56 556.26 340.56 556.26 316.62 563.63 316.62 563.63 313.09 545.4 313.09 545.4 316.62" fill="#fff" stroke="#fff" stroke-miterlimit="10" stroke-width="0.25"/><polygon points="317.58 364.16 321.33 364.16 321.33 387.63 323.23 387.63 323.23 362.34 317.58 362.34 317.58 364.16" fill="#fff" stroke="#fff" stroke-miterlimit="10" stroke-width="0.25"/><rect x="328.15" y="379.04" width="7.17" height="1.63" fill="#fff" stroke="#fff" stroke-miterlimit="10" stroke-width="0.25"/><path d="M351.56,373.59a6.62,6.62,0,0,0-2.42-1.31,8.45,8.45,0,0,0-2.86-.33,7.38,7.38,0,0,0-.82,0l7-9.65H339.69v1.78h9.59L342,374l.15.12a8.87,8.87,0,0,1,1.59-.55,8.53,8.53,0,0,1,2-.23,6.3,6.3,0,0,1,4.46,1.55,5.52,5.52,0,0,1,1.66,4.26,7.25,7.25,0,0,1-.89,3.64,6.19,6.19,0,0,1-2.46,2.46,7.24,7.24,0,0,1-3.58.87,6.55,6.55,0,0,1-2.9-.67,6.93,6.93,0,0,1-2.25-1.69l-1,1.55a8.39,8.39,0,0,0,2.75,1.92,8.31,8.31,0,0,0,3.41.71,9.31,9.31,0,0,0,4.51-1.08,8.17,8.17,0,0,0,3.16-3,8.84,8.84,0,0,0,1.16-4.59,8.4,8.4,0,0,0-.6-3.33A6.25,6.25,0,0,0,351.56,373.59Z" fill="#fff" stroke="#fff" stroke-miterlimit="10" stroke-width="0.25"/><path d="M371.8,383.37a8.46,8.46,0,0,1-1.84,5.85,6.44,6.44,0,0,1-4.63,2.21v1.82a8.6,8.6,0,0,0,4.25-1.22,8.19,8.19,0,0,0,3-3.31,11.25,11.25,0,0,0,1.12-5.23V360.13h-1.9Z" fill="#fff" stroke="#fff" stroke-miterlimit="10" stroke-width="0.25"/><path d="M397.87,378.34a8.24,8.24,0,0,1-1,4.14,6.81,6.81,0,0,1-2.71,2.69,7.94,7.94,0,0,1-3.93.95,7.71,7.71,0,0,1-3.87-.95,6.85,6.85,0,0,1-2.7-2.69,8.23,8.23,0,0,1-1-4.14V360.13h-1.9v18.32a10,10,0,0,0,1.24,5.12,8.23,8.23,0,0,0,3.39,3.25,10.93,10.93,0,0,0,9.64,0,8.46,8.46,0,0,0,3.41-3.25,9.89,9.89,0,0,0,1.26-5.12V360.13h-1.86Z" fill="#fff" stroke="#fff" stroke-miterlimit="10" stroke-width="0.25"/><polygon points="408.71 360.13 406.82 360.13 406.82 387.63 423.78 387.63 423.78 385.81 408.71 385.81 408.71 360.13" fill="#fff" stroke="#fff" stroke-miterlimit="10" stroke-width="0.25"/><polygon points="447.14 372.92 430.56 372.92 430.56 360.13 428.66 360.13 428.66 387.63 430.56 387.63 430.56 374.7 447.14 374.7 447.14 387.63 449.04 387.63 449.04 360.13 447.14 360.13 447.14 372.92" fill="#fff" stroke="#fff" stroke-miterlimit="10" stroke-width="0.25"/><path d="M478.51,364a14,14,0,0,0-4.49-3.06,13.6,13.6,0,0,0-5.46-1.11,13.45,13.45,0,0,0-5.45,1.11,14,14,0,0,0-4.47,3.06,14.26,14.26,0,0,0-3,4.49,13.76,13.76,0,0,0-1.09,5.44,14.17,14.17,0,0,0,1.09,5.58,13.55,13.55,0,0,0,3,4.45,13.87,13.87,0,0,0,4.47,2.95,14.11,14.11,0,0,0,5.45,1,13.92,13.92,0,0,0,9.95-4.1,14.39,14.39,0,0,0,3-4.48,14,14,0,0,0,0-10.88A14.67,14.67,0,0,0,478.51,364Zm1.26,14.7a12.29,12.29,0,0,1-6.49,6.48,11.8,11.8,0,0,1-4.76.95,11.47,11.47,0,0,1-4.67-.95,12.26,12.26,0,0,1-3.85-2.61,11.88,11.88,0,0,1-2.6-3.87,12.06,12.06,0,0,1-.93-4.73,12.22,12.22,0,0,1,.91-4.7,12.29,12.29,0,0,1,6.41-6.63,11.51,11.51,0,0,1,4.77-1,11.72,11.72,0,0,1,4.72,1,12.5,12.5,0,0,1,6.49,6.57,12.37,12.37,0,0,1,0,9.51Z" fill="#fff" stroke="#fff" stroke-miterlimit="10" stroke-width="0.25"/><path d="M503.78,382.21c1.28-1.34,2.47-2.7,3.57-4.06A21.88,21.88,0,0,0,510,374a9.65,9.65,0,0,0,1-4.22,8.49,8.49,0,0,0-.91-3.93,7,7,0,0,0-2.56-2.79,7.08,7.08,0,0,0-3.85-1,8.16,8.16,0,0,0-4.23,1,6.69,6.69,0,0,0-2.63,2.75,8.49,8.49,0,0,0-.64,5.83,6.67,6.67,0,0,0,.76,1.84,6,6,0,0,0,1.2,1.45l1.16-1.05a5,5,0,0,1-1.12-1.85,7.24,7.24,0,0,1-.39-2.45,7,7,0,0,1,.27-1.87,5.74,5.74,0,0,1,.91-1.88,4.84,4.84,0,0,1,1.72-1.46,6.45,6.45,0,0,1,4.67-.23,5.3,5.3,0,0,1,1.82,1.05,5.24,5.24,0,0,1,1.36,1.88,6.93,6.93,0,0,1,.52,2.86A8.93,8.93,0,0,1,508,374a24.55,24.55,0,0,1-2.88,4.32c-1.22,1.48-2.59,3-4.13,4.57s-3.13,3.14-4.78,4.74H512.4v-1.82h-12Q502.06,384,503.78,382.21Z" fill="#fff" stroke="#fff" stroke-miterlimit="10" stroke-width="0.25"/><path d="M532.08,365.85a9.63,9.63,0,0,0-3.31-2.75,9.81,9.81,0,0,0-4.48-1,10.4,10.4,0,0,0-4.53.95,9.16,9.16,0,0,0-3.33,2.69,12.19,12.19,0,0,0-2,4.09,17.59,17.59,0,0,0-.7,5.09,17.07,17.07,0,0,0,.72,5,12.77,12.77,0,0,0,2.07,4.12,9.38,9.38,0,0,0,3.33,2.77,10.65,10.65,0,0,0,9,0,9.63,9.63,0,0,0,3.31-2.75,12.81,12.81,0,0,0,2.07-4.11,17.08,17.08,0,0,0,.72-5.05,16.83,16.83,0,0,0-.72-5A12.86,12.86,0,0,0,532.08,365.85Zm-.25,15a8.88,8.88,0,0,1-3.06,3.83,7.84,7.84,0,0,1-4.52,1.34,7.72,7.72,0,0,1-4.49-1.34,8.74,8.74,0,0,1-3-3.83,16,16,0,0,1,0-11.76,8.86,8.86,0,0,1,3-3.83,7.36,7.36,0,0,1,4.49-1.32,7.47,7.47,0,0,1,4.52,1.32,9,9,0,0,1,3.06,3.83,14.37,14.37,0,0,1,1.1,5.85A14.67,14.67,0,0,1,531.83,380.84Z" fill="#fff" stroke="#fff" stroke-miterlimit="10" stroke-width="0.25"/><path d="M544.38,382.21c1.27-1.34,2.46-2.7,3.56-4.06a21.4,21.4,0,0,0,2.65-4.15,9.65,9.65,0,0,0,1-4.22,8.37,8.37,0,0,0-.91-3.93,7,7,0,0,0-2.56-2.79,7.08,7.08,0,0,0-3.85-1,8.12,8.12,0,0,0-4.22,1,6.71,6.71,0,0,0-2.64,2.75,8.23,8.23,0,0,0-.89,3.81,8.66,8.66,0,0,0,.25,2,6.67,6.67,0,0,0,.76,1.84,6,6,0,0,0,1.2,1.45l1.16-1.05a5.16,5.16,0,0,1-1.12-1.85,7.24,7.24,0,0,1-.39-2.45,7,7,0,0,1,.27-1.87,5.94,5.94,0,0,1,.91-1.88,4.79,4.79,0,0,1,1.73-1.46,6.42,6.42,0,0,1,4.66-.23,5.3,5.3,0,0,1,1.82,1.05,5.24,5.24,0,0,1,1.36,1.88,6.93,6.93,0,0,1,.52,2.86A8.92,8.92,0,0,1,548.6,374a24.64,24.64,0,0,1-2.89,4.32c-1.21,1.48-2.59,3-4.12,4.57s-3.13,3.14-4.79,4.74H553v-1.82H541C542.1,384.62,543.22,383.42,544.38,382.21Z" fill="#fff" stroke="#fff" stroke-miterlimit="10" stroke-width="0.25"/><polygon points="555.05 364.16 558.8 364.16 558.8 387.63 560.7 387.63 560.7 362.34 555.05 362.34 555.05 364.16" fill="#fff" stroke="#fff" stroke-miterlimit="10" stroke-width="0.25"/><polygon points="3.84 364.99 10.24 364.99 10.24 387.16 15.63 387.16 15.63 364.99 22.29 364.99 22.29 359.78 3.84 359.78 3.84 364.99" fill="#fff" stroke="#fff" stroke-miterlimit="10" stroke-width="0.25"/><path d="M47.27,363.67a14.83,14.83,0,0,0-4.48-3.07,13.76,13.76,0,0,0-10.83,0,14.44,14.44,0,0,0-7.44,7.55,13.5,13.5,0,0,0-1.07,5.36,13.72,13.72,0,0,0,4.07,9.87,14,14,0,0,0,4.44,3,14.12,14.12,0,0,0,10.83,0,14.45,14.45,0,0,0,4.48-3,13.8,13.8,0,0,0,3-4.44,13.55,13.55,0,0,0,1.1-5.43,13.35,13.35,0,0,0-1.1-5.36A14.42,14.42,0,0,0,47.27,363.67ZM45.2,376.91a8.88,8.88,0,0,1-1.74,2.79,7.93,7.93,0,0,1-2.63,1.88,7.85,7.85,0,0,1-3.25.67,8.27,8.27,0,0,1-6.08-2.55,8.58,8.58,0,0,1-1.82-2.79,8.73,8.73,0,0,1-.66-3.4,9.38,9.38,0,0,1,.64-3.46,8.56,8.56,0,0,1,1.78-2.81,8.39,8.39,0,0,1,2.68-1.88,8.2,8.2,0,0,1,9.28,1.88,9,9,0,0,1,2.44,6.27A8.91,8.91,0,0,1,45.2,376.91Z" fill="#fff" stroke="#fff" stroke-miterlimit="10" stroke-width="0.25"/><path d="M72.22,375.41a8.62,8.62,0,0,0,1.64-3.05,11.48,11.48,0,0,0,.5-3.35,9.8,9.8,0,0,0-.7-3.81,8,8,0,0,0-2.07-2.91,9.31,9.31,0,0,0-3.36-1.85,14.67,14.67,0,0,0-4.58-.66H55.36v27.38h5.39v-8.7h3.59l5.78,8.7h6.29l-6.38-10A7.66,7.66,0,0,0,72.22,375.41ZM60.75,365h3.87a4.42,4.42,0,0,1,2.25.49,3.22,3.22,0,0,1,1.24,1.18,4.21,4.21,0,0,1,.54,1.4,6.09,6.09,0,0,1,.13,1.13,4.78,4.78,0,0,1-.2,1.29,4.33,4.33,0,0,1-.67,1.32,3.51,3.51,0,0,1-1.28,1,4.62,4.62,0,0,1-2,.41H60.75Z" fill="#fff" stroke="#fff" stroke-miterlimit="10" stroke-width="0.25"/><path d="M96.29,375.41a8.59,8.59,0,0,0,1.63-3.05,11.5,11.5,0,0,0,.51-3.35,9.8,9.8,0,0,0-.71-3.81,8,8,0,0,0-2.06-2.91,9.36,9.36,0,0,0-3.37-1.85,14.63,14.63,0,0,0-4.58-.66H79.42v27.38h5.39v-8.7h3.6l5.78,8.7h6.28l-6.37-10A7.94,7.94,0,0,0,96.29,375.41ZM84.81,365h3.87a4.39,4.39,0,0,1,2.25.49,3.25,3.25,0,0,1,1.25,1.18,4.69,4.69,0,0,1,.54,1.4,7.09,7.09,0,0,1,.13,1.13,4.44,4.44,0,0,1-.21,1.29A4.12,4.12,0,0,1,92,371.8a3.43,3.43,0,0,1-1.28,1,4.57,4.57,0,0,1-2,.41H84.81Z" fill="#fff" stroke="#fff" stroke-miterlimit="10" stroke-width="0.25"/><polygon points="108.88 376.04 120.63 376.04 120.63 370.83 108.88 370.83 108.88 364.99 122.16 364.99 122.16 359.78 103.48 359.78 103.48 387.16 122.68 387.16 122.68 381.95 108.88 381.95 108.88 376.04" fill="#fff" stroke="#fff" stroke-miterlimit="10" stroke-width="0.25"/><path d="M132.46,365.14a4.72,4.72,0,0,1,2.75-.71,9.39,9.39,0,0,1,3,.56,20.3,20.3,0,0,1,3.18,1.41l2.05-4.12a18.82,18.82,0,0,0-3.7-1.86,15.5,15.5,0,0,0-5.38-.78,10.38,10.38,0,0,0-4.46,1.13,7.49,7.49,0,0,0-3,2.77,7.79,7.79,0,0,0-1.06,4.13,6.64,6.64,0,0,0,2.62,5.6,13.74,13.74,0,0,0,2.51,1.54c.89.42,1.76.79,2.6,1.12a11.83,11.83,0,0,1,2,1,5.62,5.62,0,0,1,1.45,1.23,2.32,2.32,0,0,1,.54,1.49,2.58,2.58,0,0,1-.65,1.86,3.67,3.67,0,0,1-1.64.95,7.29,7.29,0,0,1-2,.28,8.51,8.51,0,0,1-2.12-.3,12.93,12.93,0,0,1-2.29-.84,13.65,13.65,0,0,1-2.1-1.24l-2.38,4.2a16.13,16.13,0,0,0,3,1.65,16.36,16.36,0,0,0,3.18,1,16.67,16.67,0,0,0,3.19.32,10.93,10.93,0,0,0,5.13-1.1,7.84,7.84,0,0,0,3.16-2.88,7.34,7.34,0,0,0,1.08-3.87,8.81,8.81,0,0,0-.56-3.33,6.64,6.64,0,0,0-1.49-2.27,8.8,8.8,0,0,0-2.1-1.52,19.66,19.66,0,0,0-2.36-1.06c-.87-.33-1.71-.69-2.51-1.08a7.19,7.19,0,0,1-2-1.36,2.4,2.4,0,0,1-.77-1.73A2.43,2.43,0,0,1,132.46,365.14Z" fill="#fff" stroke="#fff" stroke-miterlimit="10" stroke-width="0.25"/><polygon points="168.06 375.21 161.8 359.78 155.33 359.78 167.83 388.42 180.33 359.78 173.93 359.78 168.06 375.21" fill="#fff" stroke="#fff" stroke-miterlimit="10" stroke-width="0.25"/><polygon points="188.99 376.04 200.75 376.04 200.75 370.83 188.99 370.83 188.99 364.99 202.27 364.99 202.27 359.78 183.6 359.78 183.6 387.16 202.79 387.16 202.79 381.95 188.99 381.95 188.99 376.04" fill="#fff" stroke="#fff" stroke-miterlimit="10" stroke-width="0.25"/><path d="M226.8,364.28a12.48,12.48,0,0,0-4.67-3.27,18,18,0,0,0-7-1.23h-8.18v27.38h9.52a15.18,15.18,0,0,0,5.28-.91,13.2,13.2,0,0,0,4.39-2.64,12.61,12.61,0,0,0,3-4.17A13.22,13.22,0,0,0,230.2,374a16.32,16.32,0,0,0-.82-5.09A13,13,0,0,0,226.8,364.28ZM224,377.21a6.74,6.74,0,0,1-1.86,2.62,8,8,0,0,1-2.88,1.58,12.11,12.11,0,0,1-3.72.54h-3.2V365h4.39a9,9,0,0,1,2.27.36,7.76,7.76,0,0,1,2.62,1.28,7.2,7.2,0,0,1,2.16,2.62,9.57,9.57,0,0,1,.87,4.37A9.33,9.33,0,0,1,224,377.21Z" fill="#fff" stroke="#fff" stroke-miterlimit="10" stroke-width="0.25"/><path d="M267.47,358.71l-12.32,28.38-6.33-9.88a7.79,7.79,0,0,0,2.19-1.8,8.78,8.78,0,0,0,1.64-3.05,11.83,11.83,0,0,0,.5-3.35,9.62,9.62,0,0,0-.71-3.81,7.89,7.89,0,0,0-2.06-2.91,9.36,9.36,0,0,0-3.37-1.85,14.61,14.61,0,0,0-4.57-.66h-8.3v27.38h5.4v-8.7h3.59l5.78,8.7h11.53l2.23-5.36h9.09l2.11,5.36h6.25l-12.35-28.45ZM239.54,365h3.87a4.42,4.42,0,0,1,2.25.49,3.29,3.29,0,0,1,1.24,1.18,4.69,4.69,0,0,1,.54,1.4,6.09,6.09,0,0,1,.13,1.13,4.78,4.78,0,0,1-.2,1.29,4.33,4.33,0,0,1-.67,1.32,3.47,3.47,0,0,1-1.29,1,4.54,4.54,0,0,1-2,.41h-3.83Zm25,12.28,2.78-6.68,2.63,6.68Z" fill="#fff" stroke="#fff" stroke-miterlimit="10" stroke-width="0.25"/><path d="M288.3,365.14a4.72,4.72,0,0,1,2.75-.71,9.39,9.39,0,0,1,3,.56,20.3,20.3,0,0,1,3.18,1.41l2.05-4.12a18.82,18.82,0,0,0-3.7-1.86,15.5,15.5,0,0,0-5.38-.78,10.38,10.38,0,0,0-4.46,1.13,7.49,7.49,0,0,0-3,2.77,7.79,7.79,0,0,0-1.06,4.13,6.64,6.64,0,0,0,2.62,5.6,13.74,13.74,0,0,0,2.51,1.54c.89.42,1.76.79,2.6,1.12a11.83,11.83,0,0,1,2,1,5.62,5.62,0,0,1,1.45,1.23,2.32,2.32,0,0,1,.54,1.49,2.58,2.58,0,0,1-.65,1.86,3.67,3.67,0,0,1-1.64.95,7.29,7.29,0,0,1-1.95.28,8.51,8.51,0,0,1-2.12-.3,12.93,12.93,0,0,1-2.29-.84,13.65,13.65,0,0,1-2.1-1.24l-2.38,4.2a16.61,16.61,0,0,0,6.2,2.62,16.49,16.49,0,0,0,3.18.32,10.93,10.93,0,0,0,5.13-1.1,7.84,7.84,0,0,0,3.16-2.88,7.34,7.34,0,0,0,1.08-3.87,8.81,8.81,0,0,0-.56-3.33A6.64,6.64,0,0,0,297,374a8.8,8.8,0,0,0-2.1-1.52,19.66,19.66,0,0,0-2.36-1.06c-.87-.33-1.71-.69-2.51-1.08a7.34,7.34,0,0,1-2-1.36,2.39,2.39,0,0,1-.76-1.73A2.42,2.42,0,0,1,288.3,365.14Z" fill="#fff" stroke="#fff" stroke-miterlimit="10" stroke-width="0.25"/></svg>