<svg id="Layer_1" data-name="Layer 1" xmlns="http://www.w3.org/2000/svg" viewBox="0 0 841.89 595.28"><title>Square Cor</title><path d="M172.52,294.39v23.14q5.44-.87,11.36-1.75a87.89,87.89,0,0,1-9.56-22.19Z" fill="none"/><polygon points="247.08 273.08 247.08 286.95 253.89 280.06 247.08 273.08" fill="#52a3a6"/><polygon points="247.08 241.95 247.08 258.87 255 250.18 247.08 241.95" fill="#52a3a6"/><polygon points="267.63 289.55 267.63 271.27 258.22 280.07 267.63 289.55" fill="#52a3a6"/><path d="M247.08,290.47v17.47q10-1,20.55-1.91V294.17l-11.67-12Z" fill="#52a3a6"/><polygon points="267.63 259.81 267.63 241.78 258.96 250.34 267.63 259.81" fill="#52a3a6"/><polygon points="247.08 262.04 247.08 268.85 256.05 277.88 267.63 266.17 267.63 263.33 257 252.27 247.08 262.04" fill="#52a3a6"/><path d="M267.63,224.39V207.84l-7.78,8.87C262.82,219.71,265.67,222.54,267.63,224.39Z" fill="#52a3a6"/><polygon points="247.08 231.25 247.08 237.37 256.9 248.09 267.63 236.31 267.63 228.97 257.95 218.88 247.08 231.25" fill="#52a3a6"/><polygon points="247.08 207.54 247.08 228.13 256.44 217.3 247.08 207.54" fill="#52a3a6"/><path d="M188.09,286.35a127.93,127.93,0,0,1-13.77,7.24,87.89,87.89,0,0,0,9.56,22.19l4.21-.63Z" fill="#52a3a6"/><path d="M259.36,358.36c1.15,0,2.29,0,3.42-.08s2.47-.13,3.7-.22l-10.72-9.75-8.68,7.61v1.58q3.66.51,7.41.72C256.1,358.31,257.72,358.36,259.36,358.36Z" fill="#52a3a6"/><path d="M267.25,204.8H248.19c2.27,2.34,6.19,6.38,10.11,10.35Z" fill="#52a3a6"/><path d="M273.05,209.68l.6,95.85q6.93-.57,14.1-1.08v-77C281,220,276,213.63,273.05,209.68Z" fill="#52a3a6"/><polygon points="247.08 340.43 247.08 352.57 253.63 346.38 247.08 340.43" fill="#52a3a6"/><path d="M267.63,354.35V337.89l-9.4,8.26C261.83,349.34,265.34,352.41,267.63,354.35Z" fill="#52a3a6"/><path d="M189.22,285.65V315q7-1,14.63-2v-38A119,119,0,0,1,189.22,285.65Z" fill="#52a3a6"/><path d="M224.65,251.62l-.44.63v58.17q8.16-1,16.84-1.87l.58-93.13A130.93,130.93,0,0,1,224.65,251.62Z" fill="#52a3a6"/><path d="M205,274v38.86c5.78-.76,11.83-1.52,18.1-2.26V253.87A117.72,117.72,0,0,1,205,274Z" fill="#52a3a6"/><path d="M247.08,336.2c2.19,2,5.47,4.91,8.9,8l11.65-11V320.08q-10.22.87-20.55,1.92Z" fill="#52a3a6"/><path d="M193.26,328.52a88.21,88.21,0,0,0,33.52,23.62,87,87,0,0,0,8.47,2.88c1.81.51,3.65,1,5.5,1.36l.21-33.75Q217.35,325.12,193.26,328.52Z" fill="#52a3a6"/><path d="M336.22,301.77l5.56-.2a87.92,87.92,0,0,0,5.63-26.74c-3.86-2-7.6-4.07-11.19-6.26Z" fill="#52a3a6"/><path d="M307.59,247.21l-.69-.62V303.2q7.47-.43,15.19-.81V259C316.79,255.07,311.93,251.07,307.59,247.21Z" fill="#52a3a6"/><path d="M323.22,259.84v42.5q5.88-.29,11.87-.52V267.87C330.93,265.28,327,262.58,323.22,259.84Z" fill="#52a3a6"/><path d="M222.78,250.35A127.86,127.86,0,0,0,241.69,206l.06-10.32h1.62v-2.84h2.16l-.29,2.84h1.84v5h20.55v-5H269v-2.84h2.46v2.84H273l.06,10.13a253.4,253.4,0,0,0,36.1,39.73,192,192,0,0,0,38.38,26.78c0-.72,0-1.44,0-2.17a88.19,88.19,0,1,0-173.8,21.19A116.75,116.75,0,0,0,222.78,250.35Z" fill="#52a3a6"/><path d="M288.88,228.74v75.63q8.28-.58,16.89-1.1V245.58C299.38,239.79,293.71,234,288.88,228.74Z" fill="#52a3a6"/><path d="M274,357.14q4.13-.69,8.12-1.75c2.88-.77,5.71-1.68,8.47-2.72a88.46,88.46,0,0,0,44.22-36.79q-29.85,1.17-61,3.69Z" fill="#52a3a6"/><path d="M183.88,315.78q2,3.25,4.21,6.32v-7Z" fill="#fff"/><path d="M273,205.83l0,3.85c2.95,3.95,8,10.34,14.7,17.81v-1h1.13v2.29c4.83,5.28,10.5,11,16.89,16.84v-1.24h1.13v2.25l.69.62c4.34,3.86,9.2,7.86,14.5,11.8v-1h1.13v1.79c3.75,2.74,7.71,5.44,11.87,8V267h1.13v1.62c3.59,2.19,7.33,4.29,11.19,6.26,0-.82.08-1.65.1-2.49a192,192,0,0,1-38.38-26.78A253.4,253.4,0,0,1,273,205.83Z" fill="#fff"/><path d="M188.09,286.35v-1h1.13v.28a119,119,0,0,0,14.63-10.73v-1.06H205V274a117.72,117.72,0,0,0,18.1-20.08v-3.15h1.13v1.53l.44-.63a130.93,130.93,0,0,0,17-36.2l.06-9.4a127.86,127.86,0,0,1-18.91,44.33,116.75,116.75,0,0,1-49,41c.18.74.36,1.49.57,2.23A127.93,127.93,0,0,0,188.09,286.35Z" fill="#fff"/><path d="M287.75,309.31h1.13v-4.94l-1.13.08Z" fill="#fff"/><path d="M288.88,226.45h-1.13v1c.37.42.75.83,1.13,1.25Z" fill="#fff"/><path d="M223.08,253.87v56.68l1.13-.13V252.25C223.84,252.79,223.47,253.33,223.08,253.87Z" fill="#fff"/><path d="M223.08,321.56h1.13V310.42l-1.13.13Z" fill="#fff"/><path d="M224.21,250.72h-1.13v3.15c.39-.54.76-1.08,1.13-1.62Z" fill="#fff"/><path d="M203.85,274.92v38l1.13-.15V274Z" fill="#fff"/><path d="M203.85,321.24H205v-8.43l-1.13.15Z" fill="#fff"/><path d="M205,273.86h-1.13v1.06l1.13-1Z" fill="#fff"/><path d="M188.09,286.35v28.8l1.13-.16V285.65Z" fill="#fff"/><path d="M188.09,322.1c.37.51.75,1,1.13,1.51V315l-1.13.16Z" fill="#fff"/><path d="M189.22,285.37h-1.13v1l1.13-.7Z" fill="#fff"/><path d="M116.52,328.24v13.62q38.7-8,76.74-13.34c-1.41-1.58-2.75-3.22-4-4.91-.38-.5-.76-1-1.13-1.51q-2.24-3.06-4.21-6.32-5.92.89-11.36,1.75V294.39l1.8-.8c-.21-.74-.39-1.49-.57-2.23-15.32,6.95-34.15,11.89-57.29,13l.11,2.25c4.3-.21,8.44-.56,12.46-1v19.84C120.83,327.17,116.52,328.24,116.52,328.24Zm40-28.08a139.59,139.59,0,0,0,14.9-5.3v22.85q-8,1.29-14.9,2.5Zm-13.61,3.33c4.35-.86,8.5-1.88,12.48-3v19.93q-6.81,1.2-12.48,2.28Zm-12.72,2q6-.74,11.59-1.79v19.22q-6.63,1.27-11.59,2.31Z" fill="#52a3a6"/><path d="M305.77,311.06h1.13V303.2l-1.13.07Z" fill="#fff"/><path d="M306.9,244.34h-1.13v1.24l1.13,1Z" fill="#fff"/><path d="M322.09,311.06h1.13v-8.72l-1.13.05Z" fill="#fff"/><path d="M323.22,258.05h-1.13v1l1.13.83Z" fill="#fff"/><path d="M335.09,267.87v33.95l1.13-.05v-33.2Z" fill="#fff"/><path d="M335.09,311.06h1.13v-9.29l-1.13.05Z" fill="#fff"/><path d="M336.22,267h-1.13v.92l1.13.7Z" fill="#fff"/><path d="M402.56,286.83h-.05c-20.08,0-38.73-6.05-55-14.49,0,.84-.06,1.67-.1,2.49.8.41,1.61.81,2.43,1.21l.32,25.26c-2.81.08-5.61.17-8.38.27a88.62,88.62,0,0,1-7,14.31c23.89-.95,47.08-1.3,69.39-1.18v-14q-5.75,0-11.42,0v-12c3.21.31,6.46.48,9.75.48h.06c.54,0,1.07,0,1.61,0V286.8C403.63,286.81,403.1,286.83,402.56,286.83ZM351,276.6c4.26,2,8.66,3.89,13.19,5.52v18.82c-4.34.09-8.62.2-12.87.32Zm14.32,24.32V282.51a124.23,124.23,0,0,0,12.11,3.56l.29,14.66Q371.43,300.8,365.29,300.92Zm26.33-.29q-6.47,0-12.8.09l-.29-14.4a108.64,108.64,0,0,0,13.09,2.19Z" fill="#52a3a6"/><polygon points="245.53 229.93 245.53 233.02 247.08 231.25 247.08 228.13 245.53 229.93" fill="#fff"/><polygon points="267.63 204.36 267.25 204.8 267.63 204.8 267.63 204.36" fill="#fff"/><polygon points="255 250.18 247.08 258.87 247.08 262.04 257 252.27 255 250.18" fill="#fff"/><polygon points="258.96 250.34 267.63 241.78 267.63 236.31 256.9 248.09 258.96 250.34" fill="#fff"/><polygon points="255.76 348.31 253.63 346.38 247.08 352.57 247.08 355.92 255.76 348.31" fill="#fff"/><path d="M279.1,399.64l-.11-5H274.2L274,357.14c-1.37.22-2.75.42-4.14.59-.73.09-1.46.17-2.2.23l-1.15.1,1.15,1.05v2.63l-11.94,11.94c-3.24-2.77-6.37-5.46-8.61-7.39V357.5l-1.53-.23c-.48-.08-1-.15-1.45-.24-1.12-.19-2.24-.41-3.35-.65l-.24,38.23H237v4.71h-5.33v7.53h50.82v-7.29ZM267.63,365.7v18.07c-2.36-1.94-6-5-9.78-8.25C261.84,371.4,265.64,367.54,267.63,365.7ZM253.39,376l-6.31,6.3v-12Zm-6.31,10.77c2.22-2.33,5.29-5.55,8.45-8.82l12.1,11v5.66H247.08Z" fill="#52a3a6"/><polygon points="257 252.27 267.63 263.33 267.63 259.81 258.96 250.34 257 252.27" fill="#fff"/><polygon points="256.9 248.09 247.08 237.37 247.08 241.95 255 250.18 256.9 248.09" fill="#fff"/><polygon points="257 252.27 258.96 250.34 256.9 248.09 255 250.18 257 252.27" fill="#fff"/><path d="M248.19,204.8l-1.11-1.15v1.15Z" fill="#fff"/><path d="M288.88,228.74c-.38-.42-.76-.83-1.13-1.25v77l1.13-.08Z" fill="#fff"/><path d="M306.9,246.59l-1.13-1v57.69l1.13-.07Z" fill="#fff"/><path d="M323.22,259.84l-1.13-.83v43.38l1.13-.05Z" fill="#fff"/><path d="M341.78,301.57l-5.56.2v9.29h-1.13v-9.24q-6,.24-11.87.52v8.72h-1.13v-8.67q-7.71.38-15.19.81v7.86h-1.13v-7.79q-8.61.51-16.89,1.1v4.94h-1.13v-4.86q-7.17.51-14.1,1.08l-.6-95.85,0-3.85L273,195.7h-1.5v-2.84H269v2.84h-1.38v5H247.08v-5h-1.33v-2.84H243.3v2.84h-1.55L241.69,206l-.06,9.4-.58,93.13q-8.69.92-16.84,1.87v11.14h-1.13v-11c-6.27.74-12.32,1.5-18.1,2.26v8.43h-1.13V313q-7.6,1-14.63,2v8.62c1.29,1.69,2.63,3.33,4,4.91q24.08-3.42,47.7-5.89l-.21,33.75c1.11.24,2.23.46,3.35.65.48.09,1,.16,1.45.24l1.53.23V340.43l6.55,5.95,2.13,1.93,10.72,9.75,1.15-.1c.74-.06,1.47-.14,2.2-.23,1.39-.17,2.77-.37,4.14-.59l-.23-37.57q31.14-2.55,61-3.69A88.62,88.62,0,0,0,341.78,301.57Zm-74.15,52.78c-2.29-1.94-5.8-5-9.4-8.2l9.4-8.26Zm0-21.2-11.65,11c-3.43-3.05-6.71-6-8.9-8V322q10.33-1,20.55-1.92Zm0-27.12q-10.59.9-20.55,1.91V290.47l8.88-8.29,11.67,12ZM247.08,287V273.08l6.81,7Zm20.55,2.6-9.41-9.48,9.41-8.8Zm0-53.24v29.86l-11.58,11.71-9-9v-37.6L245.53,233v-3.09l1.55-1.8V207.54l9.36,9.76-9.36,10.83v3.12L258,218.87l9.68,10.1Zm0-11.92c-2-1.85-4.81-4.68-7.78-7.68l7.78-8.87Zm0-19.59h-.38l-8.95,10.35c-3.92-4-7.84-8-10.11-10.35h-1.11v-1.15l1.11,1.15h19.06l.38-.44Z" fill="#fff"/><rect x="450.38" y="182.96" width="3.52" height="26.21" fill="#231f20"/><rect x="463.46" y="182.96" width="3.52" height="26.21" fill="#231f20"/><rect x="476.55" y="182.96" width="3.52" height="26.21" fill="#231f20"/><path d="M507.6,209.86a11.3,11.3,0,0,0,1.22-5.44V183H505.3v21.35a6.89,6.89,0,0,1-1.65,5.06,6.16,6.16,0,0,1-4.19,1.79v3.41a10.54,10.54,0,0,0,4.83-1.29A8.34,8.34,0,0,0,507.6,209.86Z" fill="#231f20"/><path d="M520.67,205.62a13.47,13.47,0,0,0,4.26,2.82,13.63,13.63,0,0,0,10.37,0,13.94,13.94,0,0,0,4.28-2.87,13.53,13.53,0,0,0,2.92-4.26,13,13,0,0,0,1-5.22,12.73,12.73,0,0,0-1-5.13,14,14,0,0,0-7.2-7.21,13.1,13.1,0,0,0-10.37,0,13.82,13.82,0,0,0-7.14,7.21,12.88,12.88,0,0,0-1,5.13,13.31,13.31,0,0,0,1,5.29A13.1,13.1,0,0,0,520.67,205.62Zm.44-13.4a9.66,9.66,0,0,1,2.06-3.21,10.12,10.12,0,0,1,3.12-2.17,9.66,9.66,0,0,1,7.65,0,9.92,9.92,0,0,1,3.12,2.16,10.11,10.11,0,0,1,2.86,7.1,9.86,9.86,0,0,1-.76,3.9,10.6,10.6,0,0,1-2.07,3.17,9.4,9.4,0,0,1-6.88,2.94,9.5,9.5,0,0,1-3.85-.78,9.77,9.77,0,0,1-3.11-2.16,10.16,10.16,0,0,1-2.11-3.17,9.74,9.74,0,0,1-.76-3.86A10.36,10.36,0,0,1,521.11,192.22Z" fill="#231f20"/><path d="M555,199.53h3.88c.3,0,.58,0,.86,0l6.18,9.68H570L563.4,198.6a7.32,7.32,0,0,0,3.88-4.48,10.41,10.41,0,0,0,.45-3,8.16,8.16,0,0,0-.71-3.5,7.2,7.2,0,0,0-2-2.54,8.49,8.49,0,0,0-2.93-1.56,12.35,12.35,0,0,0-3.68-.52h-7v26.21H555Zm0-13.2h4.06a5.33,5.33,0,0,1,2.34.47,4.63,4.63,0,0,1,2.43,2.77,5.47,5.47,0,0,1,.27,1.65,5.78,5.78,0,0,1-.25,1.63,4.89,4.89,0,0,1-.83,1.62,4.26,4.26,0,0,1-1.62,1.21,6.15,6.15,0,0,1-2.59.47H555Z" fill="#231f20"/><polygon points="580.86 190.48 600.1 210 600.21 210 600.21 182.96 596.73 182.96 596.8 201.93 577.59 182.16 577.41 182.16 577.41 209.17 580.92 209.17 580.86 190.48" fill="#231f20"/><path d="M613.43,202.28h10.11l2.7,6.89h4l-11.42-27.3h-.22l-11.46,27.3h3.45Zm1.25-3,3.9-9.57,3.76,9.57Z" fill="#231f20"/><path d="M650.58,208.28a12.79,12.79,0,0,0,4.16-2.55,12.11,12.11,0,0,0,2.84-4,13.13,13.13,0,0,0,1-5.33,15.36,15.36,0,0,0-.78-4.73,12.79,12.79,0,0,0-2.45-4.33,11.9,11.9,0,0,0-4.41-3.16,16.58,16.58,0,0,0-6.61-1.19h-7.14v26.21h8.41A13.78,13.78,0,0,0,650.58,208.28Zm-9.84-2.48V186.33h4.53a10.72,10.72,0,0,1,3.67.63,9.67,9.67,0,0,1,3.11,1.87,8.66,8.66,0,0,1,2.18,3.06,10.65,10.65,0,0,1,.8,4.26,10.27,10.27,0,0,1-.77,4.08,8.33,8.33,0,0,1-2.12,3,9.44,9.44,0,0,1-3.19,1.89,11.94,11.94,0,0,1-4,.65Z" fill="#231f20"/><path d="M668.79,202.28h10.1l2.71,6.89h4l-11.42-27.3H674l-11.46,27.3H666Zm1.24-3,3.91-9.57,3.76,9.57Z" fill="#231f20"/><path d="M701.34,205.92a6.81,6.81,0,0,1-2.45.46,8.86,8.86,0,0,1-2.39-.35,13.68,13.68,0,0,1-2.36-.9,15.85,15.85,0,0,1-2-1.18l-1.56,2.75A21,21,0,0,0,693,208a16.73,16.73,0,0,0,2.92,1,13.3,13.3,0,0,0,3.32.4,10,10,0,0,0,4.57-1,7.06,7.06,0,0,0,4-6.45,7.74,7.74,0,0,0-.56-3.16,6.26,6.26,0,0,0-1.52-2.14,9.18,9.18,0,0,0-2.16-1.45q-1.2-.57-2.43-1.05c-.94-.36-1.85-.75-2.72-1.16a6.76,6.76,0,0,1-2.1-1.47,2.92,2.92,0,0,1-.8-2.08,3.15,3.15,0,0,1,1.25-2.61,5.35,5.35,0,0,1,3.36-1,10.28,10.28,0,0,1,3.12.51,20.11,20.11,0,0,1,2.93,1.19l1.34-2.68a15.83,15.83,0,0,0-3.42-1.52,14.88,14.88,0,0,0-4.48-.62,9.39,9.39,0,0,0-4,1,7,7,0,0,0-2.73,2.43,6.46,6.46,0,0,0-1,3.61,6,6,0,0,0,.65,2.9,6.24,6.24,0,0,0,1.74,2,11.58,11.58,0,0,0,2.36,1.38c.84.37,1.68.72,2.5,1a21.39,21.39,0,0,1,2.46,1.14,6.13,6.13,0,0,1,1.87,1.53,3.46,3.46,0,0,1,.71,2.23,3.75,3.75,0,0,1-.8,2.5A4.7,4.7,0,0,1,701.34,205.92Z" fill="#231f20"/><path d="M463.74,249.3a12.74,12.74,0,0,0,4.15-2.55,11.77,11.77,0,0,0,2.84-4,13.08,13.08,0,0,0,1-5.32,15.13,15.13,0,0,0-.78-4.74,12.88,12.88,0,0,0-2.45-4.33,12,12,0,0,0-4.4-3.15,16.45,16.45,0,0,0-6.62-1.2h-7.14v26.21h8.41A13.66,13.66,0,0,0,463.74,249.3Zm-9.85-2.48V227.35h4.54a10.44,10.44,0,0,1,3.66.64,9.52,9.52,0,0,1,3.12,1.86,8.9,8.9,0,0,1,2.17,3.07,11.54,11.54,0,0,1,0,8.34,8.63,8.63,0,0,1-2.12,3,9.54,9.54,0,0,1-3.19,1.89,12,12,0,0,1-4,.65Z" fill="#231f20"/><path d="M478.33,246.64a13.28,13.28,0,0,0,9.46,3.84,13,13,0,0,0,5.17-1,13.72,13.72,0,0,0,4.27-2.87,13.16,13.16,0,0,0,2.92-4.25,13,13,0,0,0,1.05-5.23,12.64,12.64,0,0,0-1.05-5.12,13.62,13.62,0,0,0-2.92-4.28,13.93,13.93,0,0,0-4.27-2.94,13.1,13.1,0,0,0-10.37,0,13.88,13.88,0,0,0-7.14,7.22,12.81,12.81,0,0,0-1,5.12,13.4,13.4,0,0,0,1,5.3A13.06,13.06,0,0,0,478.33,246.64Zm.43-13.4a9.7,9.7,0,0,1,2.07-3.2,9.92,9.92,0,0,1,3.12-2.18,9.27,9.27,0,0,1,3.84-.8,9.41,9.41,0,0,1,3.81.78,9.77,9.77,0,0,1,3.11,2.16,10.12,10.12,0,0,1,2.11,3.21,10,10,0,0,1,.76,3.89,9.79,9.79,0,0,1-.76,3.9,10.47,10.47,0,0,1-2.07,3.17A9.64,9.64,0,0,1,484,246.33a9.92,9.92,0,0,1-3.12-2.16,10.19,10.19,0,0,1-2.1-3.17,9.7,9.7,0,0,1-.76-3.86A10.56,10.56,0,0,1,478.76,233.24Z" fill="#231f20"/><rect x="515.31" y="223.98" width="3.52" height="26.21" fill="#231f20"/><polygon points="528.18 231.5 547.43 251.03 547.53 251.03 547.53 223.98 544.06 223.98 544.13 242.95 524.91 223.18 524.73 223.18 524.73 250.19 528.25 250.19 528.18 231.5" fill="#231f20"/><polygon points="561.89 250.19 561.89 227.35 568.93 227.35 568.93 223.98 551.52 223.98 551.52 227.35 558.38 227.35 558.38 250.19 561.89 250.19" fill="#231f20"/><polygon points="590.42 246.82 576.39 246.82 576.39 238.7 588.47 238.7 588.47 235.33 576.39 235.33 576.39 227.35 589.91 227.35 589.91 223.98 572.88 223.98 572.88 250.19 590.42 250.19 590.42 246.82" fill="#231f20"/><path d="M609.17,237.85a7.36,7.36,0,0,0,1.5-2.7,10.48,10.48,0,0,0,.45-3.05,8.19,8.19,0,0,0-.7-3.5,7.19,7.19,0,0,0-2-2.53,8.45,8.45,0,0,0-2.94-1.56,12.3,12.3,0,0,0-3.68-.53h-7v26.21h3.52v-9.64h3.88c.3,0,.58,0,.86,0l6.17,9.67h4.06l-6.57-10.57A7.51,7.51,0,0,0,609.17,237.85Zm-7-.67H598.4v-9.83h4.06a5.33,5.33,0,0,1,2.34.47,4.77,4.77,0,0,1,1.56,1.2,5,5,0,0,1,.87,1.58,5.47,5.47,0,0,1,.27,1.65,5.86,5.86,0,0,1-.26,1.63,4.66,4.66,0,0,1-.83,1.61,4.24,4.24,0,0,1-1.61,1.22A6.34,6.34,0,0,1,602.21,237.18Z" fill="#231f20"/><polygon points="636.53 242.95 617.32 223.18 617.14 223.18 617.14 250.19 620.66 250.19 620.59 231.5 639.84 251.03 639.94 251.03 639.94 223.98 636.47 223.98 636.53 242.95" fill="#231f20"/><path d="M654.7,222.89l-11.46,27.3h3.45l2.81-6.89h10.11l2.7,6.89h4l-11.42-27.3Zm-4,17.37,3.91-9.57,3.75,9.57Z" fill="#231f20"/><polygon points="676.05 250.19 676.05 227.35 683.09 227.35 683.09 223.98 665.68 223.98 665.68 227.35 672.54 227.35 672.54 250.19 676.05 250.19" fill="#231f20"/><path d="M684.28,237.1a13.57,13.57,0,0,0,1,5.3,12.93,12.93,0,0,0,2.89,4.24,13.5,13.5,0,0,0,4.26,2.83,13.35,13.35,0,0,0,5.2,1,13,13,0,0,0,5.17-1,13.72,13.72,0,0,0,4.27-2.87,13.16,13.16,0,0,0,2.92-4.25,13,13,0,0,0,1.05-5.23A12.64,12.64,0,0,0,710,232a13.62,13.62,0,0,0-2.92-4.28,13.93,13.93,0,0,0-4.27-2.94,13.1,13.1,0,0,0-10.37,0,13.95,13.95,0,0,0-7.15,7.22A13,13,0,0,0,684.28,237.1Zm4.35-3.86a9.54,9.54,0,0,1,2.07-3.2,9.92,9.92,0,0,1,3.12-2.18,9.27,9.27,0,0,1,3.84-.8,9.41,9.41,0,0,1,3.81.78,9.77,9.77,0,0,1,3.11,2.16,10.11,10.11,0,0,1,2.87,7.1,10,10,0,0,1-.76,3.9,10.47,10.47,0,0,1-2.07,3.17,9.64,9.64,0,0,1-10.73,2.16,9.81,9.81,0,0,1-3.12-2.16,10.19,10.19,0,0,1-2.1-3.17,9.7,9.7,0,0,1-.76-3.86A10.56,10.56,0,0,1,688.63,233.24Z" fill="#231f20"/><polygon points="476.44 291.22 476.44 264.17 476.37 264.17 463.31 282.48 450.41 264.17 450.38 264.17 450.38 291.22 453.79 291.22 453.79 274.78 463.21 287.92 463.28 287.92 472.96 274.23 472.96 291.22 476.44 291.22" fill="#231f20"/><polygon points="480.61 291.22 498.16 291.22 498.16 287.84 484.13 287.84 484.13 279.72 496.2 279.72 496.2 276.35 484.13 276.35 484.13 268.38 497.65 268.38 497.65 265 480.61 265 480.61 291.22" fill="#231f20"/><polygon points="490.8 258.55 487.79 263.41 489.93 263.41 494.53 258.55 490.8 258.55" fill="#231f20"/><path d="M519,269.35a12,12,0,0,0-4.4-3.15A16.45,16.45,0,0,0,508,265h-7.14v26.22h8.41a13.88,13.88,0,0,0,4.95-.89,12.77,12.77,0,0,0,4.15-2.56,11.83,11.83,0,0,0,2.84-4,13.13,13.13,0,0,0,1-5.33,15.07,15.07,0,0,0-.78-4.73A12.83,12.83,0,0,0,519,269.35Zm-1.12,12.93a8.58,8.58,0,0,1-2.12,3,9.35,9.35,0,0,1-3.19,1.88,11.8,11.8,0,0,1-4,.65h-4.21V268.38h4.54a10.67,10.67,0,0,1,3.66.63,9.54,9.54,0,0,1,3.12,1.87,8.76,8.76,0,0,1,2.17,3.06,11.54,11.54,0,0,1,0,8.34Z" fill="#231f20"/><rect x="524.8" y="265" width="3.52" height="26.21" fill="#231f20"/><path d="M538.56,290.42a14.33,14.33,0,0,0,5.49,1.09,14.16,14.16,0,0,0,3.29-.37,13.14,13.14,0,0,0,2.62-.9,16.12,16.12,0,0,0,1.78-1l-1.49-3.12a10.77,10.77,0,0,1-2.57,1.38,9.61,9.61,0,0,1-3.55.61,10,10,0,0,1-4-.76,8.91,8.91,0,0,1-3-2.1,9.32,9.32,0,0,1-1.92-3.17,11.41,11.41,0,0,1-.67-4,10.54,10.54,0,0,1,.74-3.94,10.26,10.26,0,0,1,2-3.2,9.21,9.21,0,0,1,3-2.14,8.78,8.78,0,0,1,3.63-.76,8.62,8.62,0,0,1,3.42.65,14.89,14.89,0,0,1,2.63,1.38l1.41-3.27a14.58,14.58,0,0,0-3.29-1.5,13.73,13.73,0,0,0-4.28-.64,13.09,13.09,0,0,0-5.21,1,12.33,12.33,0,0,0-4.11,2.85,12.91,12.91,0,0,0-2.7,4.31,14.92,14.92,0,0,0-1,5.42,14,14,0,0,0,.92,5.06,12.94,12.94,0,0,0,2.63,4.18A12.28,12.28,0,0,0,538.56,290.42Z" fill="#231f20"/><path d="M560.82,265.78a14,14,0,0,0-4.26,2.94,13.79,13.79,0,0,0-2.88,4.28,12.88,12.88,0,0,0-1,5.13,13.35,13.35,0,0,0,1,5.29,13.06,13.06,0,0,0,2.88,4.24,13.5,13.5,0,0,0,4.26,2.83,13.21,13.21,0,0,0,5.2,1,13,13,0,0,0,5.17-1,13.91,13.91,0,0,0,4.28-2.86,13.37,13.37,0,0,0,2.92-4.26,13,13,0,0,0,1.05-5.22,12.73,12.73,0,0,0-1.05-5.13,13.91,13.91,0,0,0-2.92-4.28,14.33,14.33,0,0,0-4.28-2.94,13.1,13.1,0,0,0-10.37,0ZM573,271a10.26,10.26,0,0,1,2.1,3.21,10,10,0,0,1,.76,3.9,9.86,9.86,0,0,1-.76,3.9A10.9,10.9,0,0,1,573,285.2a9.49,9.49,0,0,1-6.89,2.93,9.33,9.33,0,0,1-3.85-.78,9.58,9.58,0,0,1-3.11-2.15A10.28,10.28,0,0,1,557,282a10,10,0,0,1-.76-3.87,10.35,10.35,0,0,1,.73-3.89,9.66,9.66,0,0,1,2.06-3.21,10.32,10.32,0,0,1,3.12-2.18,9.71,9.71,0,0,1,7.65,0A9.89,9.89,0,0,1,573,271Z" fill="#231f20"/><path d="M608.22,269.35a12,12,0,0,0-4.4-3.15,16.45,16.45,0,0,0-6.62-1.2h-7.14v26.22h8.41a13.88,13.88,0,0,0,4.95-.89,12.77,12.77,0,0,0,4.15-2.56,11.85,11.85,0,0,0,2.85-4,13.3,13.3,0,0,0,1-5.33,15.07,15.07,0,0,0-.78-4.73A12.83,12.83,0,0,0,608.22,269.35Zm-1.12,12.93a8.58,8.58,0,0,1-2.12,3,9.35,9.35,0,0,1-3.19,1.88,11.75,11.75,0,0,1-4,.65h-4.2V268.38h4.53a10.67,10.67,0,0,1,3.66.63,9.54,9.54,0,0,1,3.12,1.87,8.64,8.64,0,0,1,2.17,3.06,10.61,10.61,0,0,1,.8,4.26A10.34,10.34,0,0,1,607.1,282.28Z" fill="#231f20"/><polygon points="617.5 279.72 629.58 279.72 629.58 276.35 617.5 276.35 617.5 268.38 631.02 268.38 631.02 265 613.99 265 613.99 291.22 631.53 291.22 631.53 287.84 617.5 287.84 617.5 279.72" fill="#231f20"/><polygon points="655.27 282.48 642.37 264.17 642.34 264.17 642.34 291.22 645.74 291.22 645.74 274.78 655.17 287.92 655.24 287.92 664.92 274.23 664.92 291.22 668.4 291.22 668.4 264.17 668.33 264.17 655.27 282.48" fill="#231f20"/><path d="M684.35,281.75h5.22V287a8.05,8.05,0,0,1-2.24.78,12.43,12.43,0,0,1-2.65.28,11.51,11.51,0,0,1-4.11-.71,9.24,9.24,0,0,1-3.21-2,8.55,8.55,0,0,1-2.07-3.06,10.31,10.31,0,0,1-.72-3.91,11.54,11.54,0,0,1,.72-4.19,8.81,8.81,0,0,1,2.07-3.19,9.06,9.06,0,0,1,3.22-2,12,12,0,0,1,4.21-.71,10.1,10.1,0,0,1,2.1.24,17.64,17.64,0,0,1,2.19.59,9.62,9.62,0,0,1,1.8.8l1.2-3.22a15.33,15.33,0,0,0-3.45-1.38,15.87,15.87,0,0,0-4.24-.55,14.3,14.3,0,0,0-5.15.93,12.58,12.58,0,0,0-7.23,7.1,15.3,15.3,0,0,0-1.07,5.86,13.4,13.4,0,0,0,1,5.11,11.87,11.87,0,0,0,2.76,4.1,12.77,12.77,0,0,0,4.31,2.72,15.61,15.61,0,0,0,5.67,1,14.17,14.17,0,0,0,2.34-.22,20.52,20.52,0,0,0,2.43-.58,16.82,16.82,0,0,0,2.16-.82,6.59,6.59,0,0,0,1.52-.92V278.38h-8.74Z" fill="#231f20"/><polygon points="711.98 268.38 711.98 265 696.43 265 696.43 291.22 699.94 291.22 699.94 280.09 710.49 280.09 710.49 276.75 699.94 276.75 699.94 268.38 711.98 268.38" fill="#231f20"/><path d="M459.22,304.94l-11.45,27.3h3.44l2.82-6.89h10.1l2.71,6.89h4l-11.42-27.3Zm-4,17.37,3.91-9.57,3.76,9.57Z" fill="#231f20"/><path d="M490.26,319.89a7.2,7.2,0,0,0,1.5-2.7,10.41,10.41,0,0,0,.45-3,8.16,8.16,0,0,0-.7-3.5,7.32,7.32,0,0,0-2-2.54,8.45,8.45,0,0,0-2.94-1.56,12.31,12.31,0,0,0-3.68-.52h-7v26.21h3.52V322.6h3.88c.3,0,.58,0,.86,0l6.17,9.68h4.06l-6.57-10.57A7.43,7.43,0,0,0,490.26,319.89Zm-7-.67h-3.81V309.4h4.06a5.33,5.33,0,0,1,2.34.47,4.63,4.63,0,0,1,2.43,2.77,5.47,5.47,0,0,1,.27,1.65,5.81,5.81,0,0,1-.26,1.63,4.62,4.62,0,0,1-.83,1.62,4.22,4.22,0,0,1-1.61,1.21A6.18,6.18,0,0,1,483.3,319.22Z" fill="#231f20"/><path d="M513.15,319.8a9.18,9.18,0,0,0-2.16-1.45q-1.19-.57-2.43-1.05c-.94-.36-1.84-.75-2.71-1.16a6.81,6.81,0,0,1-2.11-1.47,2.92,2.92,0,0,1-.79-2.08A3.12,3.12,0,0,1,504.2,310a5.3,5.3,0,0,1,3.35-1,10.28,10.28,0,0,1,3.12.51,19.06,19.06,0,0,1,2.93,1.2L515,308a16.14,16.14,0,0,0-3.43-1.52,14.83,14.83,0,0,0-4.48-.62,9.39,9.39,0,0,0-4,1,7,7,0,0,0-2.73,2.43,6.46,6.46,0,0,0-1,3.61,6,6,0,0,0,.65,2.9,6.24,6.24,0,0,0,1.74,2,11.58,11.58,0,0,0,2.36,1.38c.85.37,1.68.72,2.5,1a22.37,22.37,0,0,1,2.47,1.14,6.2,6.2,0,0,1,1.86,1.53,3.46,3.46,0,0,1,.71,2.23,3.75,3.75,0,0,1-.8,2.5,4.7,4.7,0,0,1-2,1.39,6.81,6.81,0,0,1-2.45.46,8.86,8.86,0,0,1-2.39-.35,13.68,13.68,0,0,1-2.36-.9,15.85,15.85,0,0,1-2-1.18l-1.56,2.75a21,21,0,0,0,2.39,1.33,16,16,0,0,0,2.92,1,13.3,13.3,0,0,0,3.32.4,10,10,0,0,0,4.57-1,7.09,7.09,0,0,0,4-6.45,7.73,7.73,0,0,0-.57-3.16A6.26,6.26,0,0,0,513.15,319.8Z" fill="#231f20"/><polygon points="536.48 306.03 532.96 306.03 532.96 332.24 549.78 332.24 549.78 328.87 536.48 328.87 536.48 306.03" fill="#231f20"/><polygon points="560.08 324.96 552.54 306.03 548.37 306.03 559.9 333.44 571.46 306.03 567.37 306.03 560.08 324.96" fill="#231f20"/><polygon points="574.98 309.4 581.83 309.4 581.83 332.24 585.35 332.24 585.35 309.4 592.38 309.4 592.38 306.03 574.98 306.03 574.98 309.4" fill="#231f20"/><polygon points="496.62 388.17 499.94 388.17 499.94 408.96 501.63 408.96 501.63 386.56 496.62 386.56 496.62 388.17" fill="#52a3a6" stroke="#52a3a6" stroke-miterlimit="10" stroke-width="0.25"/><rect x="505.98" y="401.35" width="6.35" height="1.44" fill="#52a3a6" stroke="#52a3a6" stroke-miterlimit="10" stroke-width="0.25"/><path d="M526.72,396.53a5.82,5.82,0,0,0-2.14-1.17,7.36,7.36,0,0,0-2.54-.29,5.58,5.58,0,0,0-.72,0l6.21-8.55H516.21v1.58h8.48l-6.42,8.75.13.1a8.25,8.25,0,0,1,1.41-.48,7.18,7.18,0,0,1,1.78-.21,5.56,5.56,0,0,1,3.95,1.38,4.9,4.9,0,0,1,1.47,3.77,6.4,6.4,0,0,1-.79,3.22,5.48,5.48,0,0,1-2.17,2.18,6.4,6.4,0,0,1-3.18.78,5.8,5.8,0,0,1-2.57-.6,5.93,5.93,0,0,1-2-1.5l-.86,1.38a7.5,7.5,0,0,0,2.44,1.69,7.28,7.28,0,0,0,3,.64,8.2,8.2,0,0,0,4-1,7.19,7.19,0,0,0,2.8-2.7,7.76,7.76,0,0,0,1-4.06,7.51,7.51,0,0,0-.53-2.95A5.52,5.52,0,0,0,526.72,396.53Z" fill="#52a3a6" stroke="#52a3a6" stroke-miterlimit="10" stroke-width="0.25"/><path d="M544.65,405.19a7.53,7.53,0,0,1-1.63,5.18,5.79,5.79,0,0,1-4.1,2v1.61a7.66,7.66,0,0,0,3.75-1.08,7.19,7.19,0,0,0,2.66-2.94,9.86,9.86,0,0,0,1-4.63V384.6h-1.68Z" fill="#52a3a6" stroke="#52a3a6" stroke-miterlimit="10" stroke-width="0.25"/><path d="M567.74,400.73a7.36,7.36,0,0,1-.88,3.67,6.13,6.13,0,0,1-2.4,2.39,7.11,7.11,0,0,1-3.48.84,6.92,6.92,0,0,1-3.43-.84,6.24,6.24,0,0,1-2.39-2.39,7.35,7.35,0,0,1-.87-3.67V384.6h-1.68v16.23a8.89,8.89,0,0,0,1.09,4.53,7.38,7.38,0,0,0,3,2.88,9.62,9.62,0,0,0,8.54,0,7.47,7.47,0,0,0,3-2.88,8.79,8.79,0,0,0,1.11-4.53V384.6h-1.64Z" fill="#52a3a6" stroke="#52a3a6" stroke-miterlimit="10" stroke-width="0.25"/><polygon points="577.34 384.6 575.66 384.6 575.66 408.96 590.69 408.96 590.69 407.35 577.34 407.35 577.34 384.6" fill="#52a3a6" stroke="#52a3a6" stroke-miterlimit="10" stroke-width="0.25"/><polygon points="611.38 395.93 596.69 395.93 596.69 384.6 595.01 384.6 595.01 408.96 596.69 408.96 596.69 397.5 611.38 397.5 611.38 408.96 613.06 408.96 613.06 384.6 611.38 384.6 611.38 395.93" fill="#52a3a6" stroke="#52a3a6" stroke-miterlimit="10" stroke-width="0.25"/><path d="M639.17,388a12.5,12.5,0,0,0-4-2.71,12.14,12.14,0,0,0-4.84-1,12,12,0,0,0-4.82,1,12.77,12.77,0,0,0-6.64,6.69,12.13,12.13,0,0,0-1,4.82,12.54,12.54,0,0,0,1,4.94,11.93,11.93,0,0,0,2.68,3.94,12.13,12.13,0,0,0,4,2.61,12.47,12.47,0,0,0,4.82.93,12.34,12.34,0,0,0,8.82-3.64,12.69,12.69,0,0,0,2.69-4,12.34,12.34,0,0,0,0-9.64A12.89,12.89,0,0,0,639.17,388Zm1.11,13a10.91,10.91,0,0,1-2.31,3.43,11.23,11.23,0,0,1-3.43,2.32,10.6,10.6,0,0,1-4.22.84,10.28,10.28,0,0,1-4.14-.84,11.14,11.14,0,0,1-3.41-2.32,10.56,10.56,0,0,1-2.3-3.43,10.69,10.69,0,0,1-.82-4.19,10.9,10.9,0,0,1,6.48-10,10.1,10.1,0,0,1,4.22-.88,10.37,10.37,0,0,1,4.19.86,10.94,10.94,0,0,1,5.74,5.82,11,11,0,0,1,0,8.42Z" fill="#52a3a6" stroke="#52a3a6" stroke-miterlimit="10" stroke-width="0.25"/><path d="M661.55,404.16c1.13-1.19,2.19-2.39,3.16-3.6a19.68,19.68,0,0,0,2.35-3.67,8.62,8.62,0,0,0,.89-3.74,7.44,7.44,0,0,0-.81-3.48,6.13,6.13,0,0,0-2.26-2.47,6.28,6.28,0,0,0-3.41-.91,7.2,7.2,0,0,0-3.74.91,5.94,5.94,0,0,0-2.34,2.43,7.35,7.35,0,0,0-.79,3.38,7.18,7.18,0,0,0,.23,1.78,5.77,5.77,0,0,0,.67,1.63,5.33,5.33,0,0,0,1.06,1.29l1-.93a4.47,4.47,0,0,1-1-1.64,6.61,6.61,0,0,1-.34-2.16,6.35,6.35,0,0,1,.24-1.67,5.12,5.12,0,0,1,.81-1.66,4.11,4.11,0,0,1,1.52-1.29,5.32,5.32,0,0,1,2.44-.5,5.21,5.21,0,0,1,1.7.3,4.6,4.6,0,0,1,2.81,2.59,6.13,6.13,0,0,1,.47,2.54,7.94,7.94,0,0,1-1,3.6,21.87,21.87,0,0,1-2.55,3.82q-1.62,2-3.66,4.05t-4.24,4.2h14.35v-1.61H658.56Z" fill="#52a3a6" stroke="#52a3a6" stroke-miterlimit="10" stroke-width="0.25"/><path d="M686.62,389.67a8.53,8.53,0,0,0-2.94-2.44,8.68,8.68,0,0,0-4-.88,9,9,0,0,0-4,.85,8.15,8.15,0,0,0-3,2.38,10.89,10.89,0,0,0-1.81,3.62,15.46,15.46,0,0,0-.62,4.51,15.18,15.18,0,0,0,.63,4.44,11.66,11.66,0,0,0,1.84,3.66,8.31,8.31,0,0,0,3,2.45,8.83,8.83,0,0,0,4,.88,8.68,8.68,0,0,0,4-.88,8.42,8.42,0,0,0,2.94-2.44,11.27,11.27,0,0,0,1.83-3.63,15.4,15.4,0,0,0,.63-4.48,15,15,0,0,0-.63-4.42A11.22,11.22,0,0,0,686.62,389.67Zm-.23,13.27a7.75,7.75,0,0,1-2.71,3.4,6.9,6.9,0,0,1-4,1.18,6.79,6.79,0,0,1-4-1.18,7.69,7.69,0,0,1-2.68-3.4,14,14,0,0,1,0-10.41,7.86,7.86,0,0,1,2.68-3.4,6.5,6.5,0,0,1,4-1.16,6.61,6.61,0,0,1,4,1.16,7.92,7.92,0,0,1,2.71,3.4,12.67,12.67,0,0,1,1,5.18A12.88,12.88,0,0,1,686.39,402.94Z" fill="#52a3a6" stroke="#52a3a6" stroke-miterlimit="10" stroke-width="0.25"/><path d="M697.51,404.16q1.69-1.79,3.15-3.6a18.7,18.7,0,0,0,2.35-3.67,8.49,8.49,0,0,0,.9-3.74,7.44,7.44,0,0,0-.81-3.48,6.15,6.15,0,0,0-2.27-2.47,6.25,6.25,0,0,0-3.41-.91,7.22,7.22,0,0,0-3.74.91,5.92,5.92,0,0,0-2.33,2.43,7.52,7.52,0,0,0-.57,5.16,5.77,5.77,0,0,0,.67,1.63,5.37,5.37,0,0,0,1.07,1.29l1-.93a4.59,4.59,0,0,1-1-1.64,6.51,6.51,0,0,1-.1-3.83,5.3,5.3,0,0,1,.8-1.66,4.22,4.22,0,0,1,1.53-1.29,5.29,5.29,0,0,1,2.44-.5,5.2,5.2,0,0,1,1.69.3,4.58,4.58,0,0,1,2.82,2.59,6.14,6.14,0,0,1,.46,2.54,7.92,7.92,0,0,1-.94,3.6,21.41,21.41,0,0,1-2.56,3.82q-1.61,2-3.65,4.05c-1.36,1.39-2.78,2.79-4.24,4.2h14.34v-1.61H694.52C695.49,406.3,696.48,405.24,697.51,404.16Z" fill="#52a3a6" stroke="#52a3a6" stroke-miterlimit="10" stroke-width="0.25"/><polygon points="706.96 388.17 710.29 388.17 710.29 408.96 711.97 408.96 711.97 386.56 706.96 386.56 706.96 388.17" fill="#52a3a6" stroke="#52a3a6" stroke-miterlimit="10" stroke-width="0.25"/><polygon points="450.58 352.82 456.25 352.82 456.25 372.45 461.02 372.45 461.02 352.82 466.92 352.82 466.92 348.21 450.58 348.21 450.58 352.82" fill="#52a3a6" stroke="#52a3a6" stroke-miterlimit="10" stroke-width="0.25"/><path d="M489,351.65a12.94,12.94,0,0,0-4-2.72,12.08,12.08,0,0,0-9.58,0,12.72,12.72,0,0,0-6.59,6.69,11.92,11.92,0,0,0-1,4.74,12,12,0,0,0,1,4.81,12.36,12.36,0,0,0,6.59,6.59,12.43,12.43,0,0,0,9.58,0,12.56,12.56,0,0,0,4-2.65,12,12,0,0,0,2.7-3.94,11.89,11.89,0,0,0,1-4.81,11.76,11.76,0,0,0-1-4.74A12.49,12.49,0,0,0,489,351.65Zm-1.83,11.73a8,8,0,0,1-1.54,2.47,7.06,7.06,0,0,1-5.21,2.26,7.31,7.31,0,0,1-3-.6,7.53,7.53,0,0,1-2.41-1.66,7.7,7.7,0,0,1-1.61-2.47,7.92,7.92,0,0,1-.58-3,8.36,8.36,0,0,1,.56-3.06,7.88,7.88,0,0,1,1.58-2.49,7.41,7.41,0,0,1,2.38-1.66,7.29,7.29,0,0,1,8.22,1.66,8.25,8.25,0,0,1,1.58,2.49,8.16,8.16,0,0,1,.57,3.06A7.91,7.91,0,0,1,487.21,363.38Z" fill="#52a3a6" stroke="#52a3a6" stroke-miterlimit="10" stroke-width="0.25"/><path d="M511.15,362a7.69,7.69,0,0,0,1.45-2.7,10.11,10.11,0,0,0,.44-3,8.85,8.85,0,0,0-.62-3.38,7.12,7.12,0,0,0-1.83-2.57,8.41,8.41,0,0,0-3-1.65,13.3,13.3,0,0,0-4.05-.57h-7.35v24.25H501v-7.71h3.18l5.12,7.71h5.57l-5.65-8.82A7,7,0,0,0,511.15,362ZM501,352.82h3.42a4,4,0,0,1,2,.43,2.94,2.94,0,0,1,1.1,1.05,4.07,4.07,0,0,1,.48,1.24,6.15,6.15,0,0,1,.11,1,4.08,4.08,0,0,1-.18,1.14,3.79,3.79,0,0,1-.59,1.17,3.19,3.19,0,0,1-1.14.92,4.05,4.05,0,0,1-1.81.36H501Z" fill="#52a3a6" stroke="#52a3a6" stroke-miterlimit="10" stroke-width="0.25"/><path d="M532.46,362a7.53,7.53,0,0,0,1.45-2.7,10.13,10.13,0,0,0,.45-3,8.67,8.67,0,0,0-.63-3.38,7,7,0,0,0-1.83-2.57,8.32,8.32,0,0,0-3-1.65,13.2,13.2,0,0,0-4-.57h-7.35v24.25h4.78v-7.71h3.18l5.12,7.71h5.57l-5.65-8.82A6.68,6.68,0,0,0,532.46,362Zm-10.16-9.22h3.43a3.92,3.92,0,0,1,2,.43,2.94,2.94,0,0,1,1.1,1.05,3.83,3.83,0,0,1,.48,1.24,5.33,5.33,0,0,1,.12,1,4.08,4.08,0,0,1-.18,1.14,3.83,3.83,0,0,1-.6,1.17,3.07,3.07,0,0,1-1.13.92,4.1,4.1,0,0,1-1.82.36H522.3Z" fill="#52a3a6" stroke="#52a3a6" stroke-miterlimit="10" stroke-width="0.25"/><polygon points="555.84 367.84 543.62 367.84 543.62 362.6 554.02 362.6 554.02 357.99 543.62 357.99 543.62 352.82 555.38 352.82 555.38 348.21 538.84 348.21 538.84 372.45 555.84 372.45 555.84 367.84" fill="#52a3a6" stroke="#52a3a6" stroke-miterlimit="10" stroke-width="0.25"/><path d="M564.5,353a4.18,4.18,0,0,1,2.44-.62,8.26,8.26,0,0,1,2.69.49,18.85,18.85,0,0,1,2.81,1.25l1.81-3.65a16.13,16.13,0,0,0-3.27-1.65,13.73,13.73,0,0,0-4.76-.69,9.19,9.19,0,0,0-4,1,6.63,6.63,0,0,0-2.65,2.46,6.86,6.86,0,0,0-.94,3.65,5.9,5.9,0,0,0,2.32,5,12.48,12.48,0,0,0,2.23,1.37c.79.37,1.56.7,2.3,1a10.35,10.35,0,0,1,1.77.85,5,5,0,0,1,1.28,1.09,2,2,0,0,1,.48,1.32,2.22,2.22,0,0,1-.58,1.64,3.1,3.1,0,0,1-1.45.84,6.14,6.14,0,0,1-1.73.25,7.76,7.76,0,0,1-1.87-.26,11.27,11.27,0,0,1-2-.74,11.43,11.43,0,0,1-1.86-1.11l-2.11,3.73a14.53,14.53,0,0,0,2.67,1.46,14.7,14.7,0,0,0,5.63,1.14,9.78,9.78,0,0,0,4.55-1,7,7,0,0,0,2.8-2.56,6.44,6.44,0,0,0,.95-3.42,7.75,7.75,0,0,0-.49-2.95,6,6,0,0,0-1.32-2,7.77,7.77,0,0,0-1.86-1.35,18.38,18.38,0,0,0-2.09-.94,23.39,23.39,0,0,1-2.23-1,6.5,6.5,0,0,1-1.74-1.2,2.12,2.12,0,0,1-.68-1.53A2.16,2.16,0,0,1,564.5,353Z" fill="#52a3a6" stroke="#52a3a6" stroke-miterlimit="10" stroke-width="0.25"/><polygon points="606.9 348.21 601.24 348.21 596.04 361.88 590.5 348.21 584.76 348.21 595.83 373.57 606.9 348.21" fill="#52a3a6" stroke="#52a3a6" stroke-miterlimit="10" stroke-width="0.25"/><polygon points="626.8 367.84 614.58 367.84 614.58 362.6 624.99 362.6 624.99 357.99 614.58 357.99 614.58 352.82 626.34 352.82 626.34 348.21 609.8 348.21 609.8 372.45 626.8 372.45 626.8 367.84" fill="#52a3a6" stroke="#52a3a6" stroke-miterlimit="10" stroke-width="0.25"/><path d="M648.07,352.19a11.2,11.2,0,0,0-4.14-2.9,16,16,0,0,0-6.22-1.08h-7.25v24.25h8.43a13.46,13.46,0,0,0,4.68-.81,11.72,11.72,0,0,0,3.89-2.34,11.09,11.09,0,0,0,2.65-3.69,11.68,11.68,0,0,0,1-4.86,14.61,14.61,0,0,0-.72-4.51A11.77,11.77,0,0,0,648.07,352.19Zm-2.51,11.45a5.93,5.93,0,0,1-1.64,2.32,7.31,7.31,0,0,1-2.56,1.41,10.94,10.94,0,0,1-3.29.47h-2.83v-15h3.88a8,8,0,0,1,2,.31,7.09,7.09,0,0,1,2.33,1.14,6.56,6.56,0,0,1,1.91,2.32,8.51,8.51,0,0,1,.77,3.87A8.24,8.24,0,0,1,645.56,363.64Z" fill="#52a3a6" stroke="#52a3a6" stroke-miterlimit="10" stroke-width="0.25"/><path d="M684.35,347.25h-.26l-10.91,25.14-5.61-8.75a6.68,6.68,0,0,0,1.94-1.6,7.53,7.53,0,0,0,1.45-2.7,10.13,10.13,0,0,0,.45-3,8.67,8.67,0,0,0-.63-3.38,7.12,7.12,0,0,0-1.83-2.57,8.32,8.32,0,0,0-3-1.65,13.2,13.2,0,0,0-4.05-.57h-7.35v24.25h4.78v-7.71h3.18l5.12,7.71h10.21l2-4.75h8l1.87,4.75h5.53Zm-25,5.57h3.43a3.92,3.92,0,0,1,2,.43,2.94,2.94,0,0,1,1.1,1.05,3.83,3.83,0,0,1,.48,1.24,5.33,5.33,0,0,1,.12,1,4.08,4.08,0,0,1-.18,1.14,3.83,3.83,0,0,1-.6,1.17,3.07,3.07,0,0,1-1.13.92,4.1,4.1,0,0,1-1.82.36h-3.39Zm22.16,10.87,2.46-5.91,2.33,5.91Z" fill="#52a3a6" stroke="#52a3a6" stroke-miterlimit="10" stroke-width="0.25"/><path d="M710.25,360.81a7.77,7.77,0,0,0-1.86-1.35,18.38,18.38,0,0,0-2.09-.94,23.39,23.39,0,0,1-2.23-1,6.5,6.5,0,0,1-1.74-1.2,2.12,2.12,0,0,1-.68-1.53,2.16,2.16,0,0,1,.89-1.88,4.16,4.16,0,0,1,2.44-.62,8.2,8.2,0,0,1,2.68.49,18.51,18.51,0,0,1,2.82,1.25l1.81-3.65a16.22,16.22,0,0,0-3.28-1.65,13.66,13.66,0,0,0-4.76-.69,9.18,9.18,0,0,0-4,1,6.57,6.57,0,0,0-2.65,2.46,6.86,6.86,0,0,0-.94,3.65,6.16,6.16,0,0,0,.64,2.95,6.31,6.31,0,0,0,1.68,2,11.81,11.81,0,0,0,2.23,1.37c.79.37,1.56.7,2.3,1a9.9,9.9,0,0,1,1.76.85,4.89,4.89,0,0,1,1.29,1.09,2,2,0,0,1,.48,1.32,2.26,2.26,0,0,1-.58,1.64,3.1,3.1,0,0,1-1.45.84,6.14,6.14,0,0,1-1.73.25,7.84,7.84,0,0,1-1.88-.26,11.57,11.57,0,0,1-3.88-1.85l-2.11,3.73a13.91,13.91,0,0,0,2.67,1.46,14.6,14.6,0,0,0,5.63,1.14,9.78,9.78,0,0,0,4.55-1,7,7,0,0,0,2.8-2.56,6.53,6.53,0,0,0,.95-3.42,7.75,7.75,0,0,0-.49-2.95A6,6,0,0,0,710.25,360.81Z" fill="#52a3a6" stroke="#52a3a6" stroke-miterlimit="10" stroke-width="0.25"/></svg>