<?xml version="1.0" encoding="UTF-8" standalone="no"?>
<svg
   xmlns:dc="http://purl.org/dc/elements/1.1/"
   xmlns:cc="http://creativecommons.org/ns#"
   xmlns:rdf="http://www.w3.org/1999/02/22-rdf-syntax-ns#"
   xmlns:svg="http://www.w3.org/2000/svg"
   xmlns="http://www.w3.org/2000/svg"
   xmlns:sodipodi="http://sodipodi.sourceforge.net/DTD/sodipodi-0.dtd"
   xmlns:inkscape="http://www.inkscape.org/namespaces/inkscape"
   id="Layer_1"
   data-name="Layer 1"
   viewBox="0 0 565.26079 393.39299"
   version="1.1"
   sodipodi:docname="logo-wide.svg"
   width="565.2608"
   height="393.39301"
   inkscape:version="0.92.3 (2405546, 2018-03-11)">
  <metadata
     id="metadata954">
    <rdf:RDF>
      <cc:Work
         rdf:about="">
        <dc:format>image/svg+xml</dc:format>
        <dc:type
           rdf:resource="http://purl.org/dc/dcmitype/StillImage" />
        <dc:title>Landscape Cor</dc:title>
      </cc:Work>
    </rdf:RDF>
  </metadata>
  <defs
     id="defs952" />
  <sodipodi:namedview
     pagecolor="#ffffff"
     bordercolor="#666666"
     borderopacity="1"
     objecttolerance="10"
     gridtolerance="10"
     guidetolerance="10"
     inkscape:pageopacity="0"
     inkscape:pageshadow="2"
     inkscape:window-width="1920"
     inkscape:window-height="1017"
     id="namedview950"
     showgrid="false"
     fit-margin-top="0"
     fit-margin-left="0"
     fit-margin-right="0"
     fit-margin-bottom="0"
     inkscape:zoom="0.39645207"
     inkscape:cx="283.84501"
     inkscape:cy="195.04745"
     inkscape:window-x="-8"
     inkscape:window-y="-8"
     inkscape:window-maximized="1"
     inkscape:current-layer="Layer_1" />
  <title
     id="title685">Landscape Cor</title>
  <rect
     x="4.0699983"
     y="267.10553"
     width="3.6900001"
     height="27.469999"
     id="rect687"
     style="fill:#231f20" />
  <rect
     x="15.849997"
     y="267.10553"
     width="3.6900001"
     height="27.469999"
     id="rect689"
     style="fill:#231f20" />
  <rect
     x="27.629995"
     y="267.10553"
     width="3.6900001"
     height="27.469999"
     id="rect691"
     style="fill:#231f20" />
  <path
     d="m 56.3,295.29555 a 11.82,11.82 0 0 0 1.27,-5.7 v -22.49 H 53.9 v 22.38 c 0,2.38 -0.57,4.15 -1.73,5.3 a 6.48,6.48 0 0 1 -4.38,1.88 v 3.57 a 11,11 0 0 0 5,-1.35 8.79,8.79 0 0 0 3.51,-3.59 z"
     id="path693"
     inkscape:connector-curvature="0"
     style="fill:#231f20" />
  <path
     d="m 87.9,270.99555 a 14.91,14.91 0 0 0 -4.49,-3.08 13.75,13.75 0 0 0 -10.87,0 14.65,14.65 0 0 0 -4.46,3.08 14.45,14.45 0 0 0 -3,4.48 13.41,13.41 0 0 0 -1.09,5.38 13.91,13.91 0 0 0 1.09,5.55 13.65,13.65 0 0 0 3,4.45 14.3,14.3 0 0 0 4.46,3 13.91,13.91 0 0 0 5.46,1.06 13.61,13.61 0 0 0 5.41,-1.08 14.49,14.49 0 0 0 4.49,-3 13.93,13.93 0 0 0 3.05,-4.47 13.51,13.51 0 0 0 1.11,-5.47 13.25,13.25 0 0 0 -1.11,-5.38 14.54,14.54 0 0 0 -3.05,-4.52 z m -0.44,13.95 a 11.09,11.09 0 0 1 -2.17,3.32 10.1,10.1 0 0 1 -11.25,2.26 10.15,10.15 0 0 1 -3.26,-2.26 10.66,10.66 0 0 1 -2.21,-3.32 10.34,10.34 0 0 1 -0.8,-4.05 11.17,11.17 0 0 1 0.76,-4.09 10.17,10.17 0 0 1 2.17,-3.36 10.69,10.69 0 0 1 3.27,-2.28 9.66,9.66 0 0 1 4,-0.83 9.88,9.88 0 0 1 4,0.81 10.31,10.31 0 0 1 3.26,2.26 10.65,10.65 0 0 1 3,7.45 10.43,10.43 0 0 1 -0.79,4.09 z"
     id="path695"
     inkscape:connector-curvature="0"
     style="fill:#231f20" />
  <path
     d="m 107.07,284.43555 6.47,10.14 h 4.26 l -6.9,-11.08 a 7.64,7.64 0 0 0 4.06,-4.69 10.76,10.76 0 0 0 0.47,-3.19 8.44,8.44 0 0 0 -0.74,-3.67 7.58,7.58 0 0 0 -2.05,-2.66 8.82,8.82 0 0 0 -3.08,-1.63 12.75,12.75 0 0 0 -3.85,-0.55 h -7.3 v 27.47 h 3.69 v -10.11 h 4.06 c 0.33,0 0.62,-0.02 0.91,-0.03 z m -5,-3.5 v -10.3 h 4.25 a 5.52,5.52 0 0 1 2.45,0.49 4.88,4.88 0 0 1 1.64,1.26 5.06,5.06 0 0 1 0.91,1.65 5.68,5.68 0 0 1 0.28,1.73 6,6 0 0 1 -0.26,1.71 5,5 0 0 1 -0.88,1.69 4.38,4.38 0 0 1 -1.69,1.27 6.49,6.49 0 0 1 -2.71,0.5 z"
     id="path697"
     inkscape:connector-curvature="0"
     style="fill:#231f20" />
  <polygon
     points="284.65,366.4 281.01,366.4 281.08,386.28 260.94,365.56 260.75,365.56 260.75,393.87 264.44,393.87 264.36,374.28 284.54,394.74 284.65,394.74 "
     id="polygon699"
     style="fill:#231f20"
     transform="translate(-137.1,-99.294453)" />
  <path
     d="m 164.9,265.96555 -12,28.61 h 3.61 l 2.95,-7.22 h 10.59 l 2.84,7.22 h 4.22 l -12,-28.61 z m -4.14,18.2 4.09,-10 3.94,10 z"
     id="path701"
     inkscape:connector-curvature="0"
     style="fill:#231f20" />
  <path
     d="m 201.51,271.70555 a 12.51,12.51 0 0 0 -4.61,-3.31 17.25,17.25 0 0 0 -6.94,-1.25 h -7.48 v 27.47 h 8.81 a 14.55,14.55 0 0 0 5.19,-0.93 13.54,13.54 0 0 0 4.35,-2.68 12.39,12.39 0 0 0 3,-4.22 13.82,13.82 0 0 0 1.09,-5.58 16,16 0 0 0 -0.82,-5 13.33,13.33 0 0 0 -2.59,-4.5 z m -1.18,13.54 a 8.94,8.94 0 0 1 -2.22,3.18 9.72,9.72 0 0 1 -3.34,2 12.34,12.34 0 0 1 -4.2,0.68 h -4.41 v -20.4 h 4.74 a 11.23,11.23 0 0 1 3.84,0.66 10.18,10.18 0 0 1 3.27,2 9.18,9.18 0 0 1 2.28,3.21 11.25,11.25 0 0 1 0.83,4.47 10.7,10.7 0 0 1 -0.79,4.16 z"
     id="path703"
     inkscape:connector-curvature="0"
     style="fill:#231f20" />
  <path
     d="m 219.07,265.96555 -12,28.61 h 3.61 l 3,-7.22 h 10.59 l 2.84,7.22 h 4.22 l -12,-28.61 z m -4.17,18.2 4.09,-10 3.94,10 z"
     id="path705"
     inkscape:connector-curvature="0"
     style="fill:#231f20" />
  <path
     d="m 251.46,291.03555 a 7.39,7.39 0 0 0 1.09,-3.95 8.19,8.19 0 0 0 -0.59,-3.3 6.72,6.72 0 0 0 -1.6,-2.25 9.49,9.49 0 0 0 -2.26,-1.51 c -0.84,-0.41 -1.68,-0.78 -2.55,-1.11 -0.87,-0.33 -1.93,-0.78 -2.85,-1.21 a 7.29,7.29 0 0 1 -2.2,-1.54 3.09,3.09 0 0 1 -0.84,-2.19 3.27,3.27 0 0 1 1.32,-2.73 5.49,5.49 0 0 1 3.51,-1 11,11 0 0 1 3.27,0.53 21.06,21.06 0 0 1 3.08,1.26 l 1.4,-2.81 a 16,16 0 0 0 -3.59,-1.6 15.49,15.49 0 0 0 -4.69,-0.65 9.76,9.76 0 0 0 -4.18,1 7.26,7.26 0 0 0 -2.88,2.53 6.75,6.75 0 0 0 -1.05,3.78 6.24,6.24 0 0 0 0.69,3 6.47,6.47 0 0 0 1.82,2.11 12.66,12.66 0 0 0 2.47,1.44 c 0.89,0.39 1.76,0.75 2.62,1.08 a 22.87,22.87 0 0 1 2.59,1.2 6.41,6.41 0 0 1 2,1.6 3.65,3.65 0 0 1 0.74,2.33 3.93,3.93 0 0 1 -0.88,2.66 5.11,5.11 0 0 1 -2.11,1.46 7.19,7.19 0 0 1 -2.56,0.47 9.34,9.34 0 0 1 -2.51,-0.36 13.14,13.14 0 0 1 -2.47,-0.95 15.58,15.58 0 0 1 -2.09,-1.23 l -1.64,2.89 a 20.8,20.8 0 0 0 2.51,1.38 16.48,16.48 0 0 0 3.06,1.09 14.55,14.55 0 0 0 3.48,0.41 10.51,10.51 0 0 0 4.79,-1 7.49,7.49 0 0 0 3.1,-2.83 z"
     id="path707"
     inkscape:connector-curvature="0"
     style="fill:#231f20" />
  <path
     d="m 285.13,293.64555 a 13.54,13.54 0 0 0 4.35,-2.68 12.39,12.39 0 0 0 3,-4.22 13.65,13.65 0 0 0 1.09,-5.58 16,16 0 0 0 -0.82,-5 13.3,13.3 0 0 0 -2.56,-4.54 12.64,12.64 0 0 0 -4.62,-3.31 17.22,17.22 0 0 0 -6.94,-1.25 h -7.48 v 27.47 h 8.75 a 14.47,14.47 0 0 0 5.23,-0.89 z m -10.32,-2.61 v -20.4 h 4.75 a 11.15,11.15 0 0 1 3.84,0.66 10.07,10.07 0 0 1 3.27,2 9.18,9.18 0 0 1 2.28,3.21 11.07,11.07 0 0 1 0.84,4.47 10.87,10.87 0 0 1 -0.8,4.27 9,9 0 0 1 -2.23,3.18 9.72,9.72 0 0 1 -3.34,2 12.34,12.34 0 0 1 -4.2,0.68 z"
     id="path709"
     inkscape:connector-curvature="0"
     style="fill:#231f20" />
  <path
     d="m 317.66,293.79555 a 14.45,14.45 0 0 0 4.48,-3 13.8,13.8 0 0 0 3.06,-4.47 13.5,13.5 0 0 0 1.1,-5.47 13.25,13.25 0 0 0 -1.1,-5.38 14.4,14.4 0 0 0 -3.06,-4.48 14.86,14.86 0 0 0 -4.48,-3.08 13.75,13.75 0 0 0 -10.87,0 14.55,14.55 0 0 0 -7.49,7.56 13.57,13.57 0 0 0 -1.08,5.38 14.08,14.08 0 0 0 1.08,5.55 13.81,13.81 0 0 0 3,4.45 14.34,14.34 0 0 0 4.47,3 13.86,13.86 0 0 0 5.45,1.06 13.66,13.66 0 0 0 5.44,-1.12 z m -12.64,-5.53 a 10.8,10.8 0 0 1 -2.2,-3.32 10.34,10.34 0 0 1 -0.8,-4.05 11,11 0 0 1 0.76,-4.09 10.17,10.17 0 0 1 2.17,-3.36 10.46,10.46 0 0 1 3.27,-2.28 9.65,9.65 0 0 1 4,-0.83 9.88,9.88 0 0 1 4,0.81 10.47,10.47 0 0 1 3.27,2.26 10.62,10.62 0 0 1 2.2,3.37 10.38,10.38 0 0 1 0.8,4.08 10.26,10.26 0 0 1 -0.8,4.09 11.06,11.06 0 0 1 -2.16,3.32 10.1,10.1 0 0 1 -11.25,2.26 10.3,10.3 0 0 1 -3.26,-2.26 z"
     id="path711"
     inkscape:connector-curvature="0"
     style="fill:#231f20" />
  <rect
     x="344.88"
     y="267.10553"
     width="3.6900001"
     height="27.469999"
     id="rect713"
     style="fill:#231f20" />
  <polygon
     points="517.67,394.74 517.67,366.4 514.02,366.4 514.09,386.28 493.95,365.56 493.76,365.56 493.76,393.87 497.45,393.87 497.38,374.28 517.55,394.74 "
     id="polygon715"
     style="fill:#231f20"
     transform="translate(-137.1,-99.294453)" />
  <polygon
     points="530.93,393.87 534.61,393.87 534.61,369.93 541.99,369.93 541.99,366.4 523.75,366.4 523.75,369.93 530.93,369.93 "
     id="polygon717"
     style="fill:#231f20"
     transform="translate(-137.1,-99.294453)" />
  <polygon
     points="551.71,381.82 564.37,381.82 564.37,378.29 551.71,378.29 551.71,369.93 565.89,369.93 565.89,366.4 548.03,366.4 548.03,393.87 566.42,393.87 566.42,390.33 551.71,390.33 "
     id="polygon719"
     style="fill:#231f20"
     transform="translate(-137.1,-99.294453)" />
  <path
     d="m 444.55,284.43555 6.47,10.14 h 4.25 l -6.89,-11.08 a 7.64,7.64 0 0 0 4.06,-4.69 10.77,10.77 0 0 0 0.48,-3.19 8.59,8.59 0 0 0 -0.74,-3.67 7.6,7.6 0 0 0 -2.06,-2.66 8.86,8.86 0 0 0 -3.07,-1.63 12.86,12.86 0 0 0 -3.86,-0.55 h -7.29 v 27.47 h 3.69 v -10.11 h 4.07 c 0.3,0 0.59,-0.02 0.89,-0.03 z m -5,-3.5 v -10.3 h 4.25 a 5.56,5.56 0 0 1 2.46,0.49 4.86,4.86 0 0 1 2.54,2.91 5.7,5.7 0 0 1 0.29,1.73 6.06,6.06 0 0 1 -0.27,1.71 5.13,5.13 0 0 1 -0.87,1.69 4.46,4.46 0 0 1 -1.69,1.27 6.58,6.58 0 0 1 -2.72,0.5 z"
     id="path721"
     inkscape:connector-curvature="0"
     style="fill:#231f20" />
  <polygon
     points="598.23,365.56 598.23,393.87 601.91,393.87 601.84,374.28 622.01,394.74 622.13,394.74 622.13,366.4 618.48,366.4 618.55,386.28 598.41,365.56 "
     id="polygon723"
     style="fill:#231f20"
     transform="translate(-137.1,-99.294453)" />
  <path
     d="m 507.54,287.35555 2.83,7.22 h 4.22 l -12,-28.61 h -0.23 l -12,28.61 h 3.61 l 3,-7.22 z m -9.29,-3.19 4.1,-10 3.93,10 z"
     id="path725"
     inkscape:connector-curvature="0"
     style="fill:#231f20" />
  <polygon
     points="663.77,369.93 671.15,369.93 671.15,366.4 652.91,366.4 652.91,369.93 660.09,369.93 660.09,393.87 663.77,393.87 "
     id="polygon727"
     style="fill:#231f20"
     transform="translate(-137.1,-99.294453)" />
  <path
     d="m 564.18,275.47555 a 14.4,14.4 0 0 0 -3.06,-4.48 14.86,14.86 0 0 0 -4.48,-3.08 13.75,13.75 0 0 0 -10.87,0 14.55,14.55 0 0 0 -7.49,7.56 13.57,13.57 0 0 0 -1.08,5.38 14.08,14.08 0 0 0 1.08,5.55 13.81,13.81 0 0 0 3,4.45 14.34,14.34 0 0 0 4.47,3 13.86,13.86 0 0 0 5.45,1.06 13.66,13.66 0 0 0 5.42,-1.08 14.45,14.45 0 0 0 4.48,-3 13.78,13.78 0 0 0 4.16,-9.94 13.41,13.41 0 0 0 -1.08,-5.42 z m -3.5,9.47 a 11.06,11.06 0 0 1 -2.16,3.32 10.1,10.1 0 0 1 -11.25,2.26 10.3,10.3 0 0 1 -3.27,-2.26 10.63,10.63 0 0 1 -2.2,-3.32 10.34,10.34 0 0 1 -0.8,-4.05 11,11 0 0 1 0.76,-4.09 10.17,10.17 0 0 1 2.17,-3.36 10.53,10.53 0 0 1 3.26,-2.28 9.73,9.73 0 0 1 4,-0.83 9.88,9.88 0 0 1 4,0.81 10.47,10.47 0 0 1 3.27,2.26 10.62,10.62 0 0 1 2.2,3.37 10.38,10.38 0 0 1 0.8,4.08 10.26,10.26 0 0 1 -0.78,4.09 z"
     id="path729"
     inkscape:connector-curvature="0"
     style="fill:#231f20" />
  <polygon
     points="141.17,411.52 141.17,439.87 144.74,439.87 144.74,422.64 154.62,436.41 154.69,436.41 164.84,422.07 164.84,439.87 168.49,439.87 168.49,411.52 168.41,411.52 154.72,430.71 141.21,411.52 "
     id="polygon731"
     style="fill:#231f20"
     transform="translate(-137.1,-99.294453)" />
  <polygon
     points="184.41,410.72 186.65,410.72 191.48,405.63 187.56,405.63 "
     id="polygon733"
     style="fill:#231f20"
     transform="translate(-137.1,-99.294453)" />
  <polygon
     points="193.23,424.29 180.57,424.29 180.57,415.93 194.75,415.93 194.75,412.4 176.89,412.4 176.89,439.87 195.28,439.87 195.28,436.33 180.57,436.33 180.57,427.82 193.23,427.82 "
     id="polygon735"
     style="fill:#231f20"
     transform="translate(-137.1,-99.294453)" />
  <path
     d="m 84.09,317.70555 a 12.51,12.51 0 0 0 -4.61,-3.31 17.25,17.25 0 0 0 -6.94,-1.25 h -7.48 v 27.47 h 8.84 a 14.47,14.47 0 0 0 5.19,-0.93 13.54,13.54 0 0 0 4.35,-2.68 12.39,12.39 0 0 0 3,-4.22 13.65,13.65 0 0 0 1.09,-5.58 16,16 0 0 0 -0.82,-5 13.33,13.33 0 0 0 -2.62,-4.5 z m -1.19,13.5 a 9.09,9.09 0 0 1 -2.23,3.18 9.72,9.72 0 0 1 -3.34,2 12.34,12.34 0 0 1 -4.2,0.68 h -4.41 v -20.4 h 4.75 a 11.23,11.23 0 0 1 3.84,0.66 10.07,10.07 0 0 1 3.27,2 9.18,9.18 0 0 1 2.28,3.21 11.07,11.07 0 0 1 0.83,4.47 10.87,10.87 0 0 1 -0.79,4.2 z"
     id="path737"
     inkscape:connector-curvature="0"
     style="fill:#231f20" />
  <rect
     x="94.159996"
     y="313.10553"
     width="3.6900001"
     height="27.469999"
     id="rect739"
     style="fill:#231f20" />
  <path
     d="m 122.17,336.70555 a 10.07,10.07 0 0 1 -3.72,0.65 10.53,10.53 0 0 1 -4.18,-0.8 9.2,9.2 0 0 1 -3.18,-2.2 9.83,9.83 0 0 1 -2,-3.33 12,12 0 0 1 -0.7,-4.16 11,11 0 0 1 0.77,-4.12 10.68,10.68 0 0 1 2.15,-3.36 9.88,9.88 0 0 1 3.16,-2.25 9.21,9.21 0 0 1 3.8,-0.79 9.08,9.08 0 0 1 3.59,0.68 17.89,17.89 0 0 1 2.75,1.44 l 1.48,-3.42 a 15.81,15.81 0 0 0 -3.45,-1.57 14.11,14.11 0 0 0 -4.49,-0.67 13.73,13.73 0 0 0 -5.45,1.07 12.76,12.76 0 0 0 -4.31,3 13.58,13.58 0 0 0 -2.83,4.52 15.46,15.46 0 0 0 -1,5.68 14.38,14.38 0 0 0 1,5.3 13.41,13.41 0 0 0 2.75,4.39 12.72,12.72 0 0 0 4.35,3 14.72,14.72 0 0 0 5.76,1.14 14.33,14.33 0 0 0 3.44,-0.38 13.37,13.37 0 0 0 2.75,-1 17,17 0 0 0 1.87,-1 l -1.58,-3.27 a 11.68,11.68 0 0 1 -2.73,1.45 z"
     id="path741"
     inkscape:connector-curvature="0"
     style="fill:#231f20" />
  <path
     d="m 155.32,316.99555 a 14.86,14.86 0 0 0 -4.48,-3.08 13.75,13.75 0 0 0 -10.87,0 14.65,14.65 0 0 0 -4.46,3.08 14.28,14.28 0 0 0 -3,4.48 13.41,13.41 0 0 0 -1.09,5.38 13.91,13.91 0 0 0 1.09,5.55 13.5,13.5 0 0 0 3,4.45 14.3,14.3 0 0 0 4.46,3 13.9,13.9 0 0 0 5.45,1.06 13.66,13.66 0 0 0 5.42,-1.08 14.45,14.45 0 0 0 4.48,-3 13.8,13.8 0 0 0 3.06,-4.47 13.5,13.5 0 0 0 1.1,-5.47 13.25,13.25 0 0 0 -1.1,-5.38 14.4,14.4 0 0 0 -3.06,-4.52 z m -0.42,13.95 a 11.28,11.28 0 0 1 -2.17,3.32 10.1,10.1 0 0 1 -11.25,2.26 10.3,10.3 0 0 1 -3.27,-2.26 10.8,10.8 0 0 1 -2.2,-3.32 10.34,10.34 0 0 1 -0.8,-4.05 11.17,11.17 0 0 1 0.76,-4.09 10.17,10.17 0 0 1 2.17,-3.36 10.58,10.58 0 0 1 3.27,-2.28 9.65,9.65 0 0 1 4,-0.83 9.88,9.88 0 0 1 4,0.81 10.35,10.35 0 0 1 3.27,2.26 10.82,10.82 0 0 1 2.21,3.37 10.56,10.56 0 0 1 0.8,4.08 10.43,10.43 0 0 1 -0.79,4.09 z"
     id="path743"
     inkscape:connector-curvature="0"
     style="fill:#231f20" />
  <path
     d="m 197.71,317.70555 a 12.51,12.51 0 0 0 -4.61,-3.31 17.25,17.25 0 0 0 -6.94,-1.25 h -7.49 v 27.47 h 8.82 a 14.55,14.55 0 0 0 5.19,-0.93 13.54,13.54 0 0 0 4.35,-2.68 12.52,12.52 0 0 0 3,-4.22 13.82,13.82 0 0 0 1.08,-5.58 15.94,15.94 0 0 0 -0.81,-5 13.33,13.33 0 0 0 -2.59,-4.5 z m -1.18,13.54 a 8.94,8.94 0 0 1 -2.22,3.18 9.72,9.72 0 0 1 -3.34,2 12.34,12.34 0 0 1 -4.2,0.68 h -4.41 v -20.4 h 4.75 a 11.23,11.23 0 0 1 3.84,0.66 10.29,10.29 0 0 1 3.27,2 9.18,9.18 0 0 1 2.28,3.21 11.25,11.25 0 0 1 0.83,4.47 10.7,10.7 0 0 1 -0.8,4.16 z"
     id="path745"
     inkscape:connector-curvature="0"
     style="fill:#231f20" />
  <polygon
     points="361.22,424.29 348.57,424.29 348.57,415.93 362.74,415.93 362.74,412.4 344.88,412.4 344.88,439.87 363.27,439.87 363.27,436.33 348.57,436.33 348.57,427.82 361.22,427.82 "
     id="polygon747"
     style="fill:#231f20"
     transform="translate(-137.1,-99.294453)" />
  <polygon
     points="382.65,411.52 382.65,439.87 386.23,439.87 386.23,422.64 396.11,436.41 396.18,436.41 406.33,422.06 406.33,439.87 409.98,439.87 409.98,411.52 409.9,411.52 396.21,430.71 382.69,411.52 "
     id="polygon749"
     style="fill:#231f20"
     transform="translate(-137.1,-99.294453)" />
  <path
     d="m 293.62,330.70555 h 5.47 v 5.47 a 8.41,8.41 0 0 1 -2.35,0.82 13.59,13.59 0 0 1 -2.78,0.29 12,12 0 0 1 -4.31,-0.75 9.79,9.79 0 0 1 -3.36,-2.09 9.16,9.16 0 0 1 -2.17,-3.21 10.69,10.69 0 0 1 -0.76,-4.1 12,12 0 0 1 0.76,-4.39 9.3,9.3 0 0 1 5.55,-5.47 12.37,12.37 0 0 1 4.41,-0.74 11,11 0 0 1 2.2,0.24 21.62,21.62 0 0 1 2.3,0.63 9.82,9.82 0 0 1 1.88,0.84 l 1.26,-3.38 a 16.09,16.09 0 0 0 -3.61,-1.45 16.58,16.58 0 0 0 -4.45,-0.57 15,15 0 0 0 -5.4,1 13.14,13.14 0 0 0 -7.58,7.45 16.11,16.11 0 0 0 -1.12,6.14 14,14 0 0 0 1,5.35 12.4,12.4 0 0 0 2.89,4.3 13.5,13.5 0 0 0 4.52,2.85 16.39,16.39 0 0 0 5.95,1 14.55,14.55 0 0 0 2.45,-0.22 23,23 0 0 0 2.54,-0.61 17.81,17.81 0 0 0 2.26,-0.86 6.53,6.53 0 0 0 1.6,-1 v -11.12 h -9.16 z"
     id="path751"
     inkscape:connector-curvature="0"
     style="fill:#231f20" />
  <polygon
     points="451.09,428.2 462.15,428.2 462.15,424.71 451.09,424.71 451.09,415.93 463.71,415.93 463.71,412.4 447.4,412.4 447.4,439.87 451.09,439.87 "
     id="polygon753"
     style="fill:#231f20"
     transform="translate(-137.1,-99.294453)" />
  <path
     d="m 364.72,317.70555 a 12.55,12.55 0 0 0 -4.62,-3.31 17.17,17.17 0 0 0 -6.93,-1.25 h -7.49 v 27.47 h 8.82 a 14.55,14.55 0 0 0 5.19,-0.93 13.54,13.54 0 0 0 4.35,-2.68 12.52,12.52 0 0 0 3,-4.22 13.82,13.82 0 0 0 1.08,-5.58 15.67,15.67 0 0 0 -0.82,-5 13.14,13.14 0 0 0 -2.58,-4.5 z m -1.18,13.54 a 8.94,8.94 0 0 1 -2.22,3.18 9.81,9.81 0 0 1 -3.34,2 12.34,12.34 0 0 1 -4.2,0.68 h -4.41 v -20.4 h 4.75 a 11.23,11.23 0 0 1 3.84,0.66 10.13,10.13 0 0 1 3.26,2 8.93,8.93 0 0 1 2.28,3.21 11.07,11.07 0 0 1 0.84,4.47 10.87,10.87 0 0 1 -0.8,4.16 z"
     id="path755"
     inkscape:connector-curvature="0"
     style="fill:#231f20" />
  <path
     d="m 382.58,311.96555 -12,28.61 h 3.61 l 3,-7.22 h 10.6 l 2.83,7.22 h 4.22 l -12,-28.61 z m -4.14,18.2 4.09,-10 3.94,10 z"
     id="path757"
     inkscape:connector-curvature="0"
     style="fill:#231f20" />
  <path
     d="m 422.21,311.96555 -12,28.61 h 3.61 l 3,-7.22 h 10.59 l 2.83,7.22 h 4.22 l -12,-28.61 z m -4.14,18.2 4.1,-10 3.94,10 z"
     id="path759"
     inkscape:connector-curvature="0"
     style="fill:#231f20" />
  <path
     d="m 455.04,327.63555 a 7.71,7.71 0 0 0 1.58,-2.83 10.77,10.77 0 0 0 0.48,-3.19 8.59,8.59 0 0 0 -0.74,-3.67 7.6,7.6 0 0 0 -2.06,-2.66 8.86,8.86 0 0 0 -3.07,-1.63 12.86,12.86 0 0 0 -3.86,-0.55 h -7.3 v 27.47 h 3.69 v -10.11 h 4.06 c 0.32,0 0.61,0 0.91,0 l 6.47,10.14 h 4.25 l -6.89,-11.08 a 7.74,7.74 0 0 0 2.48,-1.89 z m -7.29,-0.7 h -4 v -10.3 H 448 a 5.56,5.56 0 0 1 2.46,0.49 4.86,4.86 0 0 1 2.54,2.91 5.7,5.7 0 0 1 0.29,1.73 6.06,6.06 0 0 1 -0.27,1.71 5.13,5.13 0 0 1 -0.87,1.69 4.46,4.46 0 0 1 -1.69,1.27 6.58,6.58 0 0 1 -2.71,0.5 z"
     id="path761"
     inkscape:connector-curvature="0"
     style="fill:#231f20" />
  <path
     d="m 479.35,327.53555 a 9.76,9.76 0 0 0 -2.27,-1.51 c -0.83,-0.41 -1.68,-0.78 -2.54,-1.11 -0.86,-0.33 -1.94,-0.78 -2.85,-1.21 a 7.34,7.34 0 0 1 -2.21,-1.54 3.13,3.13 0 0 1 -0.83,-2.19 3.29,3.29 0 0 1 1.31,-2.73 5.52,5.52 0 0 1 3.52,-1 10.83,10.83 0 0 1 3.26,0.53 20.62,20.62 0 0 1 3.08,1.26 l 1.41,-2.81 a 16.23,16.23 0 0 0 -3.59,-1.6 15.56,15.56 0 0 0 -4.7,-0.65 9.8,9.8 0 0 0 -4.18,1 7.32,7.32 0 0 0 -2.86,2.53 6.82,6.82 0 0 0 -1,3.78 6.35,6.35 0 0 0 0.68,3 6.62,6.62 0 0 0 1.83,2.11 12.37,12.37 0 0 0 2.47,1.44 c 0.88,0.39 1.76,0.75 2.62,1.08 a 23.54,23.54 0 0 1 2.58,1.2 6.3,6.3 0 0 1 2,1.6 3.65,3.65 0 0 1 0.74,2.33 4,4 0 0 1 -0.92,2.66 5.18,5.18 0 0 1 -2.11,1.46 7.25,7.25 0 0 1 -2.57,0.47 9.34,9.34 0 0 1 -2.51,-0.36 13.41,13.41 0 0 1 -2.47,-0.95 16.24,16.24 0 0 1 -2.09,-1.23 l -1.63,2.89 a 20.06,20.06 0 0 0 2.51,1.38 16,16 0 0 0 3.06,1.09 14.53,14.53 0 0 0 3.47,0.41 10.48,10.48 0 0 0 4.79,-1 7.42,7.42 0 0 0 4.18,-6.77 8.19,8.19 0 0 0 -0.59,-3.3 6.55,6.55 0 0 0 -1.59,-2.26 z"
     id="path763"
     inkscape:connector-curvature="0"
     style="fill:#231f20" />
  <polygon
     points="637.82,439.87 655.45,439.87 655.45,436.33 641.51,436.33 641.51,412.4 637.82,412.4 "
     id="polygon765"
     style="fill:#231f20"
     transform="translate(-137.1,-99.294453)" />
  <polygon
     points="654.27,412.4 666.36,441.12 678.48,412.4 674.18,412.4 666.54,432.25 658.64,412.4 "
     id="polygon767"
     style="fill:#231f20"
     transform="translate(-137.1,-99.294453)" />
  <polygon
     points="689.65,439.87 693.34,439.87 693.34,415.93 700.71,415.93 700.71,412.4 682.47,412.4 682.47,415.93 689.65,415.93 "
     id="polygon769"
     style="fill:#231f20"
     transform="translate(-137.1,-99.294453)" />
  <rect
     x="2.5600038"
     y="232.53554"
     width="560.88"
     height="9.6300001"
     id="rect771"
     style="fill:#52a3a6" />
  <path
     d="m 56.03,112.42555 v 23.14 q 5.44,-0.87 11.37,-1.75 a 87.55,87.55 0 0 1 -9.57,-22.19 c -0.6,0.27 -1.19,0.54 -1.8,0.8 z"
     id="path773"
     inkscape:connector-curvature="0"
     style="fill:none" />
  <polygon
     points="274.5,197.4 267.7,190.41 267.7,204.28 "
     id="polygon775"
     style="fill:#52a3a6"
     transform="translate(-137.1,-99.294453)" />
  <polygon
     points="275.61,167.51 267.7,159.28 267.7,176.2 "
     id="polygon777"
     style="fill:#52a3a6"
     transform="translate(-137.1,-99.294453)" />
  <polygon
     points="278.83,197.4 288.25,206.88 288.25,188.6 "
     id="polygon779"
     style="fill:#52a3a6"
     transform="translate(-137.1,-99.294453)" />
  <path
     d="m 130.6,108.50555 v 17.47 q 10,-1 20.55,-1.91 v -11.86 l -11.68,-12 z"
     id="path781"
     inkscape:connector-curvature="0"
     style="fill:#52a3a6" />
  <polygon
     points="279.57,167.67 288.25,177.14 288.25,159.11 "
     id="polygon783"
     style="fill:#52a3a6"
     transform="translate(-137.1,-99.294453)" />
  <polygon
     points="276.66,195.21 288.25,183.5 288.25,180.67 277.61,169.6 267.7,179.37 267.7,186.18 "
     id="polygon785"
     style="fill:#52a3a6"
     transform="translate(-137.1,-99.294453)" />
  <path
     d="m 151.15,42.435547 v -16.56 l -7.79,8.83 c 2.98,3.05 5.82,5.87 7.79,7.73 z"
     id="path787"
     inkscape:connector-curvature="0"
     style="fill:#52a3a6" />
  <polygon
     points="277.52,165.42 288.25,153.64 288.25,146.31 278.56,136.21 267.7,148.59 267.7,154.7 "
     id="polygon789"
     style="fill:#52a3a6"
     transform="translate(-137.1,-99.294453)" />
  <polygon
     points="277.06,134.63 267.7,124.87 267.7,145.46 "
     id="polygon791"
     style="fill:#52a3a6"
     transform="translate(-137.1,-99.294453)" />
  <path
     d="m 71.61,104.38555 a 128.11,128.11 0 0 1 -13.78,7.24 87.55,87.55 0 0 0 9.57,22.19 c 1.38,-0.21 2.78,-0.42 4.21,-0.62 z"
     id="path793"
     inkscape:connector-curvature="0"
     style="fill:#52a3a6" />
  <path
     d="m 142.9,176.39555 c 1.15,0 2.29,0 3.43,-0.08 1.14,-0.08 2.47,-0.12 3.69,-0.22 l -10.72,-9.75 -8.67,7.61 v 1.59 q 3.66,0.51 7.4,0.71 c 1.59,0.09 3.21,0.14 4.87,0.14 z"
     id="path795"
     inkscape:connector-curvature="0"
     style="fill:#52a3a6" />
  <path
     d="m 150.77,22.835547 h -19.06 c 2.27,2.34 6.19,6.38 10.11,10.35 z"
     id="path797"
     inkscape:connector-curvature="0"
     style="fill:#52a3a6" />
  <path
     d="m 156.57,27.705547 0.59,95.850003 q 6.93,-0.57 14.1,-1.08 V 45.475547 c -6.74,-7.41 -11.74,-13.77 -14.69,-17.77 z"
     id="path799"
     inkscape:connector-curvature="0"
     style="fill:#52a3a6" />
  <polygon
     points="274.25,263.71 267.7,257.76 267.7,269.9 "
     id="polygon801"
     style="fill:#52a3a6"
     transform="translate(-137.1,-99.294453)" />
  <path
     d="m 151.15,172.38555 v -16.46 l -9.41,8.26 c 3.6,3.19 7.16,6.27 9.41,8.2 z"
     id="path803"
     inkscape:connector-curvature="0"
     style="fill:#52a3a6" />
  <path
     d="m 72.74,103.70555 v 29.34 q 7,-1 14.63,-2 V 93.045547 A 119.44,119.44 0 0 1 72.74,103.70555 Z"
     id="path805"
     inkscape:connector-curvature="0"
     style="fill:#52a3a6" />
  <path
     d="m 108.16,69.705547 -0.43,0.63 v 58.170003 q 8.14,-1 16.83,-1.87 l 0.58,-93.120003 a 130.31,130.31 0 0 1 -16.98,36.19 z"
     id="path807"
     inkscape:connector-curvature="0"
     style="fill:#52a3a6" />
  <path
     d="m 88.5,91.985547 v 38.860003 q 8.67,-1.14 18.1,-2.26 V 71.915547 a 118.1,118.1 0 0 1 -18.1,20.07 z"
     id="path809"
     inkscape:connector-curvature="0"
     style="fill:#52a3a6" />
  <path
     d="m 130.6,154.23555 c 2.18,2 5.47,4.91 8.9,8 l 11.65,-11 v -13.12 q -10.22,0.87 -20.55,1.92 z"
     id="path811"
     inkscape:connector-curvature="0"
     style="fill:#52a3a6" />
  <path
     d="m 76.77,146.56555 a 88,88 0 0 0 42,26.49 q 2.72,0.76 5.51,1.36 l 0.21,-33.75 q -23.59,2.49 -47.72,5.9 z"
     id="path813"
     inkscape:connector-curvature="0"
     style="fill:#52a3a6" />
  <path
     d="m 219.74,119.80555 5.55,-0.2 a 87.93,87.93 0 0 0 5.61,-26.730003 c -3.87,-2 -7.6,-4.08 -11.19,-6.27 z"
     id="path815"
     inkscape:connector-curvature="0"
     style="fill:#52a3a6" />
  <path
     d="m 191.1,65.245547 -0.69,-0.62 v 56.610003 q 7.49,-0.43 15.2,-0.81 V 77.045547 c -5.3,-3.94 -10.16,-7.94 -14.51,-11.8 z"
     id="path817"
     inkscape:connector-curvature="0"
     style="fill:#52a3a6" />
  <path
     d="m 206.74,77.885547 v 42.490003 q 5.87,-0.28 11.87,-0.52 V 85.855547 c -4.16,-2.54 -8.13,-5.23 -11.87,-7.97 z"
     id="path819"
     inkscape:connector-curvature="0"
     style="fill:#52a3a6" />
  <path
     d="m 106.3,68.395547 a 127.89,127.89 0 0 0 18.9,-44.34 l 0.06,-10.32 h 1.64 v -2.84 h 2.17 l -0.29,2.84 h 1.84 v 5 h 20.55 v -5 h 1.38 v -2.84 h 2.46 v 2.81 h 1.49 l 0.06,10.13 a 253.94,253.94 0 0 0 36.1,39.73 192,192 0 0 0 38.38,26.78 c 0,-0.72 0,-1.44 0,-2.17 A 88.19,88.19 0 1 0 57.24,109.36555 116.91,116.91 0 0 0 106.3,68.395547 Z"
     id="path821"
     inkscape:connector-curvature="0"
     style="fill:#52a3a6" />
  <path
     d="m 172.39,46.775547 v 75.630003 q 8.29,-0.58 16.89,-1.1 V 63.615547 c -6.38,-5.79 -12.05,-11.56 -16.89,-16.84 z"
     id="path823"
     inkscape:connector-curvature="0"
     style="fill:#52a3a6" />
  <path
     d="m 157.48,175.17555 q 4.13,-0.69 8.12,-1.75 a 84.57,84.57 0 0 0 8.48,-2.72 88.48,88.48 0 0 0 44.21,-36.79 q -29.85,1.18 -61,3.69 z"
     id="path825"
     inkscape:connector-curvature="0"
     style="fill:#52a3a6" />
  <path
     d="m 67.4,133.81555 q 2,3.25 4.21,6.32 v -6.94 c -1.43,0.2 -2.83,0.41 -4.21,0.62 z"
     id="path827"
     inkscape:connector-curvature="0"
     style="fill:#ffffff" />
  <path
     d="m 156.54,23.865547 v 3.85 c 2.95,4 7.95,10.35 14.69,17.81 v -1 h 1.13 v 2.29 c 4.84,5.28 10.5,11.05 16.89,16.84 v -1.24 h 1.13 v 2.25 l 0.69,0.62 c 4.35,3.86 9.21,7.86 14.51,11.8 v -1 h 1.13 v 1.8 c 3.74,2.74 7.71,5.43 11.87,8 v -0.92 h 1.13 v 1.62 c 3.59,2.19 7.32,4.29 11.19,6.27 0,-0.83 0.07,-1.66 0.09,-2.5 a 192,192 0 0 1 -38.38,-26.78 253.94,253.94 0 0 1 -36.07,-39.71 z"
     id="path829"
     inkscape:connector-curvature="0"
     style="fill:#ffffff" />
  <path
     d="m 71.61,104.38555 v -1 h 1.13 v 0.32 A 119.44,119.44 0 0 0 87.37,92.975547 v -1.06 h 1.13 v 0.09 a 118.1,118.1 0 0 0 18.1,-20.07 v -3.16 h 1.13 v 1.53 l 0.43,-0.63 a 130.31,130.31 0 0 0 17,-36.19 l 0.06,-9.41 a 127.89,127.89 0 0 1 -18.9,44.34 116.91,116.91 0 0 1 -49,41.000003 c 0.18,0.75 0.37,1.49 0.57,2.23 a 128.11,128.11 0 0 0 13.72,-7.26 z"
     id="path831"
     inkscape:connector-curvature="0"
     style="fill:#ffffff" />
  <path
     d="m 171.26,127.34555 h 1.13 v -4.94 l -1.13,0.08 z"
     id="path833"
     inkscape:connector-curvature="0"
     style="fill:#ffffff" />
  <path
     d="m 172.39,44.485547 h -1.13 v 1 l 1.13,1.25 z"
     id="path835"
     inkscape:connector-curvature="0"
     style="fill:#ffffff" />
  <path
     d="m 106.6,71.915547 v 56.670003 l 1.13,-0.13 V 70.285547 c -0.37,0.54 -0.74,1.08 -1.13,1.63 z"
     id="path837"
     inkscape:connector-curvature="0"
     style="fill:#ffffff" />
  <path
     d="m 106.6,139.59555 h 1.13 v -11.14 l -1.13,0.13 z"
     id="path839"
     inkscape:connector-curvature="0"
     style="fill:#ffffff" />
  <path
     d="m 107.73,68.755547 h -1.13 v 3.16 c 0.39,-0.55 0.76,-1.09 1.13,-1.63 z"
     id="path841"
     inkscape:connector-curvature="0"
     style="fill:#ffffff" />
  <path
     d="m 87.37,92.955547 v 38.000003 l 1.13,-0.15 V 91.985547 Z"
     id="path843"
     inkscape:connector-curvature="0"
     style="fill:#ffffff" />
  <path
     d="m 87.37,139.28555 h 1.13 v -8.44 l -1.13,0.15 z"
     id="path845"
     inkscape:connector-curvature="0"
     style="fill:#ffffff" />
  <path
     d="m 88.5,91.895547 h -1.13 v 1.06 l 1.13,-1 z"
     id="path847"
     inkscape:connector-curvature="0"
     style="fill:#ffffff" />
  <path
     d="m 71.61,104.38555 v 28.81 l 1.13,-0.17 v -29.32 z"
     id="path849"
     inkscape:connector-curvature="0"
     style="fill:#ffffff" />
  <path
     d="m 71.61,140.13555 c 0.37,0.51 0.74,1 1.13,1.51 v -8.62 l -1.13,0.17 z"
     id="path851"
     inkscape:connector-curvature="0"
     style="fill:#ffffff" />
  <path
     d="m 72.74,103.40555 h -1.13 v 1 l 1.13,-0.7 z"
     id="path853"
     inkscape:connector-curvature="0"
     style="fill:#ffffff" />
  <path
     d="m 0.03,146.27555 v 13.62 c 25.8,-5.34 51.44,-9.74 76.74,-13.33 -1.4,-1.59 -2.75,-3.23 -4,-4.92 -0.39,-0.5 -0.76,-1 -1.13,-1.51 q -2.25,-3.06 -4.21,-6.32 -5.92,0.88 -11.37,1.75 v -23.14 c 0.61,-0.26 1.2,-0.53 1.8,-0.8 -0.2,-0.74 -0.39,-1.48 -0.57,-2.23 -15.32,6.95 -34.15,11.89 -57.29,13 l 0.12,2.25 c 4.3,-0.21 8.44,-0.56 12.45,-1 v 19.85 c -8.22,1.71 -12.54,2.78 -12.54,2.78 z m 40,-28.07 a 139.59,139.59 0 0 0 14.9,-5.31 v 22.81 q -8,1.29 -14.9,2.5 z m -13.6,3.32 c 4.35,-0.86 8.49,-1.88 12.47,-3 v 19.93 q -6.79,1.2 -12.47,2.28 z m -12.73,2 q 6,-0.74 11.6,-1.79 v 19.22 c -4.43,0.85 -8.3,1.63 -11.6,2.31 z"
     id="path855"
     inkscape:connector-curvature="0"
     style="fill:#52a3a6" />
  <path
     d="m 189.28,129.09555 h 1.13 v -7.86 l -1.13,0.07 z"
     id="path857"
     inkscape:connector-curvature="0"
     style="fill:#ffffff" />
  <path
     d="m 190.41,62.375547 h -1.13 v 1.24 l 1.13,1 z"
     id="path859"
     inkscape:connector-curvature="0"
     style="fill:#ffffff" />
  <path
     d="m 205.61,129.09555 h 1.13 v -8.72 l -1.13,0.05 z"
     id="path861"
     inkscape:connector-curvature="0"
     style="fill:#ffffff" />
  <path
     d="m 206.74,76.085547 h -1.13 v 1 l 1.13,0.84 z"
     id="path863"
     inkscape:connector-curvature="0"
     style="fill:#ffffff" />
  <path
     d="m 218.61,85.905547 v 34.000003 l 1.13,-0.05 V 86.605547 Z"
     id="path865"
     inkscape:connector-curvature="0"
     style="fill:#ffffff" />
  <path
     d="m 218.61,129.09555 h 1.13 v -9.29 l -1.13,0.05 z"
     id="path867"
     inkscape:connector-curvature="0"
     style="fill:#ffffff" />
  <path
     d="m 219.74,84.985547 h -1.13 v 0.92 l 1.13,0.7 z"
     id="path869"
     inkscape:connector-curvature="0"
     style="fill:#ffffff" />
  <path
     d="m 286.08,104.87555 h -0.05 c -20.08,0 -38.74,-6.060003 -55,-14.500003 0,0.84 -0.05,1.67 -0.09,2.5 0.8,0.4 1.61,0.81 2.42,1.2 l 0.32,25.260003 c -2.81,0.08 -5.61,0.17 -8.38,0.27 a 87.8,87.8 0 0 1 -7,14.31 c 23.89,-1 47.08,-1.29 69.4,-1.17 v -14.04 c -3.84,0 -7.65,0 -11.43,0 v -12 c 3.22,0.3 6.47,0.47 9.76,0.47 h 0.06 1.61 v -2.26 c -0.55,-0.07 -1.09,-0.04 -1.62,-0.04 z M 234.49,94.635547 a 142.74,142.74 0 0 0 13.18,5.520003 v 18.83 q -6.5,0.12 -12.87,0.31 z m 14.31,24.320003 v -18.41 a 125.06,125.06 0 0 0 12.1,3.56 l 0.29,14.66 q -6.29,0.08 -12.39,0.19 z m 26.33,-0.29 q -6.45,0 -12.8,0.09 l -0.28,-14.39 a 112.22,112.22 0 0 0 13.08,2.19 z"
     id="path871"
     inkscape:connector-curvature="0"
     style="fill:#52a3a6" />
  <polygon
     points="267.7,148.59 267.7,145.46 266.15,147.26 266.15,150.35 "
     id="polygon873"
     style="fill:#ffffff"
     transform="translate(-137.1,-99.294453)" />
  <polygon
     points="288.25,122.13 288.25,121.69 287.87,122.13 "
     id="polygon875"
     style="fill:#ffffff"
     transform="translate(-137.1,-99.294453)" />
  <polygon
     points="267.7,179.37 277.61,169.6 275.61,167.51 267.7,176.2 "
     id="polygon877"
     style="fill:#ffffff"
     transform="translate(-137.1,-99.294453)" />
  <polygon
     points="288.25,153.64 277.52,165.42 279.57,167.67 288.25,159.11 "
     id="polygon879"
     style="fill:#ffffff"
     transform="translate(-137.1,-99.294453)" />
  <polygon
     points="267.7,269.9 267.7,273.25 276.37,265.64 274.25,263.71 "
     id="polygon881"
     style="fill:#ffffff"
     transform="translate(-137.1,-99.294453)" />
  <path
     d="m 162.61,217.70555 -0.11,-5 h -4.78 l -0.24,-37.47 c -1.37,0.23 -2.75,0.43 -4.14,0.59 l -2.19,0.24 -1.16,0.09 1.16,1.05 v 2.63 l -11.95,11.87 c -3.24,-2.77 -6.37,-5.46 -8.6,-7.38 v -8.79 l -1.54,-0.24 -1.44,-0.24 c -1.13,-0.19 -2.24,-0.41 -3.35,-0.65 l -0.24,38.23 h -3.57 v 4.71 h -5.33 v 7.53 h 50.83 v -7.29 z m -11.46,-34 v 18.1 c -2.36,-1.94 -6,-5.05 -9.79,-8.25 4,-4.12 7.8,-7.97 9.79,-9.85 z m -14.25,10.3 -6.31,6.3 v -12.05 z m -6.31,10.77 c 2.21,-2.33 5.29,-5.55 8.44,-8.82 l 12.11,11 v 5.66 H 130.6 Z"
     id="path883"
     inkscape:connector-curvature="0"
     style="fill:#52a3a6" />
  <polygon
     points="288.25,177.14 279.57,167.67 277.61,169.6 288.25,180.67 "
     id="polygon885"
     style="fill:#ffffff"
     transform="translate(-137.1,-99.294453)" />
  <polygon
     points="267.7,159.28 275.61,167.51 277.52,165.42 267.7,154.7 "
     id="polygon887"
     style="fill:#ffffff"
     transform="translate(-137.1,-99.294453)" />
  <polygon
     points="277.52,165.42 275.61,167.51 277.61,169.6 279.57,167.67 "
     id="polygon889"
     style="fill:#ffffff"
     transform="translate(-137.1,-99.294453)" />
  <path
     d="m 131.71,22.835547 -1.11,-1.13 v 1.15 z"
     id="path891"
     inkscape:connector-curvature="0"
     style="fill:#ffffff" />
  <path
     d="m 172.39,46.775547 -1.13,-1.25 v 77.000003 l 1.13,-0.08 z"
     id="path893"
     inkscape:connector-curvature="0"
     style="fill:#ffffff" />
  <path
     d="m 190.41,64.625547 -1.13,-1 v 57.680003 l 1.13,-0.07 z"
     id="path895"
     inkscape:connector-curvature="0"
     style="fill:#ffffff" />
  <path
     d="m 206.74,77.885547 -1.13,-0.84 v 43.380003 l 1.13,-0.05 z"
     id="path897"
     inkscape:connector-curvature="0"
     style="fill:#ffffff" />
  <path
     d="m 225.29,119.60555 -5.55,0.2 v 9.29 h -1.13 v -9.24 q -6,0.24 -11.87,0.52 v 8.72 h -1.13 v -8.67 q -7.72,0.38 -15.2,0.81 v 7.86 h -1.13 v -7.79 q -8.61,0.51 -16.89,1.1 v 4.94 h -1.13 v -4.86 q -7.17,0.51 -14.1,1.08 l -0.59,-95.860003 v -3.85 l -0.09,-10.15 h -1.49 v -2.84 h -2.46 v 2.84 h -1.38 v 5 H 130.6 v -5 h -1.33 v -2.84 h -2.46 v 2.84 h -1.55 l -0.06,10.32 -0.06,9.41 -0.58,93.120003 q -8.67,0.92 -16.83,1.87 v 11.14 h -1.13 v -11 q -9.42,1.11 -18.1,2.26 v 8.44 h -1.13 v -8.29 q -7.62,1 -14.63,2 v 8.62 c 1.28,1.69 2.63,3.33 4,4.92 q 24.07,-3.42 47.71,-5.9 l -0.21,33.75 c 1.11,0.24 2.22,0.46 3.35,0.65 l 1.44,0.24 1.54,0.24 v -17.03 l 6.55,5.95 2.12,1.93 10.72,9.75 1.16,-0.09 2.19,-0.24 c 1.39,-0.16 2.77,-0.36 4.14,-0.59 l -0.23,-37.57 q 31.14,-2.55 61,-3.69 a 87.8,87.8 0 0 0 7.07,-14.31 z m -74.14,52.78 c -2.3,-1.93 -5.81,-5 -9.41,-8.2 l 9.41,-8.26 z m 0,-21.2 -11.65,11 c -3.43,-3.05 -6.72,-6 -8.9,-8 v -14.2 q 10.32,-1.05 20.55,-1.92 z m 0,-27.12 q -10.59,0.9 -20.55,1.91 v -17.47 l 8.87,-8.28 11.68,12 z m -20.55,-19.08 V 91.115547 l 6.8,7 z m 20.55,2.6 -9.42,-9.480003 9.42,-8.8 z m 0,-53.240003 v 29.86 l -11.59,11.71 -9,-9 v -37.6 l -1.55,1.77 v -3.09 l 1.55,-1.8 v -20.62 l 9.36,9.76 -9.36,10.83 v 3.12 l 10.86,-12.37 9.69,10.09 z m 0,-11.91 c -2,-1.86 -4.81,-4.68 -7.79,-7.69 l 7.79,-8.87 z m 0,-19.6 h -0.38 l -8.95,10.35 c -3.92,-4 -7.84,-8 -10.11,-10.35 h -1.11 v -1.13 l 1.11,1.15 h 19.06 l 0.38,-0.44 z"
     id="path899"
     inkscape:connector-curvature="0"
     style="fill:#ffffff" />
  <path
     d="m 551.9,124.13555 c 3.73,0.41 7.57,0.72 11.55,0.92 l 0.11,-2.26 c -59.5,-2.9 -89.94,-31.000003 -105,-54.090003 a 125.28,125.28 0 0 1 -17.66,-43.66 l -0.07,-11.27 h -1.47 v -2.84 h -2.46 v 2.84 h -1.4 v 5 h -20.6 v -5 h -1.38 v -2.84 h -2.46 v 2.84 h -1.49 v 6.05 c -33.61,49.3 -69.82,77.38 -107.9,83.710003 a 100.67,100.67 0 0 1 -14,1.32 c -0.92,0 -0.3,0 -1.22,0 v 0 l -0.05,2.26 0.14,11.59 v 10.4 h 0.83 l 0.3,3.65 q 7,0 14,0.15 c 39,0.58 75,2.54 107.17,5.15 l -0.47,74.6 h -2.53 l -0.21,5.62 -3.89,0.13 0.65,6.49 h 50.81 v -7.53 h -5.3 v -4.66 h -5.82 l -0.45,-71.6 c 75.34,7.69 121.9,17.9 121.9,17.9 v -12.68 q -5.82,-1.16 -11.61,-2.24 z m -137,-64.270003 8.68,8.55 -8.68,9.47 z m 0,29.49 9.41,8.79 -9.41,9.490003 z m 0,-5.11 v -2.83 l 10.64,-11.07 9.91,9.77 v 6.81 l -9,9 z m 20.55,-7.29 -7.91,-8.69 7.91,-8.24 z m 0,14.2 v 13.870003 l -6.81,-6.880003 z m 0,-44.94 -9.36,-10.83 9.36,-9.76 z m 0,3.12 v 6.11 l -9.82,10.72 -10.73,-11.78 v -7.33 l 9.68,-10.1 z m -20.55,-6.86 v -16.55 l 7.79,8.87 c -2.96,3 -5.79,5.82 -7.79,7.68 z m 0,69.770003 11.68,-12 8.87,8.29 v 18.43 q -10.35,-1.09 -20.55,-2 z m 19.44,-89.370003 c -2.27,2.35 -6.19,6.38 -10.11,10.35 l -9,-10.35 z M 287.69,107.11555 a 104.34,104.34 0 0 0 12.6,-1.1 v 12.86 q -6.36,-0.09 -12.6,-0.13 z m 14,-1.29 a 107.51,107.51 0 0 0 12.37,-2.78 v 16.1 q -6.22,-0.15 -12.37,-0.24 z m 13.5,-3.12 a 116.47,116.47 0 0 0 14.71,-5.520003 v 22.420003 q -7.43,-0.26 -14.72,-0.43 z m 15.85,-6.000003 a 134.86,134.86 0 0 0 14.73,-8 v 31.610003 c -4.95,-0.23 -9.86,-0.42 -14.73,-0.6 z m 15.86,-8.77 a 162.5,162.5 0 0 0 15.33,-11.16 v 44.290003 c -5.15,-0.28 -10.25,-0.54 -15.33,-0.77 z m 16.46,-12.08 q 7.3,-6.15 14.54,-13.41 v 59.590003 q -7.34,-0.5 -14.57,-0.9 z m 15.7,-14.56 q 7.77,-8 15.37,-17.28 v 79.200003 c -5.16,-0.4 -10.28,-0.76 -15.37,-1.11 z m 16.5,62.000003 V 42.615547 q 7.08,-8.79 14,-18.76 L 408.9,124.41555 q -6.73,-0.58 -13.39,-1.11 z m 40,77 -6.31,-6.31 6.31,-5.75 z m 0,-29.71 -6.66,-6.13 6.55,-5.95 z m 0,3.36 v 10.37 c -2.24,1.92 -5.36,4.61 -8.6,7.38 l -12,-11.93 v -2.64 l 11.88,-10.79 z m -20.66,9.83 c 2,1.85 5.79,5.7 9.79,9.82 -3.76,3.21 -7.43,6.31 -9.79,8.25 z m 0,-11.35 v -16.46 l 9.41,8.26 c -3.59,3.19 -7.1,6.27 -9.41,8.2 z m 0,40.28 v -5.66 l 12.1,-11 c 3.16,3.28 6.24,6.5 8.45,8.82 v 7.84 z m 20.55,-58.41 c -2.18,2 -5.47,4.91 -8.9,8 l -11.65,-11 v -12.7 q 10.59,0.9 20.55,1.88 z m 6,-26.64 -0.57,-92.600003 a 127,127 0 0 0 15.66,34.82 l 0.1,0.15 v 59.380003 q -7.57,-0.93 -15.13,-1.77 z m 16.38,-55.950003 a 113.84,113.84 0 0 0 18.07,20.74 v 39.380003 q -9.1,-1.22 -18.1,-2.3 z m 19.23,21.74 a 116,116 0 0 0 14.63,10.870003 v 29.72 q -7.35,-1.06 -14.63,-2 z m 15.76,11.580003 a 122,122 0 0 0 15.57,8 v 23.5 q -7.82,-1.23 -15.57,-2.36 z m 16.7,8.52 a 136.69,136.69 0 0 0 14.9,5.26 v 20.37 q -7.47,-1.26 -14.9,-2.43 z m 16,5.57 c 4,1.12 8.13,2.11 12.48,2.95 v 19.48 q -6.25,-1.12 -12.48,-2.18 z m 13.64,22.59 v -19.44 q 5.58,1 11.59,1.74 v 19.86 q -5.85,-1.09 -11.59,-2.16 z"
     id="path901"
     inkscape:connector-curvature="0"
     style="fill:#52a3a6" />
  <polygon
     points="458.41,486.94 460.31,486.94 460.31,461.65 454.65,461.65 454.65,463.47 458.41,463.47 "
     stroke-miterlimit="10"
     id="polygon903"
     style="fill:#52a3a6;stroke:#52a3a6;stroke-width:0.25;stroke-miterlimit:10"
     transform="translate(-137.1,-99.294453)" />
  <rect
     x="328.13"
     y="379.04553"
     width="7.1700001"
     height="1.63"
     stroke-miterlimit="10"
     id="rect905"
     style="fill:#52a3a6;stroke:#52a3a6;stroke-width:0.25;stroke-miterlimit:10" />
  <path
     d="m 351.54,373.60555 a 6.72,6.72 0 0 0 -2.42,-1.32 8.26,8.26 0 0 0 -2.87,-0.32 7.09,7.09 0 0 0 -0.81,0 l 7,-9.65 h -12.77 v 1.78 h 9.58 l -7.26,9.88 0.16,0.11 a 9.64,9.64 0 0 1 1.58,-0.54 8.61,8.61 0 0 1 2,-0.23 6.28,6.28 0 0 1 4.45,1.55 5.53,5.53 0 0 1 1.67,4.26 7.35,7.35 0 0 1 -0.89,3.64 6.32,6.32 0 0 1 -2.46,2.46 7.27,7.27 0 0 1 -3.58,0.87 6.47,6.47 0 0 1 -2.91,-0.68 6.77,6.77 0 0 1 -2.25,-1.68 l -1,1.55 a 8.19,8.19 0 0 0 2.75,1.92 8.46,8.46 0 0 0 3.4,0.71 9.35,9.35 0 0 0 4.52,-1.08 8.07,8.07 0 0 0 3.15,-3 8.8,8.8 0 0 0 1.17,-4.59 8.58,8.58 0 0 0 -0.6,-3.33 6.37,6.37 0 0 0 -1.61,-2.31 z"
     stroke-miterlimit="10"
     id="path907"
     inkscape:connector-curvature="0"
     style="fill:#52a3a6;stroke:#52a3a6;stroke-width:0.25;stroke-miterlimit:10" />
  <path
     d="m 371.78,383.38555 a 8.51,8.51 0 0 1 -1.84,5.85 6.49,6.49 0 0 1 -4.63,2.21 v 1.82 a 8.56,8.56 0 0 0 4.24,-1.22 8.19,8.19 0 0 0 3,-3.31 11.25,11.25 0 0 0 1.13,-5.23 v -23.36 h -1.9 z"
     stroke-miterlimit="10"
     id="path909"
     inkscape:connector-curvature="0"
     style="fill:#52a3a6;stroke:#52a3a6;stroke-width:0.25;stroke-miterlimit:10" />
  <path
     d="m 397.84,378.35555 a 8.34,8.34 0 0 1 -1,4.14 6.94,6.94 0 0 1 -2.71,2.69 8,8 0 0 1 -3.94,0.95 7.76,7.76 0 0 1 -3.87,-0.95 6.89,6.89 0 0 1 -2.69,-2.69 8.24,8.24 0 0 1 -1,-4.14 v -18.21 h -1.9 v 18.32 a 10.08,10.08 0 0 0 1.24,5.12 8.35,8.35 0 0 0 3.39,3.25 11,11 0 0 0 9.65,0 8.43,8.43 0 0 0 3.4,-3.25 9.89,9.89 0 0 0 1.26,-5.12 v -18.32 h -1.86 z"
     stroke-miterlimit="10"
     id="path911"
     inkscape:connector-curvature="0"
     style="fill:#52a3a6;stroke:#52a3a6;stroke-width:0.25;stroke-miterlimit:10" />
  <polygon
     points="543.89,486.94 560.86,486.94 560.86,485.12 545.79,485.12 545.79,459.44 543.89,459.44 "
     stroke-miterlimit="10"
     id="polygon913"
     style="fill:#52a3a6;stroke:#52a3a6;stroke-width:0.25;stroke-miterlimit:10"
     transform="translate(-137.1,-99.294453)" />
  <polygon
     points="567.63,459.44 565.74,459.44 565.74,486.94 567.63,486.94 567.63,474.01 584.21,474.01 584.21,486.94 586.11,486.94 586.11,459.44 584.21,459.44 584.21,472.22 567.63,472.22 "
     stroke-miterlimit="10"
     id="polygon915"
     style="fill:#52a3a6;stroke:#52a3a6;stroke-width:0.25;stroke-miterlimit:10"
     transform="translate(-137.1,-99.294453)" />
  <path
     d="m 478.48,364.00555 a 13.88,13.88 0 0 0 -4.49,-3.06 13.93,13.93 0 0 0 -10.9,0 14.17,14.17 0 0 0 -4.48,3.06 14.43,14.43 0 0 0 -3,4.49 13.72,13.72 0 0 0 -1.08,5.44 14.2,14.2 0 0 0 1.08,5.58 13.7,13.7 0 0 0 3,4.45 14,14 0 0 0 4.48,2.95 14.24,14.24 0 0 0 5.44,1 13.92,13.92 0 0 0 10,-4.1 14.36,14.36 0 0 0 3,-4.48 14,14 0 0 0 0,-10.88 14.52,14.52 0 0 0 -3.05,-4.45 z m 1.26,14.7 a 12.23,12.23 0 0 1 -6.48,6.48 11.85,11.85 0 0 1 -4.77,0.95 11.51,11.51 0 0 1 -4.67,-0.95 12.37,12.37 0 0 1 -3.85,-2.61 12.06,12.06 0 0 1 -3.52,-8.6 12.28,12.28 0 0 1 7.32,-11.33 11.5,11.5 0 0 1 4.76,-1 11.77,11.77 0 0 1 4.73,1 12.35,12.35 0 0 1 6.48,6.57 12.37,12.37 0 0 1 0,9.51 z"
     stroke-miterlimit="10"
     id="path917"
     inkscape:connector-curvature="0"
     style="fill:#52a3a6;stroke:#52a3a6;stroke-width:0.25;stroke-miterlimit:10" />
  <path
     d="m 503.76,382.22555 c 1.28,-1.34 2.46,-2.7 3.56,-4.07 a 21.64,21.64 0 0 0 2.65,-4.14 9.54,9.54 0 0 0 1,-4.22 8.37,8.37 0 0 0 -0.91,-3.93 7,7 0 0 0 -2.55,-2.79 7.12,7.12 0 0 0 -3.86,-1 8.12,8.12 0 0 0 -4.22,1 6.69,6.69 0 0 0 -2.63,2.75 8.11,8.11 0 0 0 -0.9,3.81 8.29,8.29 0 0 0 0.26,2 6.65,6.65 0 0 0 0.75,1.84 6.53,6.53 0 0 0 1.2,1.45 l 1.16,-1.05 a 5.12,5.12 0 0 1 -1.12,-1.86 7.29,7.29 0 0 1 -0.12,-4.32 6.23,6.23 0 0 1 0.91,-1.87 4.79,4.79 0 0 1 1.73,-1.46 6.45,6.45 0 0 1 4.67,-0.23 5.5,5.5 0 0 1 1.82,1.05 5.26,5.26 0 0 1 1.35,1.88 6.93,6.93 0 0 1 0.52,2.86 9,9 0 0 1 -1.06,4.07 24.45,24.45 0 0 1 -2.89,4.32 c -1.21,1.48 -2.59,3 -4.12,4.57 -1.53,1.57 -3.13,3.14 -4.78,4.74 h 16.19 v -1.82 h -12 c 1.11,-1.17 2.23,-2.37 3.39,-3.58 z"
     stroke-miterlimit="10"
     id="path919"
     inkscape:connector-curvature="0"
     style="fill:#52a3a6;stroke:#52a3a6;stroke-width:0.25;stroke-miterlimit:10" />
  <path
     d="m 532.05,365.86555 a 9.43,9.43 0 0 0 -3.31,-2.75 9.74,9.74 0 0 0 -4.47,-1 10.2,10.2 0 0 0 -4.53,0.95 9.28,9.28 0 0 0 -3.34,2.69 12.42,12.42 0 0 0 -2,4.08 18,18 0 0 0 -0.7,5.1 17,17 0 0 0 0.72,5 13.13,13.13 0 0 0 2.07,4.13 9.55,9.55 0 0 0 3.33,2.77 9.93,9.93 0 0 0 4.5,1 9.43,9.43 0 0 0 7.78,-3.74 12.73,12.73 0 0 0 2.08,-4.11 17.41,17.41 0 0 0 0.71,-5.05 17.17,17.17 0 0 0 -0.71,-5 12.68,12.68 0 0 0 -2.13,-4.07 z m -0.25,15 a 8.86,8.86 0 0 1 -3.06,3.84 7.81,7.81 0 0 1 -4.51,1.34 7.7,7.7 0 0 1 -4.49,-1.34 8.73,8.73 0 0 1 -3,-3.84 16,16 0 0 1 0,-11.75 9,9 0 0 1 3,-3.84 7.4,7.4 0 0 1 4.49,-1.31 7.5,7.5 0 0 1 4.51,1.31 9.1,9.1 0 0 1 3.06,3.84 14.2,14.2 0 0 1 1.1,5.85 14.42,14.42 0 0 1 -1.1,5.88 z"
     stroke-miterlimit="10"
     id="path921"
     inkscape:connector-curvature="0"
     style="fill:#52a3a6;stroke:#52a3a6;stroke-width:0.25;stroke-miterlimit:10" />
  <path
     d="m 544.35,382.22555 q 1.92,-2 3.56,-4.07 a 21.71,21.71 0 0 0 2.66,-4.14 9.67,9.67 0 0 0 1,-4.22 8.37,8.37 0 0 0 -0.91,-3.93 6.94,6.94 0 0 0 -2.55,-2.79 7.09,7.09 0 0 0 -3.86,-1 8.12,8.12 0 0 0 -4.22,1 6.69,6.69 0 0 0 -2.63,2.75 8.1,8.1 0 0 0 -0.89,3.81 8.28,8.28 0 0 0 0.25,2 7,7 0 0 0 0.75,1.84 6.53,6.53 0 0 0 1.2,1.45 l 1.17,-1.05 a 5.14,5.14 0 0 1 -1.13,-1.86 7.38,7.38 0 0 1 -0.11,-4.32 5.79,5.79 0 0 1 0.91,-1.87 4.75,4.75 0 0 1 1.72,-1.46 6.45,6.45 0 0 1 4.67,-0.23 5.4,5.4 0 0 1 1.82,1.05 5.14,5.14 0 0 1 1.35,1.88 6.92,6.92 0 0 1 0.53,2.86 9,9 0 0 1 -1.07,4.07 24.92,24.92 0 0 1 -2.88,4.32 c -1.22,1.48 -2.59,3 -4.13,4.57 -1.54,1.57 -3.13,3.14 -4.78,4.74 h 16.19 v -1.82 h -12 q 1.66,-1.76 3.38,-3.58 z"
     stroke-miterlimit="10"
     id="path923"
     inkscape:connector-curvature="0"
     style="fill:#52a3a6;stroke:#52a3a6;stroke-width:0.25;stroke-miterlimit:10" />
  <polygon
     points="695.88,463.47 695.88,486.94 697.78,486.94 697.78,461.65 692.12,461.65 692.12,463.47 "
     stroke-miterlimit="10"
     id="polygon925"
     style="fill:#52a3a6;stroke:#52a3a6;stroke-width:0.25;stroke-miterlimit:10"
     transform="translate(-137.1,-99.294453)" />
  <polygon
     points="147.32,486.47 152.71,486.47 152.71,464.3 159.37,464.3 159.37,459.09 140.92,459.09 140.92,464.3 147.32,464.3 "
     stroke-miterlimit="10"
     id="polygon927"
     style="fill:#52a3a6;stroke:#52a3a6;stroke-width:0.25;stroke-miterlimit:10"
     transform="translate(-137.1,-99.294453)" />
  <path
     d="m 47.24,363.70555 a 14.54,14.54 0 0 0 -4.48,-3.07 13.63,13.63 0 0 0 -10.82,0 14.17,14.17 0 0 0 -4.45,3.07 14.47,14.47 0 0 0 -3,4.48 13.51,13.51 0 0 0 -1.08,5.36 13.71,13.71 0 0 0 1.08,5.43 14,14 0 0 0 7.44,7.44 14.21,14.21 0 0 0 10.82,0 14.33,14.33 0 0 0 4.48,-3 13.75,13.75 0 0 0 3,-4.44 13.55,13.55 0 0 0 1.1,-5.43 13.35,13.35 0 0 0 -1.1,-5.36 14.14,14.14 0 0 0 -2.99,-4.48 z m -2.06,13.24 a 9,9 0 0 1 -1.75,2.79 7.89,7.89 0 0 1 -2.62,1.88 8.06,8.06 0 0 1 -3.26,0.67 8.31,8.31 0 0 1 -6.08,-2.55 8.8,8.8 0 0 1 -1.82,-2.79 8.91,8.91 0 0 1 -0.65,-3.4 9.33,9.33 0 0 1 0.63,-3.46 8.59,8.59 0 0 1 1.79,-2.81 8.23,8.23 0 0 1 2.68,-1.88 8.51,8.51 0 0 1 6.62,0 8.15,8.15 0 0 1 2.66,1.88 9.36,9.36 0 0 1 1.8,9.67 z"
     stroke-miterlimit="10"
     id="path929"
     inkscape:connector-curvature="0"
     style="fill:#52a3a6;stroke:#52a3a6;stroke-width:0.25;stroke-miterlimit:10" />
  <path
     d="m 72.2,375.41555 a 8.6,8.6 0 0 0 1.64,-3 11.71,11.71 0 0 0 0.5,-3.34 9.85,9.85 0 0 0 -0.71,-3.82 8.06,8.06 0 0 0 -2.06,-2.9 9.53,9.53 0 0 0 -3.37,-1.86 14.92,14.92 0 0 0 -4.57,-0.65 h -8.3 v 27.38 h 5.4 v -8.71 h 3.59 l 5.78,8.71 h 6.28 l -6.37,-10 a 8,8 0 0 0 2.19,-1.81 z m -11.47,-10.41 h 3.86 a 4.5,4.5 0 0 1 2.25,0.48 3.34,3.34 0 0 1 1.25,1.19 4.59,4.59 0 0 1 0.54,1.4 6.09,6.09 0 0 1 0.13,1.13 4.44,4.44 0 0 1 -0.21,1.29 4.34,4.34 0 0 1 -0.67,1.32 3.43,3.43 0 0 1 -1.28,1 4.57,4.57 0 0 1 -2,0.41 h -3.83 z"
     stroke-miterlimit="10"
     id="path931"
     inkscape:connector-curvature="0"
     style="fill:#52a3a6;stroke:#52a3a6;stroke-width:0.25;stroke-miterlimit:10" />
  <path
     d="m 96.26,375.41555 a 8.6,8.6 0 0 0 1.64,-3 11.71,11.71 0 0 0 0.5,-3.34 9.85,9.85 0 0 0 -0.7,-3.82 8.08,8.08 0 0 0 -2.07,-2.9 9.48,9.48 0 0 0 -3.36,-1.86 15,15 0 0 0 -4.58,-0.65 H 79.4 v 27.38 h 5.39 v -8.71 h 3.59 l 5.78,8.71 h 6.29 l -6.38,-10 a 7.68,7.68 0 0 0 2.19,-1.81 z m -11.47,-10.41 h 3.87 a 4.53,4.53 0 0 1 2.25,0.48 3.31,3.31 0 0 1 1.24,1.19 4.13,4.13 0 0 1 0.54,1.4 6.09,6.09 0 0 1 0.13,1.13 4.78,4.78 0 0 1 -0.2,1.29 4.57,4.57 0 0 1 -0.67,1.32 3.51,3.51 0 0 1 -1.28,1 4.62,4.62 0 0 1 -2.05,0.41 h -3.83 z"
     stroke-miterlimit="10"
     id="path933"
     inkscape:connector-curvature="0"
     style="fill:#52a3a6;stroke:#52a3a6;stroke-width:0.25;stroke-miterlimit:10" />
  <polygon
     points="257.71,470.14 245.95,470.14 245.95,464.3 259.23,464.3 259.23,459.09 240.56,459.09 240.56,486.47 259.75,486.47 259.75,481.26 245.95,481.26 245.95,475.35 257.71,475.35 "
     stroke-miterlimit="10"
     id="polygon935"
     style="fill:#52a3a6;stroke:#52a3a6;stroke-width:0.25;stroke-miterlimit:10"
     transform="translate(-137.1,-99.294453)" />
  <path
     d="m 132.43,365.15555 a 4.74,4.74 0 0 1 2.76,-0.71 9.39,9.39 0 0 1 3,0.56 20.3,20.3 0 0 1 3.18,1.41 l 2,-4.13 a 19.67,19.67 0 0 0 -3.7,-1.86 15.44,15.44 0 0 0 -5.37,-0.78 10.54,10.54 0 0 0 -4.47,1.14 7.49,7.49 0 0 0 -3,2.77 7.76,7.76 0 0 0 -0.93,4.15 6.94,6.94 0 0 0 0.73,3.33 7.07,7.07 0 0 0 1.89,2.27 13.74,13.74 0 0 0 2.51,1.54 c 0.9,0.42 1.76,0.79 2.61,1.11 a 12.67,12.67 0 0 1 2,1 5.6,5.6 0 0 1 1.45,1.23 2.32,2.32 0 0 1 0.54,1.49 2.58,2.58 0 0 1 -0.65,1.86 3.62,3.62 0 0 1 -1.64,0.94 7,7 0 0 1 -1.95,0.28 8.82,8.82 0 0 1 -2.12,-0.29 12.65,12.65 0 0 1 -2.29,-0.84 12.8,12.8 0 0 1 -2.1,-1.25 l -2.38,4.21 a 16.48,16.48 0 0 0 6.19,2.62 16.62,16.62 0 0 0 3.18,0.31 10.93,10.93 0 0 0 5.13,-1.09 7.86,7.86 0 0 0 3.16,-2.89 7.31,7.31 0 0 0 1.08,-3.86 8.59,8.59 0 0 0 -0.56,-3.33 6.62,6.62 0 0 0 -1.48,-2.27 8.84,8.84 0 0 0 -2.1,-1.53 21.52,21.52 0 0 0 -2.37,-1.06 c -0.86,-0.32 -1.7,-0.68 -2.51,-1.07 a 7.51,7.51 0 0 1 -2,-1.36 2.39,2.39 0 0 1 -0.76,-1.73 2.42,2.42 0 0 1 0.97,-2.17 z"
     stroke-miterlimit="10"
     id="path937"
     inkscape:connector-curvature="0"
     style="fill:#52a3a6;stroke:#52a3a6;stroke-width:0.25;stroke-miterlimit:10" />
  <polygon
     points="292.41,459.09 304.9,487.73 317.4,459.09 311,459.09 305.14,474.52 298.88,459.09 "
     stroke-miterlimit="10"
     id="polygon939"
     style="fill:#52a3a6;stroke:#52a3a6;stroke-width:0.25;stroke-miterlimit:10"
     transform="translate(-137.1,-99.294453)" />
  <polygon
     points="337.82,470.14 326.07,470.14 326.07,464.3 339.35,464.3 339.35,459.09 320.67,459.09 320.67,486.47 339.87,486.47 339.87,481.26 326.07,481.26 326.07,475.35 337.82,475.35 "
     stroke-miterlimit="10"
     id="polygon941"
     style="fill:#52a3a6;stroke:#52a3a6;stroke-width:0.25;stroke-miterlimit:10"
     transform="translate(-137.1,-99.294453)" />
  <path
     d="m 226.77,364.29555 a 12.44,12.44 0 0 0 -4.66,-3.27 18,18 0 0 0 -7,-1.23 h -8.21 v 27.38 h 9.53 a 15.42,15.42 0 0 0 5.28,-0.91 13.3,13.3 0 0 0 4.39,-2.64 12.69,12.69 0 0 0 3,-4.17 13.22,13.22 0 0 0 1.1,-5.49 16.57,16.57 0 0 0 -0.82,-5.09 13.2,13.2 0 0 0 -2.61,-4.58 z m -2.82,12.93 a 7,7 0 0 1 -1.86,2.62 8.37,8.37 0 0 1 -2.88,1.58 12.11,12.11 0 0 1 -3.72,0.54 h -3.2 v -17 h 4.39 a 8.92,8.92 0 0 1 2.26,0.36 7.81,7.81 0 0 1 2.63,1.28 7.28,7.28 0 0 1 2.15,2.62 9.44,9.44 0 0 1 0.88,4.37 9.59,9.59 0 0 1 -0.65,3.63 z"
     stroke-miterlimit="10"
     id="path943"
     inkscape:connector-curvature="0"
     style="fill:#52a3a6;stroke:#52a3a6;stroke-width:0.25;stroke-miterlimit:10" />
  <path
     d="m 267.45,358.70555 -12.32,28.4 -6.34,-9.88 a 7.87,7.87 0 0 0 2.2,-1.81 8.58,8.58 0 0 0 1.63,-3 11.38,11.38 0 0 0 0.51,-3.34 9.85,9.85 0 0 0 -0.71,-3.82 8,8 0 0 0 -2.07,-2.9 9.39,9.39 0 0 0 -3.36,-1.86 15,15 0 0 0 -4.58,-0.65 h -8.29 v 27.38 h 5.39 v -8.71 h 3.59 l 5.79,8.71 h 11.53 l 2.23,-5.36 h 9.08 l 2.11,5.36 h 6.25 l -12.35,-28.52 z m -27.94,6.29 h 3.87 a 4.53,4.53 0 0 1 2.25,0.48 3.42,3.42 0 0 1 1.27,1.23 4.59,4.59 0 0 1 0.54,1.4 7.09,7.09 0 0 1 0.13,1.13 4.44,4.44 0 0 1 -0.21,1.29 4.34,4.34 0 0 1 -0.67,1.32 3.43,3.43 0 0 1 -1.28,1 4.62,4.62 0 0 1 -2.05,0.41 h -3.83 z m 25,12.27 2.77,-6.67 2.63,6.67 z"
     stroke-miterlimit="10"
     id="path945"
     inkscape:connector-curvature="0"
     style="fill:#52a3a6;stroke:#52a3a6;stroke-width:0.25;stroke-miterlimit:10" />
  <path
     d="m 288.27,365.15555 a 4.74,4.74 0 0 1 2.76,-0.71 9.39,9.39 0 0 1 3,0.56 20.3,20.3 0 0 1 3.18,1.41 l 2,-4.13 a 19.67,19.67 0 0 0 -3.7,-1.86 15.44,15.44 0 0 0 -5.37,-0.78 10.54,10.54 0 0 0 -4.47,1.14 7.55,7.55 0 0 0 -3,2.77 7.76,7.76 0 0 0 -1.06,4.13 6.94,6.94 0 0 0 0.73,3.33 7.07,7.07 0 0 0 1.89,2.27 13.74,13.74 0 0 0 2.51,1.54 c 0.9,0.42 1.76,0.79 2.61,1.11 a 12.67,12.67 0 0 1 2,1 5.6,5.6 0 0 1 1.45,1.23 2.32,2.32 0 0 1 0.54,1.49 2.58,2.58 0 0 1 -0.65,1.86 3.62,3.62 0 0 1 -1.64,0.94 7,7 0 0 1 -2,0.28 8.82,8.82 0 0 1 -2.12,-0.29 12.93,12.93 0 0 1 -2.29,-0.84 12.8,12.8 0 0 1 -2.1,-1.25 l -2.38,4.21 a 16.48,16.48 0 0 0 6.19,2.62 16.62,16.62 0 0 0 3.18,0.31 10.93,10.93 0 0 0 5.13,-1.09 7.8,7.8 0 0 0 3.16,-2.89 7.31,7.31 0 0 0 1.08,-3.86 8.79,8.79 0 0 0 -0.55,-3.33 6.79,6.79 0 0 0 -1.49,-2.27 8.84,8.84 0 0 0 -2.1,-1.53 20.71,20.71 0 0 0 -2.37,-1.06 c -0.86,-0.32 -1.7,-0.68 -2.51,-1.07 a 7.51,7.51 0 0 1 -2,-1.36 2.39,2.39 0 0 1 -0.76,-1.73 2.42,2.42 0 0 1 1.15,-2.15 z"
     stroke-miterlimit="10"
     id="path947"
     inkscape:connector-curvature="0"
     style="fill:#52a3a6;stroke:#52a3a6;stroke-width:0.25;stroke-miterlimit:10" />
</svg>
